<svg width="111" height="83" viewBox="0 0 111 83" fill="none" xmlns="http://www.w3.org/2000/svg">
<mask id="mask0_4_5" style="mask-type:luminance" maskUnits="userSpaceOnUse" x="1" y="30" width="109" height="53">
<path d="M1.33337 30H109.333V82.8542H1.33337V30Z" fill="white"/>
</mask>
<g mask="url(#mask0_4_5)">
<path d="M106.885 31.1614C107.542 35.9583 107.859 40.7812 107.849 45.6249C107.849 52.8905 109.094 51.3489 107.474 58.4374C106.625 62.2135 103.917 61.9114 100.099 63.3853C97.2812 64.4687 93.9895 64.7916 92.3698 65.5728C90.4062 66.526 84.5781 69.1926 78.2916 70.8853C72.3333 72.4895 66.5937 73.5103 63.9323 74.0103C61.2708 74.5103 56.7968 76.5468 52.4948 78.2395C46.9062 80.4478 45.7291 82.1405 39.8125 82.552C36.4739 82.7916 36.0573 81.7083 33.2448 79.927C30.7135 78.3228 25.5364 75.2447 24.4479 73.9895C24.052 73.5103 18.0104 70.6249 11.9635 65.8749C6.43746 61.5416 4.17183 60.0468 4.10413 59.4999C3.82288 57.4426 4.19267 56.1614 3.82288 51.7187C3.53642 48.2239 4.10413 44.453 3.62496 42.3489C3.16663 40.3333 2.79683 37.0572 2.22913 33.6562L106.844 31.1614H106.885Z" fill="#E1A141"/>
</g>
<mask id="mask1_4_5" style="mask-type:luminance" maskUnits="userSpaceOnUse" x="0" y="0" width="111" height="68">
<path d="M0 0.890625H110.667V67.3333H0V0.890625Z" fill="white"/>
</mask>
<g mask="url(#mask1_4_5)">
<path d="M108.745 31.4008C110.708 19.906 109.333 22.8331 96.0833 14.2706C91.151 11.0571 83.7291 2.60393 74.6927 1.51539C70 0.95289 65.4583 4.61956 54.3958 6.22372C44.2448 7.69768 30.1875 12.8383 26.151 14.4841C22.9635 15.7654 13.1406 17.781 9.73434 18.9321C4.0833 20.8383 1.79164 21.1873 0.567676 24.7394C-0.13024 26.7602 0.895802 29.4269 0.96351 33.63C1.02601 37.8175 1.15622 38.1404 0.458301 40.5258C-0.239616 42.8904 2.29163 46.8591 4.49476 45.3852C7.61976 43.3019 4.54164 36.0623 6.54684 36.2758C9.51559 36.6248 7.16143 40.7237 10.5 42.7602C13.8385 44.8019 15.4114 41.4164 17.9427 42.2394C22.3958 43.6925 26.5 38.6196 26.5 43.8904C26.5 49.156 23.7291 52.6039 28.4218 53.4529C32.3073 54.1664 31.0156 49.8748 31.4739 46.7706C31.9323 43.63 38.2396 46.2758 37.6718 52.0206C36.7552 61.3904 34.0937 65.8331 41.1666 67.0675C45.75 67.8696 46.625 60.2394 45.3593 54.7081C44.0937 49.1821 45.0937 47.031 48.4583 46.255C51.8177 45.4529 51.5104 49.5727 54.4166 50.0258C58.0833 50.5883 59.9375 49.1821 59.9375 46.255C59.9375 43.3279 64.0416 41.7185 67.1614 43.0414C70.2812 44.3435 71.7916 46.2289 75.7812 44.2133C81.6354 41.2446 78.6875 46.8591 84.7135 47.2081C90.7135 47.5519 84.6041 40.0102 88.6198 39.8331C92.6146 39.6612 88.1823 47.38 90.9114 48.531C93.6406 49.6769 98.1354 48.6821 96.3646 41.4164C95.1458 36.3435 97.7396 33.8279 100.12 36.2758C101.542 37.755 100.578 38.9216 102.26 40.6144C103.349 41.7446 106.802 42.2394 107.87 40.9425C110.687 37.5362 108.286 34.2602 108.786 31.4216L108.745 31.4008Z" fill="#59453C"/>
</g>
<path d="M59.6093 55.8593C59.677 56.401 59.4583 56.8802 59.2812 57.3541C59.151 57.6823 58.9323 57.9843 58.5625 58.026C58.1927 58.0729 57.8854 57.9427 57.6666 57.5729C57.2083 56.8333 57.1198 56.5989 57.1198 55.7083C56.7708 55.6614 56.1198 56.0989 56.1198 56.4218C56.1198 57.5052 56.1198 58.5937 56.927 59.4791C57.1666 59.7604 57.3385 60.1093 57.6041 60.3906C58.1458 61 58.7604 61.0416 59.3281 60.5416C60.1979 59.7864 60.8958 58.875 60.7031 57.5937C60.677 57.401 60.7031 57.2031 60.7448 57.0104C60.9218 56.2916 60.5729 55.9218 59.6562 55.8177L59.6093 55.8593Z" fill="#9F6D49"/>
<path d="M24.0989 59.1093C23.901 60.0208 23.2916 60.6093 22.7448 61.2812C22.526 61.5416 22.3073 61.5625 22.0677 61.3645C21.4583 60.8489 20.8698 60.302 20.5156 59.5677C20.4323 59.3698 20.4114 59.177 20.4739 59.026C20.5625 58.8281 20.6041 58.677 20.4739 58.4843C20.4531 58.4375 20.4531 58.5468 20.4114 58.5468C20.1041 58.5468 19.776 58.5052 19.5781 58.8281C19.3385 59.2187 19.276 59.677 19.3594 60.1302C19.5156 60.9114 19.776 61.651 20.0156 62.4062C20.1458 62.8177 20.4323 63.0573 20.8229 63.1875C21.9791 63.5781 22.4166 63.427 23.3125 62.5156C23.7916 62.0416 24.1614 61.4948 24.5573 60.9531C25.1458 60.0885 24.9687 59.4375 24.0781 59.1354L24.0989 59.1093Z" fill="#9F6D49"/>
<path d="M97.5885 55.9481C97.5 56.4012 97.7656 56.8126 97.8489 57.2449C97.875 57.3751 97.9375 57.5054 97.9791 57.6356C98.0885 58.047 98.3333 58.1772 98.7656 58.1147C99.0729 58.0731 99.3125 58.0262 99.5989 57.8335C100.167 57.4429 100.49 56.8804 100.776 56.2918C101.057 55.7293 100.906 55.4481 100.318 55.2293C99.9479 55.0783 99.5729 55.0158 99.2239 54.8595C98.6562 54.646 97.6771 55.3179 97.6093 55.9481H97.5885Z" fill="#9F6D49"/>
<path d="M67.6875 62.172C67.4011 62.8438 67.3594 63.5574 66.8125 64.0365C66.5938 64.2293 66.3542 64.2709 66.1823 64.0365C65.7448 63.4897 65.2865 62.948 65.3698 62.1459C65.0886 62.0626 64.8907 62.2136 64.849 62.4532C64.7188 63.1668 64.6511 63.8803 65.0469 64.599C65.2188 64.9011 65.3282 65.2709 65.4584 65.6199C65.5677 65.8543 65.6979 66.0313 65.9167 66.1824C66.0729 66.2657 66.2032 66.2918 66.3542 66.1824C67.3802 65.422 67.9896 64.4272 68.125 63.1668C68.1667 62.7761 67.9896 62.474 67.6875 62.1928V62.172Z" fill="#9F6D49"/>
<path d="M50.7239 69.9739C50.7916 69.5833 50.5937 69.3228 50.2447 69.2395C49.8749 69.151 49.4843 69.0208 49.0885 69.1718C48.3906 69.453 48.302 69.651 48.5208 70.3645C48.6301 70.7551 48.8072 71.1458 48.9791 71.5155C49.1353 71.8176 49.3489 71.8645 49.6562 71.6458C50.2656 71.2343 50.4635 70.5833 50.7031 69.9739H50.7239Z" fill="#9F6D49"/>
<path d="M93.8126 60.9323C93.7709 61.4323 93.9428 61.8855 94.1407 62.323C94.2501 62.5573 94.448 62.5573 94.6615 62.4271C95.1667 62.1459 95.4271 61.6719 95.6667 61.1719C95.7761 60.9792 95.6667 60.7396 95.474 60.6303C95.1667 60.5001 94.8386 60.3907 94.5313 60.3021C94.2501 60.2396 93.8542 60.6094 93.8126 60.9323Z" fill="#9F6D49"/>
<path d="M105.427 42.2865C105.182 42.2865 104.99 42.5469 104.813 42.8281C104.703 42.9792 104.724 43.1979 104.792 43.4323C104.943 43.9531 105.182 44.1927 105.427 44.3906C105.531 44.474 105.62 44.3437 105.667 44.0833C105.708 43.7396 105.75 43.3698 105.776 42.9792C105.776 42.6771 105.599 42.2656 105.448 42.2656L105.427 42.2865Z" fill="#9F6D49"/>
<path d="M75.6094 68.2603C75.6771 68.5207 76.1771 68.6509 76.6979 68.7811C76.9635 68.8488 77.375 68.7811 77.7708 68.6092C78.6666 68.2394 79.0156 67.8957 79.3177 67.5676C79.4531 67.4165 79.2083 67.354 78.75 67.3957C78.1198 67.4582 77.4635 67.5467 76.8073 67.6561C76.2656 67.7446 75.5885 68.0884 75.6094 68.2603Z" fill="#9F6D49"/>
<path d="M48.4323 74.5521C48.4323 74.5521 53.8282 76.026 56.073 74.5938C58.323 73.1406 60.1146 72.4896 61.0521 72.1875C61.9896 71.8854 62.3802 72.4271 65.724 71.5781C69.0834 70.7344 67.9896 71.3646 70.5677 70.0833C70.9167 69.9115 73.8855 68.1094 73.8855 68.1094C73.8855 68.1094 71.0469 69.3229 69.6719 69.4531C68.2969 69.5833 68.3646 69.6094 66.573 69.8698C64.7813 70.125 65.7448 70.2135 63.625 70.7135C61.5105 71.2135 58.1042 71.1667 56.599 72.4688C55.1146 73.7708 53.9584 73.7292 53.3698 74.0313C52.7761 74.3333 48.4115 74.5521 48.4115 74.5521H48.4323Z" fill="#9F6D49"/>
<path d="M18.1198 52.4114C17.2031 52.2187 14.4479 53.0208 13.7292 52.2395C13.0104 51.4583 12.2031 50.2655 11.4375 49.8333C10.6719 49.3958 9.43229 48.7916 8.88542 48.6145C8.33854 48.4426 7.42188 47.0989 7.42188 47.0989C7.42188 47.0989 9.05729 48.2499 9.84375 48.2499C10.6302 48.2499 12.3542 48.7447 12.5521 49.0051C12.75 49.2655 13.6198 50.4791 13.8594 50.5885C14.099 50.6978 15.2604 51.7395 15.7188 51.8697C16.1771 51.9999 18.1198 52.4114 18.1198 52.4114Z" fill="#9F6D49"/>
<path d="M104.156 60.1978C104.573 59.177 105.99 56.6405 105.818 55.3801C105.641 54.1249 105.208 52.4999 105.338 51.4374C105.469 50.3749 105.776 48.7447 105.99 48.052C106.208 47.3801 105.708 45.5364 105.708 45.5364C105.708 45.5364 105.599 47.9635 105.099 48.7447C104.594 49.526 103.917 51.5676 103.984 51.9583C104.052 52.3437 104.484 54.0364 104.422 54.3437C104.354 54.6458 104.443 56.5103 104.266 57.052C104.094 57.5937 104.156 60.1718 104.156 60.1718V60.1978Z" fill="#9F6D49"/>
<path d="M77.8334 52.1093C77.8334 52.1093 82.0261 50.8072 82.9219 51.026C83.8177 51.2187 84.3177 51.2604 84.5365 51.4999C84.7552 51.7395 86.1927 51.8697 86.3698 51.9999C86.5469 52.1302 89.2084 51.651 89.2084 51.651L90.6719 52.4531C90.6719 52.4531 89.6198 52.4999 88.2448 52.6927C86.8698 52.8645 85.8438 53.4739 85.8438 53.4739C85.8438 53.4739 84.7552 52.8229 84.5157 52.6927C84.2761 52.5624 83.9688 52.1093 82.8125 52.151C81.6355 52.1718 77.8334 52.151 77.8334 52.151V52.1093Z" fill="#9F6D49"/>
<path d="M39.0938 68.0885C39.0938 68.0885 37.9375 69.4999 38.0469 70.3437C38.1563 71.2135 38.1771 71.6874 38.349 71.9062C38.526 72.1458 38.1302 75.0937 38.2188 75.2864C38.3281 75.4843 37.349 77.2603 37.9583 78.2603C38.5885 79.2551 39.8594 79.8228 39.8594 79.8228C39.8594 79.8228 38.875 77.802 39.1146 76.526C39.3542 75.2447 39.4635 75.0728 39.6615 74.2708C39.8594 73.4687 39.4427 72.2083 39.3542 71.9687C38.7448 70.1249 39.0938 68.0676 39.0938 68.0676V68.0885Z" fill="#9F6D49"/>
<path d="M19.1667 32.5261C17.9844 31.8334 18.6615 31.8126 14.6667 29.099C10.651 26.3907 10.8698 25.3907 7.20313 23.8334C6.70313 23.6147 3.79688 23.4636 3.79688 23.4636C3.79688 23.4636 6.39583 23.9636 7.85938 25.2397C9.32292 26.5209 8.77604 25.7397 10.7604 27.3438C12.724 28.948 12.1354 28.5157 14.6458 30.2501L19.1875 32.5261H19.1667Z" fill="#BAA685"/>
<path d="M22.375 33.9375C22.5677 34.0208 23.4427 34.6094 23.9427 34.9323C24.448 35.2604 24.5105 35.7135 24.5105 35.7135C24.5105 35.7135 23.1823 35.0833 23.0052 35.0833C22.8334 35.0833 20.7344 33.7865 20.4115 33.4375L22.375 33.9375Z" fill="#BAA685"/>
<path d="M81.4166 32.4635C84.9062 31.4635 86.8958 31.4219 91.0208 29.5104C94.927 27.6927 96.3906 27.125 100.536 25.7604C102.76 25.026 106.078 24.849 107.214 23.0938C105.797 23.6771 104.115 24.1563 102.76 24.4583C97.0208 25.7813 100.797 24.8958 95.0156 26.5625C92.0468 27.4115 91.8281 28.5573 85.8698 30.3385C84.0573 30.8802 81.4166 32.4375 81.4166 32.4375V32.4635Z" fill="#BAA685"/>
<path d="M79.1875 33.6095C75.8698 34.7605 76.5677 34.9532 73.099 35.672L69.6094 36.5626C71.1146 35.6043 71.1979 35.5209 72.6198 35.2605C74.0365 35.0001 74.4948 34.4793 75.7396 33.9584C76.9844 33.4168 79.1875 33.6095 79.1875 33.6095Z" fill="#BAA685"/>
<path d="M34.599 41.0051C34.599 41.0051 39.724 42.4791 40.8594 42.4791C41.9948 42.4791 44.7657 41.9791 46.0782 41.8072C47.3855 41.6353 50.0521 41.6562 50.0521 41.6562C50.0521 41.6562 46.1875 42.8072 45.5521 42.9114C44.9219 43.0208 42.3021 43.328 41.3177 43.3697C40.3386 43.3905 37.7813 42.7187 37.3021 42.5676C36.823 42.4166 34.599 41.0051 34.599 41.0051Z" fill="#BAA685"/>
<path d="M2.18236 43.4792C2.18236 43.4792 3.0782 43.8906 3.55736 43.9323C4.03653 43.974 5.00007 42.4167 5.08861 42.1562C5.17195 41.8958 5.26049 44.4948 4.0157 44.8021C2.75007 45.1042 2.03132 43.9323 2.18236 43.4792Z" fill="#BAA685"/>
<path d="M11.198 41.1563C11.198 41.1563 12.0261 42.6771 13.448 42.2865C14.8646 41.875 16.2188 40.9167 17.375 41.1563C18.5313 41.3959 19.1667 42.2657 20.7344 41.7188C22.3073 41.198 22.6771 41.0052 22.6771 41.0052C22.6771 41.0052 20.8907 41.0938 20.1042 41.0052C19.3177 40.8959 18.0521 40.2032 16.8959 40.3542C15.7396 40.5052 13.7292 41.2657 12.9011 41.3542C12.073 41.4375 11.1771 41.1771 11.1771 41.1771L11.198 41.1563Z" fill="#BAA685"/>
<path d="M26.7812 51.5416C26.7812 51.5416 28.6823 51.9583 29.0104 51.8489C29.3385 51.7395 30.2552 50.9999 30.6042 50.0676C30.6042 50.0676 30.7552 51.9322 29.8177 52.3437C28.8802 52.7603 28.3542 52.5624 26.7812 51.5208V51.5416Z" fill="#BAA685"/>
<path d="M39.8334 64.7917C39.8334 64.7917 42.0625 65.6198 42.7813 64.25C43.5261 62.8854 43.849 61.8021 44.0469 60.7396C44.2448 59.6771 44.1355 55.9688 44.1355 55.9688C44.1355 55.9688 45.1823 59.6302 44.7657 61.974C44.3542 64.3177 43.9584 64.3177 43.6563 64.9219C43.2188 65.8125 41.3386 66.5937 39.8594 64.7917H39.8334Z" fill="#BAA685"/>
<path d="M54.4166 48.573C54.4166 48.573 56.5781 48.6147 57.0104 48.224C57.4479 47.8386 58.6302 46.8178 58.7135 46.2292C58.7135 46.2292 59.1302 48.1199 57.625 48.7709C56.1198 49.4428 54.4375 48.573 54.4375 48.573H54.4166Z" fill="#BAA685"/>
<path d="M70.8073 43C70.8073 43 71.3073 43.4532 73.0989 43.2396C74.8645 43 75.5208 42.0261 77.7031 42.1979C76.6145 42.7396 75.3229 43.3282 74.7343 43.5417C74.1458 43.7604 71.8333 44.4323 70.8073 43Z" fill="#BAA685"/>
<path d="M83.2916 45.9063C83.2916 45.9063 85.302 45.9479 85.6927 45.5365C86.0885 45.125 86.5885 43.8906 86.5885 43.8906C86.5885 43.8906 87.9218 47.6615 83.2916 45.9063Z" fill="#BAA685"/>
<path d="M91.4115 47.6199C91.4115 47.6199 93.2448 47.3386 93.8542 47.099C94.4688 46.8386 95.2761 45.7553 95.3177 45.4949C95.3646 45.2345 95.6042 42.4792 95.6042 42.4792C95.6042 42.4792 96.1459 44.172 96.1042 44.823C96.0625 45.4949 95.7761 46.5782 95.474 46.8595C95.1667 47.1407 94.5782 47.9011 93.7917 48.0313C93.0052 48.1615 91.4115 47.6199 91.4115 47.6199Z" fill="#BAA685"/>
<path d="M104.724 40.1355C104.724 40.1355 106.583 39.8334 106.844 39.5105C107.74 38.4272 107.979 35.7136 107.979 35.7136C107.979 35.7136 108.568 37.7084 108.37 38.3178C108.177 38.922 107.828 41.7449 104.724 40.1355Z" fill="#BAA685"/>
</svg>
