<svg width="660" height="733" viewBox="0 0 660 733" fill="none" xmlns="http://www.w3.org/2000/svg">
<mask id="mask0_1_2538" style="mask-type:luminance" maskUnits="userSpaceOnUse" x="-10" y="0" width="674" height="734">
<path d="M663.333 0H-10V733.333H663.333V0Z" fill="white"/>
</mask>
<g mask="url(#mask0_1_2538)">
<mask id="mask1_1_2538" style="mask-type:luminance" maskUnits="userSpaceOnUse" x="420" y="613" width="240" height="120">
<path d="M420.667 613.333H659.333V732.187H420.667V613.333Z" fill="white"/>
</mask>
<g mask="url(#mask1_1_2538)">
<mask id="mask2_1_2538" style="mask-type:luminance" maskUnits="userSpaceOnUse" x="378" y="559" width="298" height="249">
<path d="M378.865 670.995L609.365 559.229L675.594 695.823L445.094 807.589L378.865 670.995Z" fill="white"/>
</mask>
<g mask="url(#mask2_1_2538)">
<mask id="mask3_1_2538" style="mask-type:luminance" maskUnits="userSpaceOnUse" x="421" y="613" width="238" height="179">
<path d="M481.307 621.318C511.188 606.833 543.552 614.865 564.328 633.787C568.62 629.599 573.755 626.052 579.729 623.156C606.625 610.115 639.583 621.547 652.62 648.443C665.87 675.761 654.255 706.172 628.641 718.589L496.318 782.75C462.167 799.307 437.448 790.734 426.063 767.255C415.302 745.057 423.479 718.427 443.99 706.37C435.688 674.021 447.162 637.88 481.307 621.318Z" fill="white"/>
</mask>
<g mask="url(#mask3_1_2538)">
<mask id="mask4_1_2538" style="mask-type:luminance" maskUnits="userSpaceOnUse" x="420" y="613" width="240" height="121">
<path d="M659.333 613.333H420.667V733.333H659.333V613.333Z" fill="white"/>
</mask>
<g mask="url(#mask4_1_2538)">
<mask id="mask5_1_2538" style="mask-type:luminance" maskUnits="userSpaceOnUse" x="420" y="613" width="240" height="120">
<path d="M420.667 613.333H659.333V732.187H420.667V613.333Z" fill="white"/>
</mask>
<g mask="url(#mask5_1_2538)">
<mask id="mask6_1_2538" style="mask-type:luminance" maskUnits="userSpaceOnUse" x="378" y="559" width="298" height="249">
<path d="M378.865 670.995L609.365 559.229L675.594 695.823L445.094 807.589L378.865 670.995Z" fill="white"/>
</mask>
<g mask="url(#mask6_1_2538)">
<mask id="mask7_1_2538" style="mask-type:luminance" maskUnits="userSpaceOnUse" x="421" y="613" width="238" height="179">
<path d="M481.307 621.318C511.187 606.833 543.552 614.865 564.328 633.787C568.62 629.599 573.755 626.052 579.729 623.156C606.625 610.115 639.583 621.547 652.62 648.443C665.87 675.761 654.255 706.172 628.641 718.589L496.318 782.75C462.167 799.307 437.448 790.735 426.062 767.255C415.302 745.057 423.479 718.427 443.99 706.37C435.687 674.021 447.161 637.88 481.307 621.318Z" fill="white"/>
</mask>
<g mask="url(#mask7_1_2538)">
<path d="M378.865 670.995L609.365 559.229L675.594 695.823L445.094 807.589L378.865 670.995Z" fill="#F3D6D4"/>
</g>
</g>
</g>
</g>
</g>
</g>
</g>
<mask id="mask8_1_2538" style="mask-type:luminance" maskUnits="userSpaceOnUse" x="420" y="613" width="240" height="120">
<path d="M420.667 613.333H659.333V732.187H420.667V613.333Z" fill="white"/>
</mask>
<g mask="url(#mask8_1_2538)">
<mask id="mask9_1_2538" style="mask-type:luminance" maskUnits="userSpaceOnUse" x="378" y="559" width="298" height="250">
<path d="M378.865 670.995L608.964 559.422L675.422 696.484L445.318 808.052L378.865 670.995Z" fill="white"/>
</mask>
<g mask="url(#mask9_1_2538)">
<mask id="mask10_1_2538" style="mask-type:luminance" maskUnits="userSpaceOnUse" x="378" y="559" width="298" height="249">
<path d="M378.865 670.995L609.354 559.234L675.583 695.823L445.094 807.583L378.865 670.995Z" fill="white"/>
</mask>
<g mask="url(#mask10_1_2538)">
<mask id="mask11_1_2538" style="mask-type:luminance" maskUnits="userSpaceOnUse" x="421" y="613" width="238" height="179">
<path d="M481.307 621.323C511.182 606.839 543.547 614.87 564.318 633.792C568.615 629.599 573.75 626.057 579.724 623.156C606.615 610.12 639.573 621.552 652.609 648.443C665.859 675.761 654.245 706.172 628.63 718.589L496.313 782.75C462.167 799.302 437.448 790.729 426.063 767.255C415.302 745.057 423.474 718.427 443.99 706.37C435.688 674.021 447.156 637.88 481.307 621.323Z" fill="white"/>
</mask>
<g mask="url(#mask11_1_2538)">
<path d="M481.307 621.323C511.182 606.838 543.547 614.87 564.318 633.792C568.615 629.599 573.75 626.057 579.724 623.156C606.615 610.12 639.573 621.552 652.609 648.443C665.859 675.76 654.245 706.172 628.63 718.588L496.313 782.75C462.167 799.302 437.448 790.729 426.063 767.255C415.302 745.057 423.474 718.427 443.99 706.37C435.687 674.021 447.156 637.88 481.307 621.323Z" stroke="#59453C" stroke-width="7.9961"/>
</g>
</g>
</g>
</g>
<mask id="mask12_1_2538" style="mask-type:luminance" maskUnits="userSpaceOnUse" x="250" y="622" width="252" height="111">
<path d="M250 622.667H502V732.187H250V622.667Z" fill="white"/>
</mask>
<g mask="url(#mask12_1_2538)">
<mask id="mask13_1_2538" style="mask-type:luminance" maskUnits="userSpaceOnUse" x="239" y="592" width="291" height="224">
<path d="M285.964 592.458L529.797 670.995L483.255 815.49L239.422 736.948L285.964 592.458Z" fill="white"/>
</mask>
<g mask="url(#mask13_1_2538)">
<mask id="mask14_1_2538" style="mask-type:luminance" maskUnits="userSpaceOnUse" x="251" y="623" width="251" height="180">
<path d="M394.333 627.364C425.943 637.542 443.781 665.719 445.719 693.75C451.719 693.693 457.875 694.677 464.198 696.713C492.646 705.875 508.563 736.922 499.401 765.37C490.094 794.266 460.677 808.219 433.589 799.489L293.609 754.401C257.484 742.766 245.547 719.484 253.547 694.651C261.109 671.172 285.427 657.573 308.583 663.036C324.943 633.917 358.214 615.729 394.333 627.364Z" fill="white"/>
</mask>
<g mask="url(#mask14_1_2538)">
<mask id="mask15_1_2538" style="mask-type:luminance" maskUnits="userSpaceOnUse" x="250" y="622" width="252" height="112">
<path d="M502 622.667H250V733.333H502V622.667Z" fill="white"/>
</mask>
<g mask="url(#mask15_1_2538)">
<mask id="mask16_1_2538" style="mask-type:luminance" maskUnits="userSpaceOnUse" x="250" y="622" width="252" height="111">
<path d="M250 622.667H502V732.187H250V622.667Z" fill="white"/>
</mask>
<g mask="url(#mask16_1_2538)">
<mask id="mask17_1_2538" style="mask-type:luminance" maskUnits="userSpaceOnUse" x="239" y="592" width="291" height="224">
<path d="M285.964 592.458L529.797 670.995L483.255 815.49L239.422 736.948L285.964 592.458Z" fill="white"/>
</mask>
<g mask="url(#mask17_1_2538)">
<mask id="mask18_1_2538" style="mask-type:luminance" maskUnits="userSpaceOnUse" x="251" y="623" width="251" height="180">
<path d="M394.333 627.365C425.943 637.542 443.781 665.719 445.719 693.75C451.719 693.693 457.875 694.677 464.198 696.714C492.646 705.875 508.563 736.922 499.401 765.37C490.094 794.266 460.677 808.219 433.589 799.49L293.609 754.401C257.484 742.766 245.547 719.484 253.547 694.651C261.109 671.172 285.427 657.573 308.583 663.036C324.943 633.917 358.214 615.729 394.333 627.365Z" fill="white"/>
</mask>
<g mask="url(#mask18_1_2538)">
<path d="M285.964 592.458L529.797 670.995L483.255 815.49L239.422 736.948L285.964 592.458Z" fill="#F3D6D4"/>
</g>
</g>
</g>
</g>
</g>
</g>
</g>
<mask id="mask19_1_2538" style="mask-type:luminance" maskUnits="userSpaceOnUse" x="250" y="622" width="252" height="111">
<path d="M250 622.667H502V732.187H250V622.667Z" fill="white"/>
</mask>
<g mask="url(#mask19_1_2538)">
<mask id="mask20_1_2538" style="mask-type:luminance" maskUnits="userSpaceOnUse" x="239" y="592" width="291" height="224">
<path d="M285.964 592.458L529.375 670.859L482.672 815.844L239.266 737.443L285.964 592.458Z" fill="white"/>
</mask>
<g mask="url(#mask20_1_2538)">
<mask id="mask21_1_2538" style="mask-type:luminance" maskUnits="userSpaceOnUse" x="239" y="592" width="291" height="224">
<path d="M285.964 592.458L529.787 670.995L483.25 815.479L239.427 736.943L285.964 592.458Z" fill="white"/>
</mask>
<g mask="url(#mask21_1_2538)">
<mask id="mask22_1_2538" style="mask-type:luminance" maskUnits="userSpaceOnUse" x="251" y="623" width="251" height="180">
<path d="M394.333 627.364C425.937 637.542 443.776 665.713 445.708 693.75C451.708 693.687 457.87 694.677 464.193 696.713C492.635 705.875 508.552 736.917 499.391 765.364C490.083 794.26 460.672 808.208 433.578 799.484L293.609 754.396C257.484 742.76 245.547 719.479 253.547 694.646C261.109 671.167 285.427 657.568 308.583 663.036C324.937 633.917 358.208 615.729 394.333 627.364Z" fill="white"/>
</mask>
<g mask="url(#mask22_1_2538)">
<path d="M394.333 627.364C425.937 637.542 443.776 665.713 445.708 693.75C451.708 693.687 457.87 694.677 464.193 696.713C492.635 705.875 508.552 736.917 499.391 765.365C490.083 794.26 460.672 808.208 433.578 799.484L293.609 754.396C257.484 742.76 245.547 719.479 253.547 694.646C261.109 671.167 285.427 657.568 308.583 663.036C324.937 633.917 358.208 615.729 394.333 627.364Z" stroke="#59453C" stroke-width="7.9961"/>
</g>
</g>
</g>
</g>
<mask id="mask23_1_2538" style="mask-type:luminance" maskUnits="userSpaceOnUse" x="400" y="492" width="197" height="239">
<path d="M400.667 492H596.667V730.667H400.667V492Z" fill="white"/>
</mask>
<g mask="url(#mask23_1_2538)">
<mask id="mask24_1_2538" style="mask-type:luminance" maskUnits="userSpaceOnUse" x="352" y="448" width="264" height="299">
<path d="M352.25 667.062L486.182 448.693L615.583 528.062L481.651 746.427L352.25 667.062Z" fill="white"/>
</mask>
<g mask="url(#mask24_1_2538)">
<mask id="mask25_1_2538" style="mask-type:luminance" maskUnits="userSpaceOnUse" x="401" y="492" width="196" height="238">
<path d="M411.776 570.01C429.135 541.703 460.729 531.026 488.427 535.771C489.781 529.927 492.198 524.172 495.672 518.51C511.297 493.036 545.224 484.906 570.698 500.531C596.578 516.406 603.182 548.281 588.302 572.542L511.417 697.901C491.573 730.255 466.13 736.354 443.891 722.708C422.859 709.812 415.391 682.974 426.177 661.76C401.745 638.984 391.932 602.359 411.776 570.01Z" fill="white"/>
</mask>
<g mask="url(#mask25_1_2538)">
<mask id="mask26_1_2538" style="mask-type:luminance" maskUnits="userSpaceOnUse" x="400" y="492" width="197" height="239">
<path d="M596.667 492H400.667V730.667H596.667V492Z" fill="white"/>
</mask>
<g mask="url(#mask26_1_2538)">
<mask id="mask27_1_2538" style="mask-type:luminance" maskUnits="userSpaceOnUse" x="400" y="492" width="197" height="239">
<path d="M400.667 492H596.667V730.667H400.667V492Z" fill="white"/>
</mask>
<g mask="url(#mask27_1_2538)">
<mask id="mask28_1_2538" style="mask-type:luminance" maskUnits="userSpaceOnUse" x="352" y="448" width="264" height="299">
<path d="M352.25 667.062L486.182 448.693L615.583 528.062L481.651 746.427L352.25 667.062Z" fill="white"/>
</mask>
<g mask="url(#mask28_1_2538)">
<mask id="mask29_1_2538" style="mask-type:luminance" maskUnits="userSpaceOnUse" x="401" y="492" width="196" height="238">
<path d="M411.776 570.01C429.135 541.703 460.729 531.026 488.427 535.771C489.781 529.927 492.198 524.172 495.672 518.51C511.297 493.036 545.224 484.906 570.698 500.531C596.578 516.406 603.182 548.281 588.302 572.542L511.417 697.901C491.573 730.255 466.13 736.354 443.891 722.708C422.859 709.812 415.391 682.974 426.177 661.76C401.745 638.984 391.932 602.359 411.776 570.01Z" fill="white"/>
</mask>
<g mask="url(#mask29_1_2538)">
<path d="M352.25 667.062L486.182 448.693L615.583 528.062L481.651 746.427L352.25 667.062Z" fill="#F3D6D4"/>
</g>
</g>
</g>
</g>
</g>
</g>
</g>
<mask id="mask30_1_2538" style="mask-type:luminance" maskUnits="userSpaceOnUse" x="400" y="492" width="197" height="239">
<path d="M400.667 492H596.667V730.667H400.667V492Z" fill="white"/>
</mask>
<g mask="url(#mask30_1_2538)">
<mask id="mask31_1_2538" style="mask-type:luminance" maskUnits="userSpaceOnUse" x="352" y="449" width="264" height="298">
<path d="M352.25 667.062L485.948 449.073L615.797 528.714L482.094 746.703L352.25 667.062Z" fill="white"/>
</mask>
<g mask="url(#mask31_1_2538)">
<mask id="mask32_1_2538" style="mask-type:luminance" maskUnits="userSpaceOnUse" x="352" y="448" width="264" height="299">
<path d="M352.25 667.063L486.177 448.703L615.578 528.068L481.651 746.427L352.25 667.063Z" fill="white"/>
</mask>
<g mask="url(#mask32_1_2538)">
<mask id="mask33_1_2538" style="mask-type:luminance" maskUnits="userSpaceOnUse" x="401" y="492" width="196" height="238">
<path d="M411.776 570.016C429.135 541.708 460.724 531.031 488.422 535.776C489.781 529.932 492.193 524.182 495.667 518.521C511.292 493.047 545.219 484.912 570.693 500.537C596.573 516.412 603.177 548.287 588.297 572.547L511.412 697.901C491.568 730.25 466.125 736.349 443.885 722.708C422.859 709.813 415.391 682.974 426.177 661.766C401.745 638.99 391.932 602.365 411.776 570.016Z" fill="white"/>
</mask>
<g mask="url(#mask33_1_2538)">
<path d="M411.776 570.016C429.135 541.708 460.724 531.031 488.422 535.776C489.781 529.932 492.193 524.182 495.667 518.521C511.292 493.047 545.219 484.911 570.693 500.536C596.573 516.411 603.177 548.286 588.297 572.547L511.411 697.901C491.568 730.25 466.125 736.349 443.885 722.708C422.859 709.813 415.391 682.974 426.177 661.76C401.745 638.99 391.932 602.365 411.776 570.016Z" stroke="#59453C" stroke-width="7.9961"/>
</g>
</g>
</g>
</g>
<mask id="mask34_1_2538" style="mask-type:luminance" maskUnits="userSpaceOnUse" x="407" y="550" width="257" height="183">
<path d="M407.333 550.667H663.333V732.187H407.333V550.667Z" fill="white"/>
</mask>
<g mask="url(#mask34_1_2538)">
<mask id="mask35_1_2538" style="mask-type:luminance" maskUnits="userSpaceOnUse" x="384" y="528" width="304" height="303">
<path d="M635.557 830.948L384.703 779.036L436.615 528.182L687.469 580.094L635.557 830.948Z" fill="white"/>
</mask>
<g mask="url(#mask35_1_2538)">
<mask id="mask36_1_2538" style="mask-type:luminance" maskUnits="userSpaceOnUse" x="407" y="551" width="258" height="257">
<path d="M510.13 804.99C579.401 819.328 647.177 774.792 661.516 705.521C675.849 636.25 631.312 568.474 562.042 554.141C492.771 539.802 424.995 584.338 410.661 653.609C396.323 722.88 440.859 790.656 510.13 804.99Z" fill="white"/>
</mask>
<g mask="url(#mask36_1_2538)">
<mask id="mask37_1_2538" style="mask-type:luminance" maskUnits="userSpaceOnUse" x="407" y="550" width="257" height="184">
<path d="M663.333 550.667H407.333V733.333H663.333V550.667Z" fill="white"/>
</mask>
<g mask="url(#mask37_1_2538)">
<mask id="mask38_1_2538" style="mask-type:luminance" maskUnits="userSpaceOnUse" x="407" y="550" width="257" height="183">
<path d="M407.333 550.667H663.333V732.187H407.333V550.667Z" fill="white"/>
</mask>
<g mask="url(#mask38_1_2538)">
<mask id="mask39_1_2538" style="mask-type:luminance" maskUnits="userSpaceOnUse" x="384" y="528" width="304" height="303">
<path d="M635.557 830.948L384.703 779.037L436.615 528.182L687.469 580.094L635.557 830.948Z" fill="white"/>
</mask>
<g mask="url(#mask39_1_2538)">
<mask id="mask40_1_2538" style="mask-type:luminance" maskUnits="userSpaceOnUse" x="407" y="551" width="258" height="257">
<path d="M510.13 804.99C579.401 819.328 647.177 774.792 661.516 705.521C675.849 636.25 631.313 568.474 562.042 554.141C492.771 539.802 424.995 584.339 410.661 653.609C396.323 722.88 440.859 790.656 510.13 804.99Z" fill="white"/>
</mask>
<g mask="url(#mask40_1_2538)">
<path d="M635.557 830.948L384.703 779.037L436.615 528.182L687.469 580.094L635.557 830.948Z" fill="#F3D6D4"/>
</g>
</g>
</g>
</g>
</g>
</g>
</g>
<mask id="mask41_1_2538" style="mask-type:luminance" maskUnits="userSpaceOnUse" x="543" y="336" width="121" height="239">
<path d="M543.333 336H663.333V574.667H543.333V336Z" fill="white"/>
</mask>
<g mask="url(#mask41_1_2538)">
<mask id="mask42_1_2538" style="mask-type:luminance" maskUnits="userSpaceOnUse" x="494" y="293" width="264" height="298">
<path d="M494.656 511.552L628.589 293.182L757.995 372.552L624.063 590.922L494.656 511.552Z" fill="white"/>
</mask>
<g mask="url(#mask42_1_2538)">
<mask id="mask43_1_2538" style="mask-type:luminance" maskUnits="userSpaceOnUse" x="543" y="337" width="196" height="238">
<path d="M554.182 414.5C571.547 386.193 603.135 375.516 630.833 380.26C632.193 374.417 634.609 368.662 638.078 363.005C653.708 337.526 687.63 329.396 713.109 345.021C738.99 360.896 745.594 392.771 730.714 417.037L653.823 542.396C633.984 574.745 608.536 580.844 586.297 567.203C565.271 554.302 557.802 527.464 568.583 506.25C544.156 483.479 534.344 446.849 554.182 414.5Z" fill="white"/>
</mask>
<g mask="url(#mask43_1_2538)">
<mask id="mask44_1_2538" style="mask-type:luminance" maskUnits="userSpaceOnUse" x="543" y="336" width="121" height="239">
<path d="M663.333 336H543.333V574.667H663.333V336Z" fill="white"/>
</mask>
<g mask="url(#mask44_1_2538)">
<mask id="mask45_1_2538" style="mask-type:luminance" maskUnits="userSpaceOnUse" x="543" y="336" width="121" height="239">
<path d="M543.333 336H663.333V574.667H543.333V336Z" fill="white"/>
</mask>
<g mask="url(#mask45_1_2538)">
<mask id="mask46_1_2538" style="mask-type:luminance" maskUnits="userSpaceOnUse" x="494" y="293" width="264" height="298">
<path d="M494.656 511.552L628.589 293.182L757.995 372.552L624.063 590.922L494.656 511.552Z" fill="white"/>
</mask>
<g mask="url(#mask46_1_2538)">
<mask id="mask47_1_2538" style="mask-type:luminance" maskUnits="userSpaceOnUse" x="543" y="337" width="196" height="238">
<path d="M554.182 414.5C571.547 386.193 603.135 375.516 630.833 380.26C632.193 374.417 634.609 368.662 638.078 363.005C653.708 337.526 687.63 329.396 713.109 345.021C738.99 360.896 745.594 392.771 730.714 417.037L653.823 542.396C633.984 574.745 608.536 580.844 586.297 567.203C565.271 554.302 557.802 527.464 568.583 506.25C544.156 483.479 534.344 446.849 554.182 414.5Z" fill="white"/>
</mask>
<g mask="url(#mask47_1_2538)">
<path d="M494.656 511.552L628.589 293.182L757.995 372.552L624.063 590.922L494.656 511.552Z" fill="#F3D6D4"/>
</g>
</g>
</g>
</g>
</g>
</g>
</g>
<mask id="mask48_1_2538" style="mask-type:luminance" maskUnits="userSpaceOnUse" x="543" y="336" width="121" height="239">
<path d="M543.333 336H663.333V574.667H543.333V336Z" fill="white"/>
</mask>
<g mask="url(#mask48_1_2538)">
<mask id="mask49_1_2538" style="mask-type:luminance" maskUnits="userSpaceOnUse" x="494" y="293" width="265" height="299">
<path d="M494.656 511.552L628.359 293.562L758.203 373.203L624.505 591.193L494.656 511.552Z" fill="white"/>
</mask>
<g mask="url(#mask49_1_2538)">
<mask id="mask50_1_2538" style="mask-type:luminance" maskUnits="userSpaceOnUse" x="494" y="293" width="264" height="298">
<path d="M494.661 511.552L628.589 293.193L757.984 372.557L624.057 590.917L494.661 511.552Z" fill="white"/>
</mask>
<g mask="url(#mask50_1_2538)">
<mask id="mask51_1_2538" style="mask-type:luminance" maskUnits="userSpaceOnUse" x="543" y="337" width="196" height="238">
<path d="M554.182 414.505C571.542 386.198 603.135 375.526 630.828 380.266C632.188 374.422 634.604 368.672 638.078 363.01C653.703 337.536 687.625 329.406 713.099 345.031C738.979 360.901 745.583 392.776 730.703 417.036L653.818 542.391C633.979 574.745 608.536 580.838 586.297 567.198C565.266 554.302 557.802 527.463 568.583 506.255C544.156 483.479 534.344 446.854 554.182 414.505Z" fill="white"/>
</mask>
<g mask="url(#mask51_1_2538)">
<path d="M554.182 414.505C571.542 386.198 603.135 375.526 630.828 380.266C632.188 374.422 634.604 368.672 638.078 363.01C653.703 337.536 687.625 329.406 713.099 345.031C738.979 360.901 745.583 392.776 730.703 417.037L653.818 542.391C633.979 574.745 608.537 580.839 586.297 567.198C565.266 554.302 557.802 527.464 568.583 506.255C544.156 483.479 534.344 446.854 554.182 414.505Z" stroke="#59453C" stroke-width="7.9961"/>
</g>
</g>
</g>
</g>
<mask id="mask52_1_2538" style="mask-type:luminance" maskUnits="userSpaceOnUse" x="539" y="457" width="125" height="258">
<path d="M539.333 457.333H663.333V714.667H539.333V457.333Z" fill="white"/>
</mask>
<g mask="url(#mask52_1_2538)">
<mask id="mask53_1_2538" style="mask-type:luminance" maskUnits="userSpaceOnUse" x="516" y="434" width="304" height="304">
<path d="M767.151 737.068L516.297 685.151L568.208 434.297L819.063 486.214L767.151 737.068Z" fill="white"/>
</mask>
<g mask="url(#mask53_1_2538)">
<mask id="mask54_1_2538" style="mask-type:luminance" maskUnits="userSpaceOnUse" x="539" y="457" width="257" height="257">
<path d="M641.724 711.109C710.995 725.443 778.771 680.912 793.104 611.641C807.443 542.37 762.906 474.589 693.635 460.255C624.365 445.922 556.589 490.453 542.25 559.724C527.917 629 572.453 696.776 641.724 711.109Z" fill="white"/>
</mask>
<g mask="url(#mask54_1_2538)">
<mask id="mask55_1_2538" style="mask-type:luminance" maskUnits="userSpaceOnUse" x="539" y="457" width="125" height="258">
<path d="M663.333 457.333H539.333V714.667H663.333V457.333Z" fill="white"/>
</mask>
<g mask="url(#mask55_1_2538)">
<mask id="mask56_1_2538" style="mask-type:luminance" maskUnits="userSpaceOnUse" x="539" y="457" width="125" height="258">
<path d="M539.333 457.333H663.333V714.667H539.333V457.333Z" fill="white"/>
</mask>
<g mask="url(#mask56_1_2538)">
<mask id="mask57_1_2538" style="mask-type:luminance" maskUnits="userSpaceOnUse" x="516" y="434" width="304" height="304">
<path d="M767.151 737.068L516.297 685.151L568.208 434.297L819.063 486.214L767.151 737.068Z" fill="white"/>
</mask>
<g mask="url(#mask57_1_2538)">
<mask id="mask58_1_2538" style="mask-type:luminance" maskUnits="userSpaceOnUse" x="539" y="457" width="257" height="257">
<path d="M641.724 711.109C710.995 725.443 778.771 680.912 793.104 611.641C807.443 542.37 762.906 474.589 693.635 460.255C624.365 445.922 556.589 490.453 542.25 559.724C527.917 629 572.453 696.776 641.724 711.109Z" fill="white"/>
</mask>
<g mask="url(#mask58_1_2538)">
<path d="M767.151 737.068L516.297 685.151L568.208 434.297L819.063 486.214L767.151 737.068Z" fill="#F3D6D4"/>
</g>
</g>
</g>
</g>
</g>
</g>
</g>
<path d="M336.479 169.255C339.563 150.911 357.229 138.682 357.531 138.49L355.974 136.182L354.422 133.875C353.599 134.432 334.521 147.521 331.005 168.297C329.047 179.818 332.281 191.339 340.635 202.536C366.411 237.125 332.854 267 331.406 268.25L335.047 272.448C335.438 272.115 373.984 237.974 345.094 199.214C337.688 189.292 334.797 179.219 336.479 169.255ZM394.859 169.255C397.969 150.859 415.745 138.615 415.911 138.49L412.797 133.875C411.99 134.432 392.911 147.521 389.385 168.297C387.438 179.818 390.677 191.339 399.01 202.536C424.802 237.125 391.229 267 389.802 268.25L393.443 272.448C393.828 272.115 432.365 237.974 403.474 199.214C396.083 189.292 393.193 179.219 394.859 169.255ZM453.25 169.255C456.349 150.859 474.12 138.615 474.302 138.49L471.188 133.875C470.385 134.432 451.302 147.521 447.776 168.297C445.818 179.818 449.068 191.339 457.406 202.536C483.182 237.125 449.625 267 448.177 268.25L451.818 272.448C452.224 272.115 490.755 237.974 461.865 199.214C454.474 189.292 451.568 179.219 453.25 169.255ZM541.781 495.094C584.151 433.813 579.203 351.563 578.953 347.99C578.802 312.969 499.885 285.542 399.167 285.542C303.557 285.542 227.615 310.245 220.016 342.724H194.24C176.755 342.724 160.958 352.073 151.964 367.734C142.974 383.438 142.505 402.49 150.714 418.693C165.182 447.292 194.125 480.906 250.807 486.188C252.615 489.203 254.536 492.161 256.547 495.094C205.286 508.365 172.99 528.792 172.99 552.125C172.99 593.036 272.333 625.078 399.167 625.078C525.995 625.078 625.354 593.036 625.354 552.125C625.354 528.792 593.047 508.365 541.781 495.094Z" fill="#F6EFDC"/>
<mask id="mask59_1_2538" style="mask-type:luminance" maskUnits="userSpaceOnUse" x="123" y="105" width="524" height="542">
<path d="M123.333 105.375H646.589V646.667H123.333V105.375Z" fill="white"/>
</mask>
<g mask="url(#mask59_1_2538)">
<path d="M577.307 484.266C575.109 483.458 574.047 480.932 575.047 478.812C603.01 419.448 600.234 354.875 599.797 347.208C599.438 328.547 587.5 302.661 533.609 283.943C519.443 279.021 503.375 274.974 485.964 271.88C483.229 271.396 481.818 268.349 483.193 265.937C484.464 263.713 485.688 261.338 486.823 258.828C497.901 234.344 494.969 208.75 478.568 186.75C472.76 178.943 473.542 174.26 473.802 172.729C475.094 165.088 483.297 157.693 486.156 155.635L499.917 146.302C501.75 145.057 502.229 142.557 500.99 140.724L479.068 108.286C477.823 106.448 475.328 105.963 473.49 107.203L459.547 116.604C458.068 117.594 450.479 122.911 442.932 132.005C441.219 134.073 438.005 133.927 436.505 131.703L420.662 108.271C419.422 106.432 416.922 105.948 415.083 107.193L401.141 116.604C399.672 117.594 392.083 122.922 384.542 132.01C382.828 134.073 379.615 133.932 378.109 131.708L362.286 108.286C361.042 106.448 358.547 105.963 356.703 107.203L342.776 116.604C339.984 118.479 315.37 135.792 310.453 164.807C307.547 181.917 312.203 199.271 323.917 214.99C329.964 223.104 331.031 230.495 327.38 238.958C323.948 246.948 298.76 274.531 294.432 275.521C285.911 277.474 277.813 279.672 270.224 282.109C240.396 291.677 219.323 304.635 208.057 320.161C207.286 321.224 206.073 321.88 204.76 321.88H194.24C169.198 321.88 146.63 335.151 133.885 357.37C121.396 379.172 120.729 405.615 132.109 428.115C142.99 449.604 161.37 474.391 191.807 490.531C194.594 492.01 194.615 495.99 191.875 497.557C160.266 515.609 152.146 535.974 152.146 552.125C152.146 573.036 166.016 602.458 232.12 623.786C276.396 638.057 335.719 645.922 399.167 645.922C462.63 645.922 521.953 638.057 566.214 623.786C632.318 602.458 646.198 573.036 646.198 552.125C646.198 531.844 633.396 504.901 577.307 484.266ZM447.776 168.297C451.302 147.521 470.385 134.432 471.188 133.875L474.302 138.49C474.12 138.615 456.349 150.859 453.25 169.255C451.568 179.219 454.474 189.292 461.865 199.213C490.755 237.974 452.224 272.115 451.818 272.448L448.177 268.25C449.625 267 483.182 237.125 457.406 202.536C449.068 191.338 445.818 179.818 447.776 168.297ZM389.385 168.297C392.912 147.521 411.99 134.432 412.797 133.875L415.912 138.49C415.745 138.615 397.969 150.859 394.859 169.255C393.193 179.219 396.083 189.292 403.474 199.213C432.365 237.974 393.828 272.115 393.443 272.448L389.802 268.25C391.229 267 424.802 237.125 399.01 202.536C390.677 191.338 387.438 179.818 389.385 168.297ZM331.005 168.297C334.521 147.521 353.599 134.432 354.422 133.875L355.974 136.182L357.531 138.49C357.229 138.682 339.563 150.911 336.479 169.255C334.797 179.219 337.688 189.292 345.094 199.213C373.984 237.974 335.438 272.115 335.047 272.448L331.406 268.25C332.854 267 366.411 237.125 340.635 202.536C332.281 191.338 329.047 179.818 331.005 168.297ZM399.167 625.078C272.333 625.078 172.99 593.036 172.99 552.125C172.99 528.792 205.286 508.365 256.547 495.094C254.536 492.161 252.615 489.203 250.807 486.187C194.125 480.906 165.182 447.292 150.714 418.693C142.505 402.49 142.974 383.437 151.964 367.734C160.958 352.073 176.755 342.724 194.24 342.724H220.016C227.615 310.245 303.557 285.542 399.167 285.542C499.885 285.542 578.802 312.969 578.953 347.99C579.203 351.562 584.151 433.812 541.781 495.094C593.047 508.365 625.354 528.792 625.354 552.125C625.354 593.036 525.995 625.078 399.167 625.078Z" fill="#F6EFDC"/>
</g>
<path d="M619.792 552.12C619.792 569.297 596.651 586.422 556.302 599.094C514.37 612.266 458.568 619.521 399.167 619.521C339.771 619.521 283.969 612.266 242.036 599.094C201.687 586.422 178.547 569.297 178.547 552.12C178.547 534.943 201.687 517.823 242.036 505.146C247.802 503.333 253.844 501.635 260.115 500.052C263.271 504.271 266.672 508.38 270.333 512.333C272.51 514.687 274.766 516.948 277.073 519.141C260.911 525.594 250.479 533.401 248.312 541.984C241.896 567.391 309.208 589.63 399.172 589.63C489.13 589.63 556.443 567.396 550.031 541.984C547.865 533.401 537.432 525.594 521.271 519.135C523.578 516.948 525.828 514.687 528.005 512.328C531.667 508.375 535.068 504.271 538.229 500.052C544.495 501.635 550.536 503.333 556.307 505.146C596.651 517.823 619.792 534.943 619.792 552.12ZM247.38 480.245C242.031 470.526 237.672 460.51 234.135 450.536C209.073 443.609 190.224 427.896 177.901 403.552C173.437 394.745 176.729 387.208 178.354 384.38C178.875 383.474 179.729 382.172 180.964 380.833C174.427 381.99 169.026 386.865 167.328 393.469L161.943 392.083C164.531 382.031 173.589 375.005 183.969 375.005H219.547C218.719 360.365 219.234 350.354 219.365 348.276H194.24C178.771 348.276 164.776 356.583 156.797 370.505C148.729 384.573 148.312 401.651 155.672 416.182C169.151 442.807 195.776 474.01 247.38 480.245ZM274.432 508.578C218.047 447.724 224.854 349.286 224.932 348.302C224.937 348.229 224.943 348.156 224.943 348.089C224.943 317.198 304.729 291.099 399.172 291.099C493.609 291.099 573.401 317.198 573.401 348.089C573.401 348.156 573.401 348.229 573.406 348.302C573.484 349.286 580.292 447.724 523.906 508.578C494.234 540.604 452.266 556.844 399.172 556.844C346.073 556.844 304.104 540.604 274.432 508.578ZM256.776 362.99C276.839 381.609 334.062 394.115 399.172 394.115C464.276 394.115 521.5 381.609 541.557 362.995C546.781 358.182 549.427 353.021 549.427 347.651C549.427 334.646 533.38 322.729 504.24 314.099C476.135 305.771 438.818 301.187 399.172 301.187C359.521 301.187 322.203 305.771 294.099 314.099C264.958 322.729 248.911 334.646 248.911 347.651C248.911 353.021 251.557 358.182 256.776 362.99ZM255.953 398.401C265.37 440.839 292.964 514.562 371.88 531.516L373.047 526.083C297.161 509.781 270.51 438.333 261.38 397.193L255.953 398.401ZM399.167 327.792C462.193 327.792 517.833 339.516 539.526 357.151C542.396 354 543.87 350.812 543.87 347.651C543.87 327.896 485.724 306.745 399.167 306.745C312.615 306.745 254.469 327.896 254.469 347.651C254.469 350.818 255.943 354 258.812 357.151C280.505 339.516 336.146 327.792 399.167 327.792Z" fill="#EFE9CE"/>
<path d="M535.359 360.953C514.448 377.307 459.495 388.557 399.167 388.557C393.281 388.557 387.443 388.448 381.682 388.24C379.661 388.167 377.646 388.083 375.646 387.984C324.943 385.5 281.141 375.151 262.979 360.953C283.896 344.599 338.844 333.349 399.167 333.349C459.495 333.349 514.443 344.599 535.359 360.953Z" fill="#A6744C"/>
<path d="M541.781 495.094C584.151 433.813 579.203 351.563 578.953 347.99C578.802 312.969 499.885 285.542 399.167 285.542C303.557 285.542 227.615 310.245 220.016 342.724H194.24C176.76 342.724 160.958 352.073 151.969 367.734C142.979 383.438 142.505 402.49 150.719 418.693C165.182 447.292 194.13 480.906 250.813 486.188C252.62 489.203 254.536 492.161 256.552 495.094C205.286 508.365 172.995 528.792 172.995 552.125C172.995 593.036 272.339 625.078 399.167 625.078C526 625.078 625.354 593.036 625.354 552.125C625.354 528.792 593.047 508.365 541.781 495.094ZM231.938 444.042C210.234 437.01 193.792 422.641 182.859 401.047C179.62 394.651 181.995 389.193 183.177 387.146C184.318 385.161 187.667 380.563 194.24 380.563H219.906C221.214 398.031 224.432 420.693 231.938 444.042ZM155.661 416.193C148.313 401.656 148.729 384.578 156.792 370.5C164.781 356.589 178.771 348.281 194.24 348.281H219.365C219.24 350.349 218.724 360.37 219.547 375.005H183.969C173.589 375.005 164.531 382.036 161.943 392.083L167.339 393.469C169.031 386.854 174.422 381.995 180.969 380.823C179.734 382.172 178.87 383.464 178.354 384.385C176.729 387.203 173.438 394.75 177.896 403.547C190.224 427.891 209.083 443.609 234.135 450.542C237.677 460.505 242.031 470.526 247.38 480.24C195.781 474.016 169.141 442.818 155.661 416.193ZM224.938 348.297V348.089C224.938 317.193 304.729 291.099 399.167 291.099C493.604 291.099 573.396 317.193 573.396 348.089C573.396 348.156 573.396 348.224 573.411 348.297C573.479 349.281 580.292 447.724 523.911 508.573C494.229 540.604 452.266 556.849 399.167 556.849C346.068 556.849 304.104 540.604 274.432 508.573C218.042 447.724 224.854 349.281 224.938 348.297ZM556.302 599.094C514.365 612.266 458.573 619.521 399.167 619.521C339.771 619.521 283.969 612.266 242.026 599.094C201.688 586.422 178.552 569.302 178.552 552.125C178.552 534.948 201.688 517.828 242.026 505.141C247.807 503.333 253.839 501.641 260.104 500.057C263.276 504.281 266.667 508.38 270.333 512.323C272.516 514.688 274.766 516.953 277.073 519.135C260.911 525.594 250.474 533.406 248.307 541.995C241.891 567.396 309.203 589.63 399.167 589.63C489.13 589.63 556.443 567.396 550.021 541.995C547.854 533.406 537.432 525.594 521.271 519.135C523.578 516.953 525.828 514.688 528.01 512.323C531.667 508.38 535.057 504.281 538.224 500.057C544.495 501.641 550.536 503.333 556.302 505.141C596.646 517.828 619.797 534.948 619.797 552.125C619.797 569.302 596.646 586.422 556.302 599.094ZM255.953 398.401L261.375 397.198C270.51 438.333 297.161 509.781 373.047 526.083L371.88 531.516C292.964 514.563 265.37 440.839 255.953 398.401ZM399.167 394.115C464.276 394.115 521.5 381.609 541.557 362.995C546.781 358.182 549.427 353.021 549.427 347.651C549.427 334.646 533.38 322.729 504.24 314.099C476.13 305.771 438.818 301.188 399.167 301.188C359.521 301.188 322.203 305.771 294.099 314.099C264.958 322.729 248.911 334.646 248.911 347.651C248.911 353.021 251.557 358.182 256.771 362.99C276.839 381.609 334.063 394.115 399.167 394.115ZM399.167 388.557C393.281 388.557 387.443 388.448 381.682 388.24C379.661 388.167 377.646 388.083 375.646 387.984C324.943 385.5 281.141 375.151 262.979 360.953C283.896 344.599 338.844 333.349 399.167 333.349C459.495 333.349 514.443 344.599 535.359 360.953C514.448 377.307 459.495 388.557 399.167 388.557ZM254.469 347.651C254.469 327.896 312.615 306.745 399.172 306.745C485.724 306.745 543.87 327.896 543.87 347.651C543.87 350.813 542.401 354 539.526 357.151C517.833 339.516 462.193 327.792 399.172 327.792C336.146 327.792 280.505 339.516 258.813 357.151C255.943 354 254.469 350.813 254.469 347.651ZM340.635 202.536C332.281 191.339 329.047 179.818 331.005 168.297C334.521 147.521 353.599 134.432 354.422 133.875L355.974 136.182L357.531 138.49C357.229 138.682 339.563 150.911 336.479 169.255C334.797 179.219 337.688 189.292 345.094 199.214C373.984 237.974 335.438 272.115 335.047 272.448L331.406 268.25C332.854 267 366.411 237.125 340.635 202.536ZM399.01 202.536C390.677 191.339 387.438 179.818 389.385 168.297C392.911 147.521 411.99 134.432 412.797 133.875L415.911 138.49C415.745 138.615 397.969 150.859 394.859 169.255C393.193 179.219 396.083 189.292 403.474 199.214C432.365 237.974 393.828 272.115 393.443 272.448L389.802 268.25C391.234 267 424.802 237.125 399.01 202.536ZM457.406 202.536C449.068 191.339 445.818 179.818 447.776 168.297C451.302 147.521 470.385 134.432 471.188 133.875L474.302 138.49C474.12 138.615 456.349 150.859 453.25 169.255C451.568 179.219 454.474 189.292 461.865 199.214C490.755 237.974 452.224 272.115 451.818 272.448L448.177 268.25C449.625 267 483.182 237.125 457.406 202.536Z" fill="black"/>
</g>
</svg>
