<svg width="13" height="14" viewBox="0 0 13 14" fill="none" xmlns="http://www.w3.org/2000/svg">
<mask id="mask0_4_14" style="mask-type:luminance" maskUnits="userSpaceOnUse" x="0" y="11" width="11" height="3">
<path d="M0.59375 11.6667H10.6667V13.9428H0.59375V11.6667Z" fill="white"/>
</mask>
<g mask="url(#mask0_4_14)">
<path d="M10.6354 12.6719C10.6354 13.375 8.39062 13.9375 5.61458 13.9375C2.84375 13.9375 0.59375 13.3698 0.59375 12.6719" fill="black"/>
</g>
<mask id="mask1_4_14" style="mask-type:luminance" maskUnits="userSpaceOnUse" x="0" y="6" width="13" height="8">
<path d="M0.59375 6.33325H12.5885V13.9426H0.59375V6.33325Z" fill="white"/>
</mask>
<g mask="url(#mask1_4_14)">
<path d="M11.9635 8.427C11.6094 8.08325 11.0885 7.96346 10.5625 8.06242C10.6094 7.71346 10.6354 7.35408 10.6354 6.9895H0.59375C0.59375 10.4791 2.84375 13.3072 5.61458 13.3072C7.08333 13.3072 8.40625 12.5103 9.32292 11.2447C9.96875 11.6614 10.9635 11.5103 11.6719 10.8541C12.4583 10.1197 12.5885 9.03117 11.9635 8.427ZM11.8542 9.71867C11.8073 10.1041 11.599 10.4895 11.2708 10.7916C10.9479 11.0989 10.5417 11.2864 10.1302 11.3228C9.84375 11.3489 9.58333 11.2968 9.375 11.177C9.90104 10.4322 10.2865 9.52075 10.4844 8.52075C10.5208 8.51554 10.5625 8.51033 10.6042 8.50513C10.9844 8.47388 11.3229 8.57804 11.5573 8.802C11.7917 9.02596 11.8958 9.35409 11.8542 9.71867Z" fill="black"/>
</g>
<mask id="mask2_4_14" style="mask-type:luminance" maskUnits="userSpaceOnUse" x="4" y="0" width="3" height="8">
<path d="M4 0.953125H6.66667V7.66667H4V0.953125Z" fill="white"/>
</mask>
<g mask="url(#mask2_4_14)">
<path d="M5.64062 0.994792C5.63021 0.979166 5.61458 0.973959 5.60417 0.979167C5.58854 0.979167 5.57292 0.989584 5.5625 1C5.55208 1.01042 5.54167 1.02083 5.53646 1.03125C5.53646 1.03646 5.53125 1.04688 5.53125 1.05208L5.52083 1.07292C5.49479 1.13021 5.47396 1.19271 5.45312 1.25C5.41667 1.36979 5.39063 1.48958 5.375 1.60938C5.36458 1.72396 5.36979 1.84375 5.39062 1.94792C5.39583 1.97396 5.40104 2 5.41146 2.02604L5.42708 2.06771L5.44271 2.10417C5.45833 2.15104 5.48958 2.19792 5.51562 2.24479C5.54687 2.29167 5.58333 2.33854 5.61979 2.38542L5.73958 2.53646C5.78125 2.58854 5.82812 2.64062 5.86458 2.69792C5.90625 2.76042 5.94792 2.81771 5.97917 2.88021C6.05208 3.00521 6.10937 3.14062 6.14583 3.28646C6.18229 3.43229 6.19271 3.58854 6.17708 3.74479C6.16667 3.82292 6.14583 3.89583 6.13021 3.96875C6.10938 4.04167 6.07813 4.10938 6.05208 4.17188C5.99479 4.30729 5.92187 4.42708 5.84896 4.54167C5.77604 4.65625 5.70313 4.76042 5.63021 4.85938C5.59375 4.91146 5.5625 4.96354 5.53125 5.01562C5.49479 5.06771 5.46875 5.11979 5.44271 5.17188C5.41667 5.22396 5.39062 5.27604 5.36979 5.32812C5.35417 5.38021 5.33333 5.43229 5.32292 5.48438C5.30208 5.58854 5.29688 5.70313 5.31771 5.8125C5.32813 5.86979 5.34375 5.92187 5.36979 5.97396C5.39583 6.02604 5.42708 6.07292 5.46354 6.11979C5.47396 6.13021 5.48437 6.14063 5.49479 6.15104C5.5 6.15625 5.50521 6.16146 5.51042 6.16667L5.52604 6.17708C5.54688 6.19792 5.57813 6.21875 5.60938 6.24479C5.63542 6.27083 5.65625 6.29687 5.67188 6.32812C5.68229 6.34375 5.6875 6.36458 5.68229 6.38542C5.68229 6.40104 5.66667 6.41667 5.65625 6.42708C5.66667 6.41146 5.66667 6.39583 5.66667 6.38542C5.66146 6.36979 5.65625 6.35937 5.64583 6.34896C5.61979 6.32812 5.59375 6.3125 5.56771 6.30208C5.53646 6.28646 5.51042 6.28125 5.47396 6.26562L5.44792 6.25521C5.44271 6.25521 5.43229 6.25 5.42708 6.24479C5.41146 6.23437 5.39063 6.22917 5.375 6.21875C5.25 6.14063 5.15104 6.02083 5.08854 5.88542C5.0625 5.81771 5.03646 5.75 5.02083 5.67708C5.01042 5.60417 5 5.53125 5 5.45833C5 5.38542 5.01042 5.3125 5.02604 5.23958C5.03646 5.17187 5.05729 5.09896 5.08333 5.03125C5.13021 4.89583 5.1875 4.77604 5.25521 4.65625C5.31771 4.53646 5.38542 4.42708 5.44271 4.31771C5.5625 4.10417 5.66667 3.89583 5.6875 3.69271C5.71354 3.49479 5.66146 3.28125 5.56771 3.07292C5.54167 3.02083 5.51563 2.96875 5.48438 2.92188C5.45313 2.86979 5.42188 2.82292 5.38542 2.76562C5.31771 2.66146 5.23958 2.54167 5.17708 2.41146C5.14583 2.34375 5.11979 2.27083 5.09896 2.19792C5.08333 2.125 5.07292 2.05208 5.07292 1.97396C5.06771 1.82812 5.09375 1.68229 5.14583 1.55729C5.19271 1.42708 5.25521 1.30208 5.33333 1.19271C5.375 1.13542 5.41667 1.08333 5.45833 1.03125L5.47917 1.01562C5.48437 1.00521 5.48958 1 5.5 0.994792C5.51563 0.979166 5.53125 0.973959 5.54688 0.963542C5.5625 0.958334 5.58854 0.953125 5.60417 0.953125C5.61458 0.953125 5.625 0.958334 5.63021 0.963542C5.63542 0.979167 5.63542 0.984374 5.64062 0.994792Z" fill="black"/>
</g>
<path d="M7.13021 2.59383C7.125 2.58342 7.11458 2.58342 7.10938 2.58862C7.09896 2.58862 7.08854 2.59904 7.08333 2.60425C7.07813 2.60946 7.07292 2.61987 7.07292 2.62508C7.06771 2.63029 7.06771 2.6355 7.06771 2.6355L7.0625 2.65112C7.05208 2.69279 7.04167 2.73446 7.03125 2.77612C7.01042 2.85425 7 2.93237 7 3.0105C6.99479 3.08342 7.00521 3.15633 7.02083 3.22404C7.03125 3.25529 7.04687 3.28654 7.05729 3.31258C7.07292 3.34383 7.08854 3.36987 7.10938 3.39591C7.13021 3.42716 7.15104 3.45321 7.17708 3.48446L7.26042 3.57821C7.28646 3.60946 7.31771 3.64591 7.34896 3.68758C7.375 3.72925 7.40104 3.77091 7.42708 3.81258C7.47917 3.90112 7.52083 3.99487 7.54688 4.09904C7.57292 4.20321 7.58333 4.31258 7.56771 4.42716C7.55729 4.48446 7.54687 4.53654 7.53646 4.58862C7.52083 4.64071 7.5 4.68758 7.47917 4.73446C7.4375 4.823 7.39063 4.90633 7.33854 4.98446C7.28646 5.05737 7.23958 5.13029 7.1875 5.19279C7.16667 5.22925 7.14062 5.2605 7.11979 5.29175C7.09896 5.323 7.07813 5.35425 7.0625 5.39071C7.04687 5.41675 7.02604 5.448 7.01042 5.48446C7 5.51571 6.98437 5.54696 6.97396 5.57821C6.95833 5.64071 6.95313 5.71362 6.95833 5.78133C6.96354 5.81258 6.96875 5.84904 6.98438 5.88029C6.99479 5.91675 7.01042 5.948 7.03125 5.97925C7.03646 5.98446 7.04167 5.98967 7.04688 6.00008C7.05208 6.00529 7.0625 6.0105 7.06771 6.02091C7.07813 6.03133 7.10417 6.04696 7.11979 6.06258C7.13542 6.08341 7.15104 6.10425 7.16146 6.12508C7.16667 6.14071 7.16667 6.15112 7.16667 6.16675C7.16146 6.17716 7.15104 6.18758 7.14062 6.19279C7.14583 6.18237 7.14583 6.17196 7.14062 6.16675C7.14062 6.15633 7.13542 6.15112 7.125 6.14591C7.10937 6.1355 7.09375 6.12508 7.07292 6.11987C7.05729 6.10946 7.04167 6.10946 7.01042 6.09904C7 6.09904 6.98958 6.09383 6.97396 6.08862C6.96354 6.08342 6.95313 6.07821 6.94271 6.06779C6.84896 6.02092 6.77604 5.93758 6.72917 5.84904C6.70313 5.80216 6.6875 5.75008 6.67188 5.70321C6.66146 5.65112 6.65625 5.59904 6.65625 5.54696C6.65625 5.48967 6.66146 5.44279 6.66667 5.39591C6.67708 5.34383 6.6875 5.29696 6.70312 5.25008C6.71875 5.20321 6.73438 5.15633 6.75521 5.11466C6.77604 5.06779 6.79167 5.02612 6.81771 4.98966C6.85417 4.90633 6.90104 4.83341 6.9375 4.76571C7.01563 4.61987 7.07292 4.48967 7.08333 4.37508C7.09896 4.26571 7.07292 4.14071 7.01562 4.0105C6.98437 3.948 6.95312 3.8855 6.90625 3.81258C6.86458 3.73967 6.8125 3.66154 6.77083 3.56779C6.75 3.52092 6.73437 3.46883 6.72396 3.41675C6.70833 3.36467 6.70833 3.30737 6.70833 3.25529C6.70833 3.15112 6.72917 3.05216 6.77083 2.96362C6.80729 2.87508 6.85417 2.79696 6.91146 2.72404C6.94271 2.68758 6.97396 2.65112 7.00521 2.61987L7.02083 2.60946C7.02604 2.60425 7.03125 2.59904 7.03646 2.59383C7.04687 2.58862 7.0625 2.58341 7.07292 2.57821C7.08333 2.573 7.09896 2.573 7.11458 2.573C7.11979 2.573 7.125 2.57821 7.13021 2.58341C7.13021 2.58341 7.13021 2.58862 7.13021 2.59383Z" fill="black"/>
<path d="M4.08852 4.08846C4.08331 4.08325 4.0781 4.08325 4.0781 4.08846C4.07289 4.08846 4.07289 4.09367 4.06768 4.09888C4.06248 4.10408 4.06248 4.10929 4.06248 4.1145V4.11971C4.06248 4.11971 4.06248 4.12492 4.06248 4.13013C4.05727 4.15096 4.05727 4.177 4.05206 4.20304C4.05206 4.24992 4.05206 4.29679 4.05727 4.33846C4.06248 4.38013 4.07289 4.41658 4.08852 4.44784C4.09893 4.45825 4.10414 4.47388 4.11456 4.48429C4.11977 4.49471 4.13539 4.50513 4.14581 4.52075C4.16664 4.54159 4.19789 4.57284 4.23435 4.6145C4.27081 4.65096 4.31248 4.70304 4.34373 4.76034C4.38018 4.81242 4.40623 4.87492 4.42706 4.94263C4.44789 5.01554 4.4531 5.09367 4.44268 5.16659C4.43748 5.20825 4.43227 5.24471 4.42185 5.27596C4.41143 5.31242 4.39581 5.34367 4.38539 5.37492C4.35935 5.43221 4.32289 5.48429 4.29164 5.52596C4.22393 5.61971 4.16664 5.68221 4.11977 5.74471C4.07289 5.80721 4.04164 5.85929 4.03123 5.93221C4.03123 5.95304 4.03123 5.96867 4.03123 5.9895C4.03643 6.00513 4.03643 6.02596 4.04685 6.04158C4.04685 6.052 4.05206 6.05721 4.05727 6.06763C4.06248 6.07804 4.0781 6.08846 4.08852 6.10408C4.09373 6.1145 4.10414 6.13013 4.10935 6.14575C4.10935 6.15617 4.10935 6.16659 4.10935 6.177C4.10414 6.18742 4.09893 6.19263 4.08852 6.19263C4.09373 6.18221 4.09373 6.177 4.08852 6.177C4.08331 6.17179 4.0781 6.17179 4.07289 6.16658C4.06247 6.16658 4.05206 6.16138 4.04164 6.16138C4.03123 6.15617 4.02081 6.16138 3.99998 6.15617C3.98435 6.15096 3.96872 6.14575 3.9531 6.14054C3.88539 6.1145 3.83852 6.06242 3.80206 6.00513C3.7656 5.94263 3.74477 5.88013 3.73956 5.80721C3.73435 5.77075 3.73956 5.73429 3.73956 5.70304C3.74477 5.67179 3.74998 5.64054 3.76039 5.60929C3.79164 5.48429 3.84893 5.38533 3.88539 5.30721C3.92706 5.22388 3.9531 5.15617 3.9531 5.1145C3.95831 5.09367 3.95831 5.06763 3.9531 5.04159C3.94789 5.01554 3.93748 4.98429 3.92706 4.95304C3.92185 4.93742 3.91143 4.91659 3.90623 4.90096C3.89581 4.88533 3.88539 4.8645 3.87498 4.84367C3.85414 4.79679 3.82289 4.74992 3.79685 4.68742C3.78643 4.65617 3.77602 4.61971 3.7656 4.58325C3.76039 4.54679 3.76039 4.51033 3.76039 4.47388C3.7656 4.40617 3.79164 4.34367 3.81768 4.28638C3.84893 4.23429 3.88018 4.18742 3.92706 4.14575C3.94789 4.12492 3.96872 4.10929 3.98956 4.09367C3.99477 4.08846 3.99477 4.08846 3.99998 4.08325C4.00518 4.08325 4.01039 4.07804 4.0156 4.07804C4.02081 4.07284 4.03123 4.06763 4.03643 4.06763C4.04685 4.06242 4.05727 4.06242 4.06248 4.06763C4.08852 4.06763 4.09373 4.07804 4.08852 4.08846Z" fill="black"/>
</svg>
