<svg width="42" height="42" viewBox="0 0 42 42" fill="none" xmlns="http://www.w3.org/2000/svg">
<path d="M40.6042 21.1981C40.6042 31.8595 31.9635 40.5002 21.3021 40.5002C10.6406 40.5002 2 31.8595 2 21.1981C2 10.5366 10.6406 1.896 21.3021 1.896C31.9635 1.896 40.6042 10.5366 40.6042 21.1981Z" fill="#F3D6D4"/>
<mask id="mask0_4_12" style="mask-type:luminance" maskUnits="userSpaceOnUse" x="0" y="0" width="42" height="42">
<path d="M0.833313 0.729004H41.8125V41.7082H0.833313V0.729004Z" fill="white"/>
</mask>
<g mask="url(#mask0_4_12)">
<path d="M21.3021 3.06266C11.3021 3.06266 3.16667 11.1981 3.16667 21.1981C3.16667 31.1929 11.3021 39.3283 21.3021 39.3283C31.2969 39.3283 39.4323 31.1929 39.4323 21.1981C39.4323 11.1981 31.2969 3.06266 21.3021 3.06266ZM21.3021 41.6668C10.0104 41.6668 0.828125 32.4845 0.828125 21.1981C0.828125 9.90641 10.0104 0.724121 21.3021 0.724121C32.5885 0.724121 41.7708 9.90641 41.7708 21.1981C41.7708 32.4845 32.5885 41.6668 21.3021 41.6668Z" fill="#59453C"/>
</g>
<path d="M21.3021 22.703L33.8073 12.2863C33.7396 12.2759 33.6771 12.2446 33.6094 12.2446H8.99479C8.92708 12.2446 8.86458 12.2759 8.79688 12.2863L21.3021 22.703Z" fill="#59453C"/>
<path d="M34.724 13.3646C34.724 13.25 34.6927 13.1406 34.6615 13.0312L25.7917 20.4219L34.6719 29.3021C34.6927 29.2083 34.724 29.125 34.724 29.026V13.3646Z" fill="#59453C"/>
<path d="M7.94271 13.0312C7.91146 13.1406 7.875 13.2448 7.875 13.3646V29.026C7.875 29.125 7.90625 29.2135 7.93229 29.3021L16.8125 20.4219L7.94271 13.0312Z" fill="#59453C"/>
<path d="M24.9271 21.1406L21.6614 23.8646C21.5573 23.9531 21.4323 23.9948 21.3021 23.9948C21.1719 23.9948 21.0469 23.9531 20.9427 23.8646L17.6719 21.1406L8.72394 30.0938C8.81248 30.1146 8.90102 30.1458 8.99477 30.1458H33.6094C33.7031 30.1458 33.7916 30.1146 33.8802 30.0938L24.9271 21.1406Z" fill="#59453C"/>
</svg>
