<svg width="144" height="82" viewBox="0 0 144 82" fill="none" xmlns="http://www.w3.org/2000/svg">
<mask id="mask0_4_4" style="mask-type:luminance" maskUnits="userSpaceOnUse" x="0" y="13" width="144" height="69">
<path d="M0 13.5833H143.932V81.9635H0V13.5833Z" fill="white"/>
</mask>
<g mask="url(#mask0_4_4)">
<path d="M143.703 72.3386C143.76 71.9948 143.615 71.6198 143.646 71.2136C143.646 70.6354 143.474 70.0573 143.474 69.4479C143.417 68.1771 142.609 67.0209 142.755 65.7188C142.724 64.2709 142.297 62.8542 142.068 61.4375C141.922 60.6302 141.635 59.9063 141.031 59.3281C140.484 58.8073 140.312 58.1719 140.63 57.4479C140.802 57.0156 140.891 56.6094 140.745 56.1198C140 53.6042 139.453 51.0573 138.766 48.5417C138.104 46.5208 137.844 44.349 136.927 42.4427C136.266 41.1406 136.469 39.7813 136.125 38.4219C135.031 35.099 134.542 31.6302 133.625 28.2448C133.193 26.5417 132.792 24.8073 132.333 23.099C132.161 22.375 131.786 21.7083 131.5 21.0469C131.411 20.8438 131.271 20.6719 131.354 20.4375C131.443 20.1771 131.443 19.9479 131.354 19.6875C131.214 19.1354 131.042 18.5573 130.87 18.0104C130.667 17.4011 130.609 16.7656 130.292 16.2188C130.062 15.8438 129.75 15.5208 129.49 15.1771C129.146 14.7448 128.688 14.4844 128.141 14.4844C125.01 14.4844 121.88 14.4531 118.75 14.3958C117.979 14.3958 117.203 14.1927 116.396 14.224C115.88 14.224 115.365 14.25 114.875 14.2813C105.573 14.3646 96.3021 14.4844 86.9948 14.5677C70.9479 14.7448 54.8958 14.9427 38.8489 15.1458C33.7396 15.2344 28.5989 15.1771 23.4896 15.0886C22.5677 15.0313 21.651 15.0052 20.7292 14.974C19.9583 14.9427 19.2083 14.8854 18.4323 15.0052C17.8021 15.1198 17.1406 15.1198 16.4844 15.2031C16.2812 15.2031 16.0521 15.2031 15.8489 15.349C15.25 15.724 14.6719 16.1302 14.1302 16.5938C14.0156 16.7083 13.8385 16.7656 13.7812 16.9375C13.7239 17.2292 13.5521 17.4896 13.4948 17.75C13.3802 18.474 13.0364 19.1354 12.9531 19.8594C12.8958 20.1771 12.8385 20.4948 12.6927 20.7552C12.6042 20.9323 12.5208 21.1302 12.6042 21.3073C12.7812 21.6511 12.6614 22.0573 12.6614 22.4323C12.6042 23.3281 12.4323 24.1667 11.9739 24.9792C11.4271 25.9011 11.0833 26.9167 10.9427 27.9583C10.6562 29.0573 10.3385 30.125 10.0521 31.2552C9.93749 31.8021 9.79165 32.349 9.79165 32.9011C9.90624 33.6511 9.76561 34.375 9.5052 35.0417C9.24478 35.7656 8.76041 36.4011 8.70311 37.2083C8.67186 37.7604 8.4427 38.2813 8.35936 38.7969C8.27082 39.2604 8.30207 39.7552 8.0104 40.1302C7.7552 40.474 7.69791 40.8802 7.64061 41.2865C7.43749 42.5313 7.18228 43.7708 6.92186 44.9896C6.46353 47.1823 5.85936 49.3542 5.22915 51.4948C4.33853 55.4271 4.10936 59.5625 2.58853 63.3177C2.23957 64.1563 2.15624 65.0521 1.98436 65.9219C1.95311 66.1511 1.95311 66.3854 1.7552 66.5261C1.66665 66.5886 1.72395 66.6719 1.7552 66.7604C1.83853 66.9896 1.81249 67.2813 1.66665 67.4531C1.43749 67.7136 1.43749 67.974 1.3802 68.2656C1.26561 68.7813 1.17707 69.2761 1.09374 69.7969C1.03645 70.0261 1.06249 70.2865 0.833321 70.4584C0.833321 70.4584 0.77603 70.5469 0.807279 70.5781C1.0052 70.8646 0.807279 71.1563 0.776029 71.4427C0.776029 71.7604 0.776031 72.1094 0.546863 72.3698C0.114572 73.0052 0.374988 73.8125 0.520821 74.4792C0.718738 75.5209 0.890612 76.5886 1.09374 77.6302C1.20832 78.1823 1.20832 78.7865 1.52603 79.2813C1.72395 79.6563 1.92707 80.0625 2.12499 80.4375C2.18228 80.5209 2.23957 80.6094 2.35415 80.6667C3.27603 80.9844 4.1927 81.3334 5.17186 81.4792C6.71874 81.6771 8.27082 81.7396 9.8229 81.7396C25.6406 81.7656 41.4635 81.7396 57.2812 81.7396C82.8906 81.7969 108.5 81.7396 134.141 81.8229C134.141 81.8229 134.141 81.8542 134.141 81.8802C135.693 81.8542 137.24 81.7969 138.792 81.7969C139.828 81.7969 140.859 81.6771 141.839 81.3594C142.125 81.2761 142.297 81.1615 142.354 80.8698C142.609 80.2031 143.042 79.5677 143.156 78.875C143.359 77.7188 143.615 76.5313 143.672 75.349C143.672 74.8281 143.818 74.3073 143.672 73.7865C143.672 73.7552 143.672 73.6979 143.672 73.6719C143.932 73.1771 143.729 72.6563 143.786 72.1667L143.703 72.3386Z" fill="#9F6D49"/>
</g>
<path d="M16.4844 22.8699C17.1979 22.8699 17.8906 22.8074 18.6094 22.7501C19.3229 22.7241 20.0729 22.6928 20.7917 22.6355C21.8802 22.5782 22.9687 22.547 24.0625 22.5209C25.6719 22.5209 27.276 22.5209 28.8854 22.6095C29.8021 22.6668 30.724 22.6668 31.6406 22.7241C32.0729 22.7501 32.474 22.7241 32.875 22.7814C33.6823 22.8699 34.4844 22.7814 35.2865 22.8699C35.8906 22.9272 36.4948 22.8699 37.099 22.8386C38.1615 22.8386 39.224 22.8074 40.2865 22.7241C41.349 22.6355 42.4062 22.6095 43.4687 22.547C43.9583 22.5209 44.4167 22.4636 44.9062 22.4324C45.7656 22.3751 46.599 22.2918 47.4635 22.2293C47.9792 22.172 48.526 22.1459 49.0677 22.1147C49.7865 22.0574 50.4792 21.9689 51.1927 21.9116C51.6562 21.8855 52.1146 21.8282 52.5729 21.797C53.2604 21.7397 53.9792 21.6512 54.6667 21.5939C55.099 21.5678 55.5 21.5105 55.9323 21.4793C56.5052 21.422 57.0781 21.3334 57.6823 21.2761C58.2292 21.2189 58.776 21.1616 59.3177 21.1043C60.0677 21.0157 60.8438 20.9011 61.5885 20.7866C62.3073 20.698 63.026 20.6147 63.7135 20.4949C64.5156 20.3803 65.349 20.2345 66.151 20.1199C66.9583 20.0053 67.7917 19.9168 68.5938 19.7761C69.4531 19.6303 70.3177 19.5157 71.1771 19.3959C71.8646 19.3126 72.5573 19.2241 73.2448 19.1668C74.3073 19.0522 75.3385 18.9376 76.401 18.9064C77.8958 18.9064 79.3906 18.8491 80.9115 18.9376C81.8021 18.9949 82.7188 18.9376 83.6094 18.9949C84.526 19.0209 85.474 18.9949 86.3958 19.0522C87.9427 19.1095 89.4948 19.1095 91.0469 19.1668C91.7917 19.1668 92.5365 19.2241 93.2865 19.2553C93.6302 19.2553 94.0052 19.2553 94.349 19.3126C95.2656 19.3699 96.1562 19.4532 97.0729 19.5157C97.5052 19.5418 97.9375 19.573 98.3646 19.6303C99.1406 19.7136 99.9167 19.8022 100.693 19.8907C101.323 19.948 101.958 19.9741 102.589 20.0626C103.505 20.1772 104.427 20.2345 105.344 20.323C106.177 20.4116 107.01 20.4376 107.844 20.4949C108.964 20.5522 110.083 20.5834 111.203 20.6147C112.552 20.6147 113.927 20.6147 115.276 20.6407C116.484 20.6407 117.688 20.6407 118.896 20.7553C119.271 20.7866 119.641 20.8126 120.016 20.8699C120.677 20.9584 121.307 21.047 121.969 21.073C122.656 21.1303 123.318 20.9584 123.979 20.9011C124.38 20.8699 124.812 20.8126 125.214 20.8126C125.354 20.8126 125.469 20.8126 125.557 20.672C125.01 20.5834 124.438 20.4949 123.891 20.3803C123.318 20.2657 122.745 20.0626 122.141 20.0053C121.568 19.9168 121.021 19.9168 120.448 19.8334C119.469 19.7136 118.495 19.6564 117.516 19.6303C116.224 19.6303 114.964 19.7136 113.672 19.7136C112.177 19.7136 110.714 19.7761 109.219 19.7449C107.557 19.6876 105.859 19.6876 104.198 19.573C103.365 19.5157 102.557 19.4532 101.724 19.3959C100.839 19.3386 99.974 19.2553 99.0833 19.1668C98.1927 19.0782 97.3073 19.0209 96.4167 18.9376C95.526 18.8751 94.6042 18.8178 93.7135 18.7605C92.7396 18.7345 91.7344 18.6772 90.7604 18.6459C89.1198 18.5886 87.4583 18.5886 85.8177 18.5314C84.7292 18.5001 83.6406 18.5314 82.5469 18.4741C81.4844 18.4168 80.4531 18.3855 79.3906 18.3595C77.5781 18.3282 75.8021 18.297 73.9896 18.4168C73.7031 18.4168 73.3906 18.4168 73.099 18.4741C72.3542 18.5314 71.6094 18.6147 70.8594 18.6772C70.401 18.7032 69.974 18.7345 69.5104 18.7918C68.9115 18.8491 68.276 18.9376 67.6771 18.9949C67.0729 19.0522 66.4688 19.0782 65.8646 19.1668C65.2031 19.2553 64.5156 19.3126 63.8542 19.3699C63.4271 19.3959 62.9635 19.4532 62.5365 19.4845C61.7865 19.5418 61.0729 19.6303 60.3229 19.6876C59.7812 19.7449 59.2031 19.7449 58.6615 19.8022C57.7135 19.9168 56.7344 19.9168 55.7865 20.0053C55.1875 20.0626 54.5521 20.0626 53.9531 20.1199C52.7448 20.2084 51.5365 20.2345 50.3333 20.2918C49.6458 20.323 48.9271 20.3543 48.2396 20.3803C47.0625 20.4376 45.8854 20.4949 44.6771 20.5522C43.9583 20.5834 43.2396 20.6407 42.5521 20.672C41.4323 20.7293 40.3437 20.7866 39.224 20.8439C38.3021 20.8699 37.3854 20.9011 36.4635 20.9584C35.5729 20.9897 34.6562 20.9584 33.7656 21.0157C32.7031 21.047 31.6406 21.0157 30.5781 21.0157C29.6615 21.0157 28.7396 21.0157 27.8229 21.0157C26.5052 21.073 25.2083 21.1043 23.8906 21.2761C23.1719 21.3647 22.4531 21.422 21.7344 21.5105C20.7031 21.6512 19.6719 21.8282 18.6667 22.0001C17.8906 22.1459 17.0833 22.2918 16.3698 22.5782C16.224 22.6355 16.224 22.6668 16.2812 22.7814C16.3385 22.7814 16.4271 22.7501 16.4844 22.7501V22.8699Z" fill="#BAA685"/>
<path d="M119.469 45.1874C118.38 45.2447 117.286 45.3645 116.224 45.5364C114.875 45.7395 113.557 45.9999 112.208 46.1458C111.229 46.2603 110.255 46.2864 109.25 46.3437C108.589 46.4062 107.958 46.4062 107.297 46.4635C106.318 46.5781 105.375 46.6666 104.396 46.8385C103.448 47.0103 102.474 47.1562 101.552 47.4426C99.6615 48.052 97.849 48.9478 95.9531 49.5572C96.3021 49.4687 96.6458 49.3541 96.9896 49.2655C97.9635 49.0051 98.9427 48.802 99.9479 48.6614C100.724 48.5416 101.495 48.5155 102.245 48.3697C103.938 47.9947 105.63 47.7916 107.323 47.6197C108.328 47.5312 109.333 47.4739 110.339 47.4426C110.943 47.4426 111.547 47.3853 112.151 47.328C113.094 47.2708 114.016 47.1249 114.932 46.9843C116.167 46.7812 117.401 46.5468 118.667 46.3749C119.698 46.2291 120.734 46.1458 121.766 46.0572C122.714 45.9687 123.661 45.9687 124.609 45.8853C124.927 45.8853 125.271 45.8853 125.583 45.828C126.391 45.7395 127.167 45.7083 127.969 45.6822C128.714 45.651 129.49 45.5364 130.234 45.4218C130.208 45.3906 130.177 45.3645 130.151 45.3645C129.318 45.1874 128.484 45.1874 127.651 45.1301C126.995 45.0728 126.302 45.1041 125.641 45.0728C123.604 45.0468 121.536 45.0728 119.5 45.1614L119.469 45.1874Z" fill="#BAA685"/>
<path d="M129.406 60.2241C128.401 60.3127 127.396 60.5158 126.391 60.7189C125.5 60.8908 124.578 61.0054 123.661 61.1512C123.203 61.2085 122.714 61.2085 122.255 61.3543C121.104 61.672 119.958 61.9897 118.839 62.3074C117.833 62.5939 116.802 62.797 115.823 63.172C115.536 63.2918 115.25 63.3179 114.964 63.3491C114.677 63.3491 114.359 63.4324 114.073 63.4637V63.521C114.385 63.521 114.703 63.6356 115.021 63.6929C115.505 63.8127 115.995 63.8699 116.484 64.0418C117 64.2137 117.516 64.3595 118.036 64.4168C118.578 64.4741 119.125 64.5887 119.698 64.6512C120.302 64.7085 120.906 64.7918 121.51 64.8491C122.109 64.9116 122.687 64.9689 123.286 65.0262C123.865 65.0835 124.437 65.172 125.01 65.2293C125.5 65.2866 125.99 65.3127 126.474 65.4012C127.281 65.547 128.083 65.6616 128.859 65.7502C129.693 65.8335 130.495 65.922 131.328 65.9793C132.245 66.0366 133.167 66.0679 134.083 66.0939C134.974 66.0939 135.865 66.0939 136.755 66.1252C137.214 66.1252 137.646 66.2085 138.073 66.0106C138.276 65.8908 138.505 65.8335 138.734 65.8335C138.62 65.6877 138.422 65.7762 138.276 65.7189C137.901 65.5158 137.5 65.4897 137.125 65.4897C136.062 65.4897 135.031 65.3699 133.969 65.3439C133.536 65.3439 133.109 65.3439 132.677 65.2866C131.76 65.2293 130.87 65.1408 129.948 65.0835C129.349 65.0262 128.745 64.9949 128.141 64.9116C127.339 64.8231 126.562 64.6772 125.755 64.5887C124.896 64.5054 124.005 64.4481 123.146 64.3595C122.026 64.271 120.906 64.1877 119.786 64.0731C119.01 64.0106 118.266 63.896 117.49 63.7814C117.26 63.7502 117.031 63.7502 116.771 63.6095C117.057 63.5522 117.318 63.4949 117.547 63.4324C118.495 63.2606 119.385 62.797 120.333 62.6564C121.219 62.5366 122.109 62.3647 123 62.2502C123.865 62.1356 124.724 61.9585 125.557 61.7866C126.818 61.4949 128.052 61.1772 129.318 60.9168C130.755 60.5991 132.187 60.3127 133.594 59.9949C134.172 59.8804 134.745 59.7918 135.26 59.5314C135.661 59.3283 136.094 59.1564 136.583 59.0418C136.062 59.0106 135.635 59.0679 135.177 59.1564C134.828 59.2137 134.484 59.3022 134.172 59.3856C132.589 59.8491 130.984 60.1095 129.349 60.2241H129.406Z" fill="#BAA685"/>
<path d="M11.1406 38.3072C11.2292 38.3072 11.3125 38.3072 11.4011 38.3072C12.2344 38.3645 13.0677 38.4531 13.8959 38.5104C14.6459 38.5677 15.4219 38.4791 16.1667 38.3958C16.6563 38.3385 17.1146 38.25 17.4323 37.8177C17.7188 37.4687 17.7188 37.2395 17.3438 36.9791C17.0834 36.802 16.7969 36.6875 16.5104 36.6041C14.9584 36.052 13.3542 35.6458 11.7761 35.302C11.6302 35.2708 11.5156 35.1249 11.3125 35.2447C12.9531 35.9374 14.5886 36.6041 16.1927 37.3802C16.1094 37.4114 16.0521 37.4687 15.9948 37.4687C15.1354 37.5572 14.2448 37.6406 13.3802 37.6406C13.125 37.6406 12.8959 37.6406 12.6354 37.6406C11.974 37.7031 11.3125 37.7864 10.625 37.7864C10.25 37.7864 9.90627 37.7864 9.53648 37.8437C9.07294 37.901 8.9896 37.9583 8.93231 38.2812C9.65106 38.2187 10.3646 38.3385 11.0834 38.3385L11.1406 38.3072Z" fill="#BAA685"/>
<path d="M28.8021 45.3334C28.9167 45.3334 29.0313 45.3334 29.1146 45.3334C29.8021 45.3334 30.4636 45.3334 31.1563 45.3334C31.6406 45.3334 32.099 45.3334 32.5886 45.2188C33.6823 44.9897 34.8021 44.7553 35.9219 44.8126C36.1511 44.8126 36.3802 44.8126 36.6354 44.8126C36.5521 44.7553 36.4948 44.7292 36.4063 44.7292C35.5729 44.6667 34.7448 44.5261 33.9375 44.2917C33.0781 44.0626 32.2188 43.8282 31.3281 43.8022C30.0365 43.7709 28.7709 43.8022 27.6511 43.8594C28.0521 43.9167 28.2813 44.5522 28.7396 44.7292C28.8281 44.7553 28.8854 44.9584 28.8281 45.1303C28.8281 45.1876 28.8281 45.2449 28.8021 45.3334Z" fill="#BAA685"/>
<path d="M89.2969 56.8124C89.8125 56.927 90.3281 57.1041 90.875 57.1041C93.6302 57.1301 96.3854 57.0468 99.1406 57.1613C99.4583 57.1613 99.6875 57.302 99.8594 57.6249C100.953 57.2759 102.042 56.927 103.193 56.9009C103.078 56.8697 102.958 56.8697 102.875 56.8697C102.245 56.8697 101.641 56.8124 101.036 56.6666C100.203 56.4634 99.3698 56.3488 98.5104 56.3801C98.3073 56.3801 98.1094 56.4374 97.8802 56.4374C96.3281 56.4374 94.8073 56.552 93.2552 56.5832C92.1354 56.5832 91.0156 56.6666 89.8958 56.6405C89.6094 56.6405 89.3542 56.7238 89.0625 56.6978C89.0625 56.6978 89.0625 56.7551 89.0625 56.7863C89.151 56.7863 89.2083 56.8124 89.2917 56.8436L89.2969 56.8124Z" fill="#BAA685"/>
<path d="M22.7708 54.4114C21.9948 54.3541 21.2187 54.4426 20.4427 54.4999C21.0208 54.6145 21.5937 54.703 22.1979 54.8176C23 54.9634 23.8021 55.1353 24.5781 55.2812C25.4427 55.453 26.3021 55.6249 27.1614 55.7707C28.026 55.9166 28.8854 56.0884 29.7448 56.0624C30.7812 56.0051 31.8125 55.9478 32.875 56.0624C33.0781 56.0624 33.3073 56.177 33.5364 56.0884C32.7344 55.9166 31.9583 55.802 31.2135 55.5989C29.9219 55.2239 28.5989 54.9895 27.25 54.8749C26.6198 54.8176 26.0156 54.7603 25.3854 54.703C24.4948 54.6145 23.6302 54.4999 22.7396 54.4426L22.7708 54.4114Z" fill="#BAA685"/>
<path d="M113.411 57.479C114.328 57.5623 115.276 57.5623 116.224 57.5363C116.974 57.505 117.719 57.4478 118.464 57.2446C119.214 57.0155 119.958 56.8696 120.703 56.6405C120.964 56.5519 121.25 56.5259 121.51 56.38C121.135 56.38 120.76 56.3228 120.391 56.2915C119.755 56.2655 119.156 56.0884 118.521 56.2082C117.776 56.3488 117 56.4634 116.224 56.5832C115.568 56.6978 114.875 56.7863 114.214 56.8696C113.641 56.9582 113.094 57.0467 112.521 57.0728C112.208 57.0728 111.859 57.2186 111.547 57.0728C111.401 57.0467 111.344 56.8123 111.146 56.9269C111.229 57.13 111.229 57.13 111.375 57.1613C112.063 57.3332 112.781 57.4217 113.469 57.479H113.411Z" fill="#BAA685"/>
<path d="M26.9323 52.3021C27.7969 52.5625 28.6823 52.4167 29.5469 52.3906C30.4063 52.3594 31.2396 52.276 32.099 52.1875C32.5625 52.1302 33.0209 52.099 33.4792 52.0417C33.8229 52.0156 34.1667 51.9531 34.4844 52.099C34.5417 52.099 34.5729 52.1875 34.6563 52.1302L34.6875 52.0729C34.6875 51.9844 34.599 51.9844 34.5156 51.9844C34.1979 51.9271 33.8802 51.9271 33.5677 51.8698C32.5313 51.724 31.5 51.6927 30.4636 51.6667C29.7448 51.6667 29.0313 51.5781 28.3125 51.6094C28.1979 51.6094 28.0834 51.5781 27.9688 51.5781C27.3646 51.5781 26.7604 51.5781 26.1302 51.5781C26.1302 51.7813 26.0729 51.9844 26.0417 52.2448C26.3594 52.276 26.6459 52.2448 26.9323 52.3594V52.3021Z" fill="#BAA685"/>
<path d="M89.526 38.797C88.5781 38.797 87.6302 38.797 86.6823 38.7398C86.0781 38.6825 85.474 38.771 84.875 38.771C84.5833 38.771 84.2969 38.771 84.0104 38.797C83.0625 38.8856 82.0885 38.9741 81.1406 39.0887C80.7656 39.12 80.3958 39.2033 80.0469 39.3804C80.3646 39.4377 80.6823 39.4637 80.9948 39.4637C81.8021 39.4637 82.5781 39.5523 83.3802 39.5523C83.8385 39.5523 84.2969 39.6095 84.7604 39.5783C85.2188 39.5783 85.6771 39.5783 86.1354 39.521C86.7083 39.4377 87.2865 39.3179 87.8854 39.2033C88.75 39.0314 89.6094 38.8856 90.474 38.797C90.1563 38.797 89.8698 38.797 89.5521 38.797H89.526Z" fill="#BAA685"/>
<path d="M3.16147 66.2656C3.56251 65.5469 3.79168 64.7656 4.13543 64.0104C4.51043 63.2031 4.76564 62.3646 4.96876 61.4948C5.11459 60.7448 5.02605 59.9375 5.40105 59.1562C5.22918 59.1823 5.22918 59.3281 5.19793 59.4167C5.11459 59.7031 5.02605 60.0208 4.91147 60.3125C4.59376 61.2969 4.3073 62.276 3.84897 63.2031C3.21876 64.4167 2.61459 65.6302 2.50001 67.0469C2.50001 67.0781 2.44272 67.1042 2.50001 67.1667C2.76043 66.875 2.98959 66.5885 3.18751 66.2396L3.16147 66.2656Z" fill="#BAA685"/>
<path d="M137.844 50.1614C137.729 49.7603 137.958 49.3228 137.818 48.9218C137.729 48.6301 137.672 48.3124 137.589 48.0208C137.417 47.4739 137.417 46.8958 137.271 46.3176C137.01 45.3333 136.526 44.4374 135.979 43.5676C136.036 44.7291 136.526 45.7968 136.667 46.9218C136.839 48.0833 137.443 49.0937 137.844 50.1614Z" fill="#BAA685"/>
<path d="M131.182 26.1614C131.297 26.8593 131.411 27.5521 131.469 28.2448C131.526 28.7396 131.557 29.2291 131.672 29.7187C131.844 30.5885 132.276 31.3958 132.531 32.2656C132.677 32.7291 132.995 33.1041 133.224 33.5104C133.052 32.5833 132.792 31.6875 132.474 30.8177C132.187 30.0364 131.99 29.2552 131.875 28.4479C131.703 27.0885 131.385 25.7864 130.839 24.5156C130.812 24.4583 130.812 24.401 130.667 24.4583C130.755 24.7187 130.927 24.9218 130.953 25.1823C131.01 25.5 131.099 25.8437 131.156 26.1614H131.182Z" fill="#BAA685"/>
<path d="M12.5208 29.1718C12.5208 28.7655 12.5781 28.3905 12.6614 27.9843C12.8646 26.9999 13.3229 26.1614 13.7239 25.2655C13.8698 24.9218 14.0416 24.6041 14.1875 24.2551C14.1875 24.2551 14.1562 24.2551 14.1302 24.2239C13.9844 24.5728 13.7552 24.8645 13.5521 25.151C12.9219 26.078 12.375 27.0624 12.1771 28.1874C12.0052 29.0572 12.0052 29.9218 11.8021 30.7916C11.6875 31.3124 11.8021 31.8593 11.5989 32.4114C11.7448 32.151 11.8906 31.8905 12.0312 31.5989C12.4323 30.8489 12.4635 30.0103 12.5208 29.1718Z" fill="#BAA685"/>
<path d="M133.766 37.1824C133.74 37.4688 133.766 37.7292 133.885 37.9897C134 38.2501 134.141 38.422 134.427 38.3647C134.427 38.047 134.458 37.7292 134.427 37.4115C134.37 36.8647 134.255 36.3126 134.026 35.7917C133.885 35.4167 133.625 35.099 133.594 34.6667C133.594 34.9845 133.625 35.3022 133.682 35.5886C133.766 36.1095 133.797 36.6615 133.74 37.1824H133.766Z" fill="#BAA685"/>
<path d="M138.047 51.3176C138.104 52.0989 138.359 52.8228 138.766 53.4895C138.62 52.7083 138.245 52.0416 138.047 51.3176Z" fill="#BAA685"/>
<mask id="mask1_4_4" style="mask-type:luminance" maskUnits="userSpaceOnUse" x="19" y="0" width="106" height="71">
<path d="M19.4948 0H124.828V70.9167H19.4948V0Z" fill="white"/>
</mask>
<g mask="url(#mask1_4_4)">
<path d="M124.438 26.4218C124.094 25.5572 124.12 24.5729 123.807 23.7343C123.203 22.3489 122.484 20.9895 121.797 19.6302C121.536 19.1354 121.135 18.7604 120.76 18.3854C119.87 17.4583 118.979 16.5625 118.151 15.6093C117.146 14.4531 115.995 13.4427 114.734 12.5468C113.125 11.4166 111.516 10.2916 109.766 9.39579C105.547 7.3385 101.125 5.74996 96.6146 4.42183C95.1823 4.01558 93.7448 3.55204 92.3073 3.14579C89.3542 2.30725 86.3073 1.70308 83.2917 1.18225C80.3959 0.687456 77.4375 0.546831 74.4792 0.369748C69.8542 0.0832893 65.1771 0.197874 60.5834 1.06766C57.3386 1.76037 54.0938 2.30725 50.9636 3.43746C45.1355 5.60412 39.5365 8.46871 34.3698 11.9375C31.5834 13.8437 28.5105 15.3802 25.9584 17.6354C23.974 19.4843 22.0521 21.4218 20.7917 23.8489C18.349 28.276 20.3282 33.4479 21.25 38.0468C21.4792 39.1198 21.823 40.1875 22.1094 41.2291C22.7396 43.6302 23.1146 46.1145 23.6303 48.5156C23.948 49.8177 24.3803 51.0572 24.9792 52.2447C25.1511 52.5937 25.2969 52.9375 25.4115 53.3125C25.4688 53.5156 25.5573 53.6614 25.698 53.776C28.224 56.2916 30.7813 58.8072 33.625 60.9479C37.125 63.6093 41.1146 65.5729 45.224 67.0781C48.5521 68.3802 52.0573 69.0416 55.5886 69.6198C58.1719 70 60.7865 70.2864 63.3959 70.3437C65.323 70.3437 67.2448 70.1979 69.1667 70.0833C72.1823 69.7968 75.198 69.4479 78.1823 68.927C78.4688 68.8698 78.7552 68.7812 79.0469 68.7552C79.3334 68.6979 79.4167 68.552 79.4167 68.2916C79.4167 66.9895 79.2188 65.6875 79.3021 64.3906C79.2188 60.9791 79.3594 57.5937 79.5052 54.2083C79.5625 52.1875 79.1875 50.1614 78.9584 48.1406C78.8125 46.9531 78.6407 45.7656 78.4115 44.6093C78.0678 42.8489 77.75 41.1145 77.4636 39.3489C77.2657 38.1354 77.0938 36.9479 76.8907 35.7343C76.8646 35.4739 76.8334 35.1875 76.8334 34.927C76.8334 34.6354 76.948 34.5208 77.2344 34.5468C78.2136 34.75 79.2188 34.8645 80.1927 35.0989C80.7969 35.2448 81.2813 35.677 81.8855 35.7916C82.2605 35.8489 82.3438 35.9948 82.3438 36.3698C82.3438 39.2604 82.3438 42.1822 82.0886 45.0729C82.0313 45.5937 82.0886 46.1458 82.6355 46.5208C83.0365 46.8072 83.4063 47.1822 83.7813 47.5312C85.1042 48.8333 86.5365 50.0468 88 51.2031C89.724 52.5625 91.448 53.8906 93.1146 55.3385C93.6302 55.802 94.2605 56.1197 94.8646 56.4635C95.7552 56.9843 96.4427 57.7395 97.1302 58.4895C98.25 59.677 99.6042 60.5989 100.781 61.7552C101.323 62.276 101.958 62.6822 102.615 63.0572C103.161 63.375 103.505 63 103.88 62.8541C106.146 61.9583 108.359 60.9479 110.51 59.7916C114.245 57.8229 118.552 55.2812 119.5 50.7968C119.698 49.8177 120.016 48.8906 120.276 47.9375C120.818 45.9114 121.307 43.8593 121.854 41.8073C122.109 40.5625 122.427 39.3177 122.714 38.0781C123.031 36.7187 123.203 35.3281 123.547 33.9687C123.979 32.7864 124.266 31.4843 124.234 30.2135C124.208 29.1979 124.438 28.1875 124.349 27.177C124.349 27.1198 124.349 27.0625 124.406 27.0312V26.5416L124.438 26.4218Z" fill="#E1A141"/>
</g>
<path d="M62.25 5.08325C62.6511 5.02596 63.0521 5.02596 63.4532 5.20304C64.0834 5.4895 64.7188 5.52075 65.3802 5.40096C66.5 5.08325 67.7032 5.17179 68.7657 4.68221C70.3177 3.95825 72.0365 3.98429 73.7344 3.90096C74.1927 3.90096 74.625 3.78638 75.0834 3.90096C75.2552 3.927 75.4532 4.04159 75.6563 3.927C75.5677 3.81242 75.4844 3.81242 75.3698 3.81242C74.5677 3.81242 73.7917 3.64054 72.9844 3.64054C72.9584 3.64054 72.9011 3.60929 72.8698 3.58325H70.573C70.5157 3.66659 70.4584 3.64054 70.375 3.64054C69.3386 3.64054 68.3646 4.10409 67.3282 4.18742C66.7292 4.21867 66.1511 4.33325 65.5782 4.56242C65.0886 4.76554 64.6042 4.7395 64.0834 4.65096C63.6563 4.59367 63.224 4.3645 62.7917 4.47909C62.1355 4.68221 61.4428 4.82284 60.7552 4.85409C60.4948 4.85409 60.2657 4.96867 60.0677 5.20304C60.8125 5.20304 61.5 5.14054 62.2188 5.08325H62.25Z" fill="#F2D47B"/>
<path d="M106.922 41.4323C106.26 39.2344 105.458 37.0625 103.995 35.3021C102.328 32.8437 100.26 30.7031 97.9063 28.9375C96.4427 27.8125 94.8334 27.0312 93.0573 26.6562C90.5573 26.1042 88.1146 25.3854 85.7032 24.5729C84.9896 24.3698 84.3542 24.0521 83.8959 23.4167C83.6094 23.2135 83.8698 23.0104 83.8959 22.8073C83.8959 22.6354 84.0417 22.6354 84.1823 22.6094C84.8438 22.5208 85.5313 22.375 86.1927 22.2292C86.5677 22.1458 86.8542 21.9687 87.0261 21.5677C87.1719 21.2187 87.1407 21.0469 86.8542 20.8125C86.4219 20.4948 85.849 20.5833 85.4167 20.2344C85.1615 20.0365 84.8438 19.9479 84.5261 19.8594C84.1823 19.776 83.8386 19.7135 83.5209 20.0365C83.323 20.2344 83.0052 20.3229 82.7188 20.1771C82.4323 20.0625 82.1146 19.9167 81.8594 19.7135C80.4792 18.6146 78.6719 18.7917 77.0365 19.0521C76.0573 19.1979 75.224 19.0521 74.5105 18.3281C73.9063 17.6615 73.2448 16.7656 72.2396 16.9375C70.7761 17.1719 69.3959 17.8646 68.1615 18.6771C67.3594 19.3125 66.323 19.2812 65.349 19.3385C64.4584 19.3958 63.625 19.6302 62.9948 20.3542C62.6771 20.6979 62.3646 21.0729 62.0782 21.4792C61.9063 21.7396 61.7032 21.8542 61.4167 21.8854C60.3542 21.9687 61.5573 23.1875 61.9063 23.5052C62.1927 23.7917 62.5625 23.9687 62.9948 23.7344C63.0521 23.7344 63.1094 23.7344 63.1407 23.7344C63.7136 24.0521 64.3177 24.0833 64.948 24.0833C66.0677 24.0833 67.1875 24.1406 68.3073 24.224C69.7969 24.224 71.2657 24.6042 72.7292 24.9479C73.2709 25.0937 73.8177 25.2396 74.3073 25.5573C74.3907 25.6146 74.4532 25.6458 74.5105 25.7292C74.6511 26.0469 74.7969 26.3385 74.9115 26.6562C75.3386 27.901 75.6875 29.1406 76 30.4167C76.3177 31.6875 76.6302 32.9583 76.948 34.2292C77.0052 34.4635 77.0938 34.5469 77.2917 34.5469C78.5573 34.4635 79.7032 35.0417 80.9115 35.3854C81.2552 35.4427 81.573 35.5885 81.9167 35.7656C82.1146 35.849 82.2292 35.9948 82.2605 36.224C82.4011 37.3542 82.4636 38.5104 82.4323 39.6667C82.4323 40.8229 82.4896 42.0104 82.375 43.1667C82.3177 43.7708 82.2865 44.3802 82.2605 44.9583C82.2292 45.5937 82.3177 46.2031 82.8334 46.6354C83.9271 47.6458 84.9584 48.6875 86.1094 49.6146C89.4375 52.2135 92.7084 54.875 95.9271 57.625C98.1927 59.4427 100.234 61.6719 102.786 63.0885C103.021 63.2031 103.104 63.1719 103.161 62.9115C103.307 62.2188 103.365 61.4688 103.62 60.8021C104.021 59.9375 104.396 59.0677 104.599 58.1406C105 56.1458 105.859 54.2969 106.406 52.3333C107.036 49.6146 107.323 46.8385 107.411 44.0625C107.411 43.5417 107.526 43.0208 107.38 42.5C107.266 42.125 107.182 41.75 107.094 41.375L106.922 41.4323Z" fill="#F2D47B"/>
<path d="M68.9375 30.7606C68.5625 30.7606 68.2187 30.6147 67.8177 30.7033C67.2708 30.8179 66.7292 30.9637 66.151 30.7033C65.8958 30.5887 65.5208 30.672 65.2031 30.7033C64.7448 30.7345 64.2864 30.7606 63.8281 30.646C62.6198 30.3543 61.4167 30.0939 60.151 30.1251C59.9531 30.1251 59.7239 30.1824 59.6094 29.922C59.6094 29.8647 59.4896 29.8335 59.4323 29.8074C57.9687 29.4324 56.5052 29.2293 55.0104 29.0835C54.7812 29.0574 54.526 29.0835 54.4375 28.797C54.4375 28.7658 54.3542 28.7397 54.3229 28.7397C53.9792 28.6772 53.7187 28.4481 53.5208 28.2189C53.0625 27.6981 52.4844 27.4637 51.8542 27.2606C50.3333 26.9168 49.125 25.9012 48.2083 24.6876C47.9792 24.4012 47.7187 24.2554 47.4062 24.1981C47 24.1408 46.6562 23.9689 46.2292 23.9949C46.3437 23.3595 46.4583 22.7814 46.401 22.146C46.3437 21.1929 45.7656 20.5522 45.1354 19.9741C44.7344 19.6304 44.1875 19.5731 43.6719 19.4272C43.2396 19.3126 42.8698 19.2554 42.7552 18.7033C42.6979 18.4168 42.5521 18.1251 42.4375 17.8387C41.9219 16.8804 41.9792 16.0731 42.7552 15.2918C44.0729 13.7866 46.3437 13.3856 47.2917 11.5054C47.5469 10.9845 47.9792 10.6668 48.4687 10.4064C49.4739 9.88556 50.4479 9.36473 51.4531 8.87514C52.2292 8.46889 53.0052 8.09389 53.8073 7.71889C53.8958 7.6564 54.0104 7.57306 54.125 7.71889C54.4375 6.96369 52.4583 7.83348 52.1979 7.91681C50.9062 8.43764 49.6146 8.98973 48.3229 9.51056C47.6614 9.77098 47.0312 10.0887 46.6562 10.7241C46.1979 11.5054 45.5104 12.0262 44.7344 12.4272C43.5833 13.0366 42.4948 13.7606 41.6354 14.7449C41.1719 15.2345 40.7708 15.7554 40.5989 16.4481C40.4844 16.9376 40.5417 17.4324 40.5729 17.9533C40.5989 18.7033 40.5729 19.4533 40.6562 20.2085C40.7708 21.3335 41.3489 22.1147 42.4062 22.4324C42.7239 22.521 43.0677 22.6095 43.3542 22.8387C43.125 23.5054 42.526 23.9376 42.4062 24.6304C42.3229 25.5835 42.3229 26.5418 42.8385 27.4064C42.9531 27.6095 43.0104 27.9012 43.2969 27.9585C44.1875 28.1304 45.0208 27.5783 45.8542 27.2918C46.2292 27.146 46.5417 27.2033 46.8021 27.4376C47.2031 27.7814 47.6354 28.0418 48.0625 28.3335C48.8125 28.8804 49.6146 29.2293 50.5052 29.4012C51.2239 29.5783 51.8854 29.7762 52.4844 30.2397C52.9739 30.6147 53.75 30.7033 54.1823 30.1564C54.2656 30.0366 54.4114 30.0679 54.526 30.0939C55.3021 30.297 56.0729 30.3543 56.7917 30.646C57.2812 30.8491 57.7396 31.1095 58.2552 31.2241C58.5156 31.2814 58.776 31.396 59.0312 31.2814C59.3489 31.1095 59.6927 31.1095 60.0364 31.1095C60.9271 31.0783 61.7864 30.8179 62.651 30.8751C62.7656 30.8751 62.9062 30.8751 62.9948 30.9637C63.9114 31.8022 65.2917 31.8908 66.3542 31.3699C66.5833 31.2814 66.7552 31.1668 67.0156 31.1929C67.7344 31.1929 68.4479 31.2554 69.0833 30.7606H68.9375Z" fill="#F2D47B"/>
<path d="M85.0729 6.15625C87.2864 6.41667 89.3802 7.3125 91.5052 8.00521C94.0885 9.04688 97.2448 9.19271 99.2291 11.3281C99.8593 12.026 100.406 12.75 101.125 13.3854C101.125 13.3854 101.125 13.4115 101.125 13.4427C101.036 13.526 100.953 13.4687 100.865 13.5C100.234 13.6146 99.9479 13.7031 99.8906 14.3646C99.8906 14.599 99.9166 14.8281 99.9479 15.0625C100.031 15.8125 100.349 16.2448 101.125 16.2188C101.526 16.2188 101.698 16.5052 102.016 16.7083C101.495 16.8229 101.01 16.8542 100.547 17C99.2552 17.3177 99.1718 18.9063 99.3698 20.0052C99.401 20.2083 99.3698 20.3229 99.1718 20.4375C97.677 21.25 96.3593 22.4063 94.9791 23.4167C94.6354 23.6771 94.3489 23.9375 94.2343 24.3698C94.6041 24.4583 94.8645 24.224 95.151 24.0521C95.8698 23.6198 96.5312 23.1302 97.3645 22.8958C98.4218 22.5469 99.776 22.8073 100.635 21.9427C101.125 21.4531 101.667 20.9583 101.755 20.2344C101.812 19.9479 101.927 19.8594 102.187 19.8333C103.479 19.6563 104.453 18.9635 105.172 17.9219C105.401 17.5781 105.687 17.1979 105.375 16.7656C105.375 16.7656 105.375 16.6823 105.375 16.651C105.458 16.276 105.083 16.0729 104.885 15.8125C105.057 15.5833 105.375 15.2344 105.172 14.974C104.911 14.6823 104.656 14.3646 104.224 14.3073C103.995 14.2813 103.792 14.1927 103.562 14.1354C103.62 13.9063 103.823 13.6458 103.677 13.4115C103.479 13.151 103.307 12.8906 102.99 12.75C102.042 12.2552 100.896 12.0833 100.203 11.1875C98.9427 9.53646 97.0156 8.67188 95.0677 8.17708C93.5989 7.77604 92.1354 7.39583 90.6458 7.05208C88.6354 6.58854 86.625 6.09896 84.5573 6.18229C84.7604 6.32812 84.901 6.21354 85.0468 6.23958L85.0729 6.15625Z" fill="#F2D47B"/>
<path d="M49.2969 47.5624C49.9583 47.8801 50.6771 47.9635 51.3958 48.1405C52.1719 48.3124 52.9167 48.3385 53.6354 47.8228C52.5417 47.677 51.4792 47.4999 50.4167 47.2708C49.901 47.1822 49.4167 47.1249 48.9531 46.8958C48.0938 46.4635 47.1771 46.1458 46.2865 45.7083C45.651 45.4218 44.9062 45.4791 44.3021 45.1301C43.7604 44.8437 43.1823 44.6093 42.6094 44.4374C42.4688 44.4062 42.3229 44.3228 42.2083 44.2083C41.9479 43.9166 41.6042 43.7447 41.2292 43.6562C40.7708 43.5416 40.3438 43.453 39.9115 43.2499C38.9063 42.7916 37.8125 42.8749 36.7812 42.4999C35.75 42.1822 34.8854 41.2864 33.7656 41.2864C33.7656 41.401 33.8229 41.4322 33.9115 41.4322C33.9948 41.4322 34.0521 41.4322 34.1406 41.4895C34.6302 41.9791 35.1458 42.4114 35.6927 42.8749C36.3802 43.4843 37.1562 43.9166 38.0729 44.0624C39.0208 44.2083 39.9688 44.3228 40.9427 44.2916C41.3177 44.2916 41.6927 44.3228 42.0365 44.4687C42.6406 44.7291 43.3281 44.7291 43.8177 45.1874C44.5625 45.828 45.3958 46.203 46.3438 46.3437C47.4323 46.4895 48.4375 46.9218 49.3854 47.4739L49.2969 47.5624Z" fill="#F2D47B"/>
<path d="M118.349 35.328C117.948 35.8489 117.573 36.401 117.031 36.776C115.911 37.526 114.875 38.3958 113.844 39.2603C113.443 39.6093 113.01 39.927 112.464 39.9843C111.547 40.0989 110.885 40.6197 110.255 41.2291C110.109 41.3749 109.969 41.5468 110.026 41.8072C110.141 41.8072 110.083 41.7187 110.141 41.6926C110.714 41.4583 111.286 41.1718 111.917 41.1718C112.781 41.1718 113.443 40.7083 114.016 40.1301C114.849 39.3176 115.651 38.453 116.542 37.6718C117.26 37.0364 117.891 36.3697 118.464 35.5885C118.609 35.3853 118.75 35.2135 118.75 34.8958C118.578 35.0416 118.464 35.1562 118.349 35.302V35.328Z" fill="#F2D47B"/>
<path d="M26.8489 36.224C26.0989 35.3595 25.3541 34.547 24.8072 33.5365C24.3489 32.7553 24.0312 31.8334 23.2291 31.3386C23.1458 31.5417 23.2291 31.6876 23.2864 31.8334C23.4895 32.2657 23.6614 32.698 23.802 33.1303C24.3229 34.8386 25.2968 36.198 26.9062 37.0053C27.2499 37.1824 27.3645 37.6407 27.8229 37.672C27.5052 37.1511 27.2499 36.6615 26.8489 36.198V36.224Z" fill="#F2D47B"/>
<path d="M36.3489 40.7969C36.7812 40.9948 37.2968 41.2552 37.7291 40.7969C37.7291 40.7969 37.8125 40.7969 37.8697 40.7969C37.8125 40.7083 37.7291 40.651 37.7291 40.5938C37.7291 40.3594 37.5572 40.3021 37.3854 40.2188C37.125 40.0729 36.8385 40.0417 36.5781 40.0156C35.8645 39.9271 35.2604 39.5208 34.6875 39.1198C34.2812 38.8594 33.8541 38.6563 33.5677 38.25C33.5364 38.3073 33.5677 38.3646 33.5677 38.3958C34.3125 39.4375 35.2291 40.2448 36.3489 40.8229V40.7969Z" fill="#F2D47B"/>
<path d="M44.4739 59.4167C44.3021 59.4167 44.1875 59.5313 44.1614 59.6772C44.1302 60.0782 44.1302 60.4845 44.3594 60.8595C44.4479 61.0053 44.5625 61.0365 44.7031 60.948C45.0208 60.7188 45.3073 60.4584 45.4531 60.0782C45.5104 59.9636 45.4531 59.9063 45.3958 59.8178C45.1666 59.474 44.7916 59.5313 44.4479 59.4167H44.4739Z" fill="#F2D47B"/>
<path d="M68.9115 44.9898C68.7084 44.844 68.5053 44.9586 68.2761 44.9586C67.7032 44.9586 68.0782 45.7659 68.2761 46.0263C68.3646 46.1461 68.4792 46.344 68.6771 46.1461C68.8803 45.9117 69.0521 45.6252 69.0834 45.3075C69.0834 45.1304 69.0521 45.0731 68.9115 44.9898Z" fill="#F2D47B"/>
<path d="M87.5729 17.8647C87.4583 17.8647 87.4583 17.922 87.427 18.0105C87.401 18.1251 87.3437 18.2136 87.2864 18.3282C87.1979 18.6459 86.9375 18.5886 86.7968 18.3282C86.7083 18.1824 86.5937 18.0365 86.5937 17.8074C86.1666 18.0365 86.5104 18.5001 86.651 18.8178C86.7656 19.0209 86.9114 19.224 87.1406 19.224C87.401 19.224 87.4583 18.9636 87.5156 18.7917C87.5989 18.5313 87.7448 18.297 87.7135 18.0105C87.7135 17.922 87.6875 17.8386 87.5729 17.8386V17.8647Z" fill="#F2D47B"/>
<path d="M83.8958 16.4218C84.0677 16.5364 84.1823 16.5052 84.2708 16.3593C84.3854 16.1302 84.5 15.927 84.5573 15.6666C84.5833 15.5208 84.6406 15.3229 84.4688 15.2604C84.2708 15.177 84.2969 15.4375 84.2135 15.5208C83.9844 16.0156 83.6979 15.5208 83.5521 15.2604C83.4063 15.3802 83.3802 15.4948 83.4375 15.6406C83.5521 15.927 83.6667 16.2187 83.9271 16.4218H83.8958Z" fill="#F2D47B"/>
<path d="M25.8437 49.9323C25.6146 49.8437 25.4114 49.9323 25.2083 49.9896C25.0937 50.0156 25.0677 50.1354 25.0937 50.25C25.1823 50.5104 25.2656 50.7708 25.526 50.9167C25.6406 51 25.7291 50.974 25.7864 50.8542C25.901 50.6562 25.9844 50.4531 26.0156 50.2187C26.0156 50.0781 26.0156 49.9896 25.8125 49.901L25.8437 49.9323Z" fill="#F2D47B"/>
<path d="M72.2135 40.9375C72.0104 40.9375 71.8385 40.9375 71.8073 41.1979C71.8073 41.4323 72.0364 41.8073 72.1823 41.8073C72.2968 41.8073 72.5833 41.375 72.5573 41.1719C72.526 40.9687 72.3541 40.9375 72.2135 40.9375Z" fill="#F2D47B"/>
<path d="M110.568 52.0988C110.396 51.9842 110.224 52.0728 110.141 52.1561C109.937 52.3905 109.823 52.6769 110.083 52.9946C110.255 52.7915 110.542 52.7655 110.625 52.4738C110.682 52.3332 110.74 52.2134 110.568 52.0988Z" fill="#F2D47B"/>
<path d="M107.786 57.3019C107.641 57.3019 107.411 57.2759 107.411 57.5363C107.411 57.7655 107.641 58.1144 107.786 58.1144C107.901 58.1144 108.156 57.7394 108.13 57.505C108.13 57.2759 107.927 57.3019 107.786 57.3019Z" fill="#F2D47B"/>
<path d="M26.2708 47.0677C26.1875 47.0417 26.0989 47.0677 26.0156 47.125C25.927 47.2136 25.927 47.3021 25.9843 47.4167C26.0729 47.6198 26.2135 47.7604 26.3593 47.9948C26.3854 47.7344 26.4427 47.5313 26.4739 47.3282C26.4739 47.2136 26.4166 47.099 26.302 47.0677H26.2708Z" fill="#F2D47B"/>
<path d="M46.6875 62.0731C46.5989 62.0731 46.5729 62.1616 46.5729 62.2502C46.5416 62.5679 46.7135 62.6824 46.9739 62.771C46.9739 62.6564 46.9427 62.5106 47.0625 62.422C47.2604 62.1929 46.8593 62.047 46.6875 62.0731Z" fill="#F2D47B"/>
<path d="M109.333 49.8438C109.219 49.8438 109.104 49.8751 109.135 50.0157C109.135 50.1355 109.135 50.3074 109.333 50.3386C109.563 50.2761 109.62 49.8178 109.333 49.8438Z" fill="#F2D47B"/>
<path d="M124.062 27.698C123.922 28.073 123.776 28.4792 123.635 28.8803C123.146 30.0938 122.63 31.3126 121.995 32.4688C121.021 34.2865 120.073 36.1095 118.781 37.7292C117.922 38.797 117.172 39.9584 116.109 40.823C115.219 41.547 114.359 42.297 113.354 42.8751C112.031 43.6563 110.625 44.2345 109.135 44.5834C108.906 44.6407 108.703 44.8126 108.5 44.9272C108.646 44.9272 108.76 44.8699 108.906 44.8699C109.594 44.8699 110.281 44.7553 110.943 44.6095C111.547 44.4688 112.177 44.349 112.75 44.1199C113.583 43.8022 114.385 43.3959 115.219 43.0209C115.505 42.8751 115.823 42.7917 116.083 42.5574C117.172 41.6042 118.151 40.5626 119.068 39.4636C119.672 38.7136 120.276 37.9897 120.734 37.1511C121.135 36.4011 121.479 35.6199 121.854 34.8386C122.542 33.422 123.146 31.974 123.604 30.474C123.891 29.5782 124.151 28.6511 124.292 27.724C124.292 27.6095 124.234 27.4949 124.38 27.4063V27.2917C124.234 27.4063 124.12 27.5522 124.062 27.724V27.698Z" fill="#9F6D49"/>
<path d="M69.198 50.625C68.7657 50.625 68.3334 50.625 67.9323 50.6562C67.3855 50.7135 66.8125 50.7396 66.2657 50.7969C65.349 50.9167 64.4323 50.974 63.5105 50.9167C62.4792 50.8542 61.4427 50.7135 60.4115 50.5677C59.2917 50.3958 58.1407 50.276 57.0209 50.1042C55.7292 49.9323 54.4688 49.7292 53.2032 49.5C51.5677 49.1771 49.9323 48.9219 48.323 48.6302C47.1459 48.4271 45.9688 48.2552 44.823 47.9948C43.125 47.6198 41.4896 47.125 39.8542 46.6042C38.6459 46.2031 37.4427 45.7656 36.2917 45.2448C34.8855 44.6094 33.5105 43.8906 32.1875 43.0781C30.9792 42.3281 29.8021 41.5469 28.6563 40.6771C27.3907 39.6979 26.2136 38.599 25.125 37.4427C24.6094 36.8906 24.1459 36.3437 23.7761 35.7031C23.0886 34.5469 22.4271 33.3646 21.9688 32.0625C21.6771 31.224 21.25 30.4167 21.0469 29.5156C20.849 28.5365 20.6459 27.5521 20.6146 26.5417C20.6146 25.6458 20.7605 24.776 20.9323 23.9062C20.9323 23.7917 21.0209 23.6771 20.9636 23.5625C20.9323 23.5625 20.9063 23.5625 20.875 23.5885C20.5 24.1406 20.1563 24.6875 19.9844 25.3229C19.7552 26.2812 19.6719 27.2604 19.698 28.2448C19.698 29.401 19.9271 30.5313 20.2448 31.6302C20.7032 33.2188 21.448 34.6927 22.2813 36.0833C23.3438 37.8177 24.6355 39.3802 26.1302 40.7344C26.5886 41.1719 27.0469 41.6354 27.5938 41.9531C28.9167 42.7292 30.2344 43.5104 31.5 44.3802C34.4271 46.375 37.6146 47.8229 41.0313 48.7448C42.0365 49.0052 43.0105 49.2656 44.0469 49.5C45.4792 49.8177 46.8855 50.0781 48.323 50.3646C49.7605 50.625 51.1927 50.8854 52.6302 51.1146C53.8073 51.3177 54.9844 51.4635 56.1302 51.6094C57.0521 51.724 57.9427 51.8125 58.8594 51.9271C59.9219 52.0417 61.0157 52.1302 62.0782 52.2135C63.4532 52.3333 64.8021 52.2135 66.1823 52.0417C66.5261 52.0156 66.8698 52.0729 67.2136 52.0417C67.9323 51.9531 68.6771 51.8958 69.3959 51.8385C71.0938 51.6667 72.7552 51.4063 74.3907 51C74.7969 50.9167 75.198 50.8281 75.599 50.625C74.7657 50.625 73.9636 50.5104 73.1302 50.5104C71.8386 50.5104 70.5157 50.5104 69.224 50.5365L69.198 50.625Z" fill="#9F6D49"/>
<path d="M91.8801 19.2812C92.5103 18.2969 92.7968 17.2604 92.3385 16.1302C91.9947 15.2604 91.302 14.7448 90.4739 14.3385C89.9843 14.1042 89.4374 14.0208 88.9791 13.7865C86.7083 12.6875 84.2968 12.0521 81.802 11.849C80.7968 11.7656 79.8176 11.651 78.8124 11.5885C77.6353 11.5052 76.4322 11.3906 75.2551 11.3906C73.7603 11.3906 72.2708 11.3906 70.776 11.5052C69.9166 11.5625 69.052 11.651 68.2187 11.8802C67.0156 12.2292 65.8072 12.5729 64.6301 13.0365C63.9687 13.2969 63.3124 13.526 62.7083 13.9062C61.6458 14.5677 60.5833 15.2917 59.6093 16.0729C59.2916 16.3333 58.9166 16.5625 58.6874 16.9115C58.0833 17.75 57.8853 18.7344 57.7135 19.7448C57.7135 19.8333 57.6822 19.9479 57.7135 20.0365C57.8541 20.526 57.9999 20.9896 58.1406 21.4792C58.2864 21.9115 58.427 22.3177 58.802 22.6094C59.0051 22.7813 59.2603 22.8698 59.4895 23.0104C60.2083 23.3854 60.927 23.7917 61.7291 23.9375C62.2499 24.026 62.7916 24.1094 63.3124 24.1667C63.4843 24.1667 63.6822 24.2552 63.9114 24.1667C63.6562 24.026 63.427 23.9063 63.1978 23.7917C62.4478 23.3854 61.7864 22.8958 61.0416 22.5208C59.7812 21.8854 59.0312 20.8698 58.8593 19.4531C58.7447 18.474 58.9739 17.6615 59.8072 17.0573C60.4114 16.6198 61.0416 16.1875 61.6718 15.8125C62.5937 15.2604 63.5416 14.8854 64.5156 14.5104C65.7239 14.0469 66.9583 13.7031 68.2187 13.4427C69.1093 13.2656 69.9739 13.125 70.8906 13.0365C72.2968 12.8906 73.677 12.8073 75.0833 12.7188C76.7187 12.6302 78.3281 12.6302 79.9635 12.776C81.3697 12.9219 82.776 13.125 84.1822 13.3854C85.5885 13.6458 87.026 13.9063 88.3489 14.4531C89.151 14.7708 89.9531 15.0885 90.6458 15.6406C91.5312 16.3594 91.7083 17.3437 91.0156 18.2708C90.8176 18.5313 90.6145 18.7604 90.3541 18.9948C89.4947 19.8021 88.4322 20.3229 87.3437 20.7865C85.8801 21.3906 84.4114 22 83.0624 22.8958C82.5781 23.2135 82.2291 23.5885 82.2291 24.224C82.2291 24.5156 82.2291 24.8333 82.1718 25.125C82.0572 25.7865 81.9739 26.4219 81.9166 27.0885C81.802 28.3594 81.802 29.6354 81.7447 30.9062C81.7447 31.6302 81.7447 32.3802 81.7447 33.1042C81.7447 33.651 81.7135 34.1719 81.8593 34.724C81.9999 35.1563 82.1145 35.6198 82.2603 36.0521C82.2603 36.1094 82.2603 36.1667 82.3437 36.1979C82.401 35.5052 82.4895 34.8073 82.5468 34.1146C82.6041 33.4792 82.6926 32.8698 82.7499 32.2344C82.8072 31.7135 82.9218 31.1927 82.8906 30.6719C82.8333 29.4896 82.776 28.3021 82.776 27.1198C82.776 26.3958 82.776 25.6458 82.8072 24.9219C82.8645 23.9063 83.4062 23.1875 84.2968 23.1562C85.276 23.1562 86.1353 22.75 87.026 22.4896C88.177 22.1458 89.151 21.4531 90.1562 20.8438C90.8437 20.4375 91.5051 19.9479 91.9374 19.224L91.8801 19.2812Z" fill="#9F6D49"/>
<path d="M40.8594 50.3958C39.9115 50.276 38.9323 50.1042 38.0156 49.8177C36.4063 49.2969 35.0573 48.3385 33.7396 47.3594C32.9896 46.8073 32.3021 46.2031 31.4688 45.8542C30.2656 45.3646 29.2865 44.4948 28.3125 43.6875C27.25 42.7917 26.2136 41.8646 25.125 40.9948C24.5209 40.5365 23.9167 40.1302 23.2604 39.7812C23.6615 40.0417 23.9167 40.4167 24.2656 40.7344C25.6406 42.0937 26.875 43.599 28.3698 44.8698C29.1146 45.5052 29.9219 46.1146 30.8646 46.4323C31.3854 46.6354 31.9271 46.7813 32.4167 47.0677C33.1615 47.5 33.7969 48.0521 34.5156 48.5417C35.375 49.0938 36.1771 49.6979 37.1563 50.0469C38.9063 50.7135 40.6875 51.1146 42.5261 50.8281C42.1198 50.7708 41.6927 50.625 41.2604 50.4792C41.1459 50.4219 41 50.3958 40.8594 50.3646V50.3958Z" fill="#9F6D49"/>
<path d="M59.8958 53.1406C58.7187 52.9948 57.5416 52.9375 56.3906 52.8542C55.5573 52.7656 54.7239 52.651 53.8958 52.5313C52.9166 52.3906 51.9687 52.2448 50.9948 52.3021C50.7343 52.3021 50.4791 52.3021 50.2448 52.5313C50.4166 52.5937 50.5364 52.4167 50.677 52.474C50.9635 52.5625 51.2812 52.6198 51.5677 52.7083C52.8333 53.0521 54.0677 53.5156 55.3593 53.776C56.1302 53.9531 56.9375 54.0365 57.7395 54.0938C58.6614 54.151 59.5781 54.2083 60.4948 54.1823C61.5885 54.1823 62.677 54.2708 63.7395 53.8906C63.3698 53.8073 63.0833 53.4896 62.6198 53.4583C61.7031 53.3698 60.8125 53.2865 59.8958 53.1719V53.1406Z" fill="#9F6D49"/>
<path d="M111.49 12.8074C112.781 13.6459 113.786 14.7709 114.563 16.073C114.677 16.2761 114.849 16.448 115.104 16.5053C116.313 16.823 117.286 17.5209 118.063 18.5001C118.323 18.8178 118.495 19.1667 118.75 19.5157C118.807 19.2813 118.75 19.0782 118.807 18.8751C118.865 18.6459 118.807 18.4428 118.724 18.2397C118.234 17.2605 117.458 16.5626 116.453 16.1615C115.854 15.9011 115.25 15.6667 114.875 15.0626C114.271 14.1355 113.443 13.4428 112.464 12.948C112.031 12.7501 111.604 12.547 111.115 12.4011C111.286 12.573 111.375 12.7501 111.547 12.8334L111.49 12.8074Z" fill="#9F6D49"/>
<path d="M29.3177 18.2968C29.7187 17.7187 30.1771 17.1978 30.6927 16.7395C31.0989 16.3905 31.526 16.0728 32.0156 15.8697C32.7604 15.5833 33.5677 15.4635 34.2552 15.0885C34.7448 14.828 35.2291 14.6249 35.5156 14.1041C35.75 13.703 36.0937 13.3541 36.4062 13.0051C36.8698 12.4583 37.5833 12.2291 38.0156 11.7083C37.9583 11.7083 37.8437 11.7916 37.6979 11.7916C37.2969 11.7916 36.9271 11.9947 36.5781 12.1666C35.8646 12.5728 35.2864 13.151 34.6562 13.703C34.0833 14.1926 33.5104 14.7135 32.7916 15.0051C32.4166 15.1458 32.0416 15.2603 31.6979 15.4635C30.6666 16.0728 29.7448 16.7655 29.2604 17.8958C29.1719 18.0989 29.0573 18.2968 28.9427 18.4999C29.1146 18.4739 29.2031 18.3853 29.2864 18.2708L29.3177 18.2968Z" fill="#9F6D49"/>
<path d="M74.3333 53.3437C74.1927 53.3125 74.0469 53.3125 73.875 53.3437C72.7865 53.5729 71.6927 53.8073 70.5469 53.8073C69.1094 53.8073 67.6771 53.9792 66.2656 54.2969C66.4115 54.2969 66.5833 54.2969 66.7292 54.2969C67.849 54.5 68.9688 54.4687 70.0885 54.5885C71.1198 54.7031 72.151 54.5573 73.1562 54.3281C73.5312 54.2396 73.9323 54.2396 74.25 53.9792C74.4792 53.776 74.7083 53.5469 74.9948 53.3698C74.7656 53.4583 74.5365 53.3698 74.3073 53.3698L74.3333 53.3437Z" fill="#9F6D49"/>
<path d="M33.3072 58.0572C33.1041 57.9114 32.9635 57.7083 32.8177 57.5052C32.5885 57.1875 32.302 56.9583 32.0156 56.7552C31.2708 56.2343 30.4374 55.8593 29.6874 55.3385C28.9427 54.8177 28.3124 54.2395 27.9947 53.3697C27.9374 53.2552 27.8802 53.1406 27.7656 53.052C27.5364 52.8802 27.3072 52.7083 27.0468 52.5625C26.9635 52.5052 26.8489 52.3906 26.7343 52.5625C26.6197 52.7083 26.677 52.7916 26.7604 52.9114C27.3333 53.7187 27.9947 54.4427 28.7395 55.1354C29.2864 55.625 29.8333 56.1458 30.4947 56.4635C31.4427 56.9583 32.3593 57.5052 33.0781 58.2864C33.1614 58.401 33.3385 58.4322 33.4791 58.375C33.4791 58.2604 33.3958 58.1406 33.3072 58.0833V58.0572Z" fill="#9F6D49"/>
<path d="M63.1406 12.5158C63.7396 12.3439 64.3438 12.0835 64.9167 11.8492C65.8958 11.4481 66.8698 11.1304 67.9062 10.9846C68.7083 10.896 69.4844 10.8127 70.2604 10.6669C70.7188 10.5783 71.2344 10.521 71.6094 10.1721C71.2917 10.0887 71.0365 10.1148 70.7188 10.1721C69.974 10.2919 69.2552 10.3492 68.5052 10.3752C67.474 10.3752 66.526 10.6669 65.6094 11.0992C64.6875 11.5315 63.8281 12.0523 62.9375 12.5471C62.9948 12.6044 63.0521 12.5471 63.1094 12.5471L63.1406 12.5158Z" fill="#9F6D49"/>
<path d="M116.859 43.8594C116.167 44.0313 115.625 44.4948 115.021 44.8125C114.474 45.1302 113.901 45.4219 113.266 45.5677C113.094 45.5937 112.953 45.651 112.807 45.7083C112.208 45.9115 111.776 46.4323 111.203 46.6354C111.401 46.6354 111.573 46.6354 111.776 46.6042C112.292 46.5469 112.807 46.5781 113.266 46.2604C113.557 46.0573 113.844 45.8854 114.156 45.7656C114.531 45.625 114.964 45.5365 115.333 45.3646C115.938 45.0729 116.542 44.7865 116.745 44.0625C116.745 43.974 116.828 43.9167 116.859 43.8906V43.8594Z" fill="#9F6D49"/>
<path d="M94.1458 17.4322C93.8281 18.328 93.3437 19.1353 92.6823 19.8333C91.9375 20.6145 91.1042 21.2499 90.2135 21.8541C90.1562 21.8853 90.099 21.9114 90.125 22.0312C90.3542 21.9687 90.4427 21.7968 90.6146 21.6822C91.2187 21.3072 91.9062 21.0155 92.5104 20.5833C93.9479 19.5989 94.7187 17.9791 94.4896 16.302C94.4635 16.7395 94.2604 17.0572 94.1458 17.401V17.4322Z" fill="#9F6D49"/>
<path d="M34.7709 19.7447C34.6875 19.6301 34.5729 19.6301 34.4531 19.6301C33.8542 19.6301 33.3073 19.8333 32.875 20.2655C32.2448 20.9322 31.5261 21.4791 31.2136 22.4062C31.5573 22.0885 31.9011 21.7968 32.2761 21.4791C32.875 20.9895 33.5104 20.6145 34.1979 20.2655C34.4271 20.151 34.6563 19.9739 34.7709 19.7447Z" fill="#9F6D49"/>
<path d="M75.6302 10.2605C76.2292 10.2605 76.8646 10.4324 77.349 9.8855C77.1511 9.53654 76.8073 9.5105 76.4323 9.5105C75.6563 9.5105 74.8802 9.65112 74.1355 9.82821C73.875 9.8855 73.5886 9.91154 73.3334 10.1147C73.3907 10.1147 73.448 10.1147 73.474 10.1459C74.1927 10.2032 74.9115 10.2605 75.6302 10.2917V10.2605Z" fill="#9F6D49"/>
<path d="M121.682 38.1615C121.995 38.1615 122.167 37.9897 122.281 37.7292C122.714 36.7761 123.146 35.823 123.458 34.8386C123.578 34.5209 123.75 34.2292 123.635 33.8855C122.917 35.2709 122.141 36.6303 121.682 38.1615Z" fill="#9F6D49"/>
<path d="M31.2396 19.9739C29.8906 20.0624 29.375 21.0155 28.8854 22.1458C29.7448 21.453 30.4948 20.7551 31.2396 19.9739Z" fill="#9F6D49"/>
<path d="M46.5416 52.3021C46.6875 52.3021 46.7708 52.3906 46.8854 52.4479C47.0885 52.5625 47.3177 52.6511 47.5781 52.5938C47.9479 52.5052 48.2656 52.3021 48.6666 52.3021C48.2656 52.2136 47.9791 51.9531 47.6354 51.8125C47.2604 51.6667 46.5989 51.8698 46.5416 52.2761V52.3021Z" fill="#9F6D49"/>
<path d="M117.344 51.3491C117.057 51.1459 116.828 51.3491 116.568 51.3491C116.37 51.3491 116.313 51.5209 116.37 51.6668C116.453 51.9845 116.599 52.2761 116.859 52.4741C117 52.5626 117.089 52.5626 117.172 52.448C117.344 52.2136 117.401 51.9272 117.458 51.6928C117.458 51.5209 117.458 51.4636 117.318 51.3751L117.344 51.3491Z" fill="#9F6D49"/>
<path d="M66.1823 17.776C66.2969 17.6042 66.3542 17.401 66.4115 17.1979C66.4375 17.0573 66.5 16.8542 66.2969 16.7969C66.0938 16.7396 66.125 16.9375 66.0677 17.0573C65.9532 17.2865 65.8959 17.2865 65.6667 17.1406C65.5209 17.0573 65.5209 16.8802 65.3802 16.7656C65.1771 16.8542 65.1198 17 65.2032 17.1979C65.323 17.401 65.4063 17.6354 65.5209 17.8385C65.75 18.1823 65.9532 18.1563 66.1511 17.776H66.1823Z" fill="#9F6D49"/>
<path d="M32.0417 36.5728C32.0156 36.6041 31.9844 36.6874 31.9844 36.7187C32.0729 37.0051 32.1875 37.2968 32.4479 37.4426C32.5312 37.4999 32.6198 37.4999 32.6771 37.3801C32.8177 37.151 32.9323 36.9218 32.9635 36.6614C32.9635 36.5728 32.9635 36.5155 32.9062 36.4582C32.7344 36.3124 32.1563 36.3437 32.0156 36.5416L32.0417 36.5728Z" fill="#9F6D49"/>
<path d="M61.9635 16.7083C61.875 16.9114 61.9635 17.0572 62.0781 17.1978C62.0781 17.2603 62.1354 17.3176 62.1615 17.3437C62.3906 17.6041 62.5625 17.5468 62.6771 17.2291C62.6771 17.1405 62.7344 17.0833 62.7656 16.9999C62.9062 16.6822 62.7656 16.5051 62.4479 16.5051C62.1927 16.5051 62.0208 16.5624 61.9635 16.6822V16.7083Z" fill="#9F6D49"/>
<path d="M62.8229 48.7188C62.9062 48.5157 63.0208 48.3386 63.0521 48.1095C63.0521 47.849 62.8802 47.823 62.7083 47.7917C62.3906 47.7917 62.2188 47.9063 62.2188 48.1407C62.276 48.3699 62.3646 48.599 62.6198 48.7449C62.7083 48.8022 62.7917 48.8022 62.849 48.7188H62.8229Z" fill="#9F6D49"/>
<path d="M121.021 26.2239C121.135 26.2239 121.307 25.8749 121.307 25.6718C121.307 25.4999 121.161 25.4114 121.021 25.4114C120.76 25.4114 120.62 25.5572 120.62 25.7864C120.62 26.0208 120.818 26.2239 121.021 26.2239Z" fill="#9F6D49"/>
<path d="M35.2291 58.9792C34.9166 58.9792 34.7708 59.0678 34.8021 59.2397C34.8021 59.4428 35.0573 59.7917 35.2031 59.7917C35.3177 59.7917 35.4896 59.5001 35.4896 59.2397C35.4896 59.0417 35.3437 59.0105 35.2604 58.9792H35.2291Z" fill="#9F6D49"/>
<path d="M105.573 44.5521C105.375 44.3803 105 44.323 104.828 44.4375C104.568 44.6407 104.74 44.8438 104.828 45.0469C104.828 45.1042 104.854 45.1615 104.885 45.2188C105.026 45.448 105.172 45.4792 105.344 45.2448C105.49 45.073 105.604 44.8698 105.687 44.6667V44.6094C105.687 44.6094 105.63 44.5521 105.604 44.5521H105.573Z" fill="#E1A141"/>
<path d="M86.6823 54.9897C86.4531 54.9897 86.3646 54.849 86.3958 54.6459C86.4792 54.297 86.3958 54.2084 86.1094 54.0105C85.7917 53.8074 85.4167 53.8647 85.1875 53.8074C84.875 53.8074 84.6719 53.8647 84.4687 53.922C84.0989 54.0678 83.9531 54.3855 84.0677 54.7605C84.0989 54.9063 84.1562 55.0209 84.2396 55.1355C84.3542 55.2813 84.2969 56.0053 84.1562 56.1199C83.8385 56.323 83.8958 56.5834 83.9844 56.8699C84.0417 57.047 84.1562 57.2188 84.2708 57.3647C84.5833 57.797 84.7604 57.797 85.1302 57.3647C85.1875 57.3022 85.2448 57.2188 85.3021 57.2761C85.5052 57.422 85.6458 57.2761 85.8177 57.1876C86.0781 57.047 86.3385 56.9011 86.5937 56.7553C86.8229 56.6667 86.9114 56.4949 87.026 56.2917C87.1406 56.0313 87.0573 55.8022 87.0833 55.5417C87.1406 55.1355 87.0833 54.9897 86.625 54.9636L86.6823 54.9897Z" fill="#E1A141"/>
<path d="M92.625 59.2708C92.651 59.2708 92.7083 59.2135 92.7083 59.1822C92.8854 58.7812 93.0833 58.401 93.026 57.9427C93 57.7656 92.9427 57.6822 92.7708 57.6249C92.3385 57.4791 91.9062 57.5364 91.5052 57.7083C91.1041 57.8541 90.9583 58.1406 91.0468 58.5208C91.0729 58.6614 91.0468 58.7812 90.9895 58.9218C90.6718 59.4739 91.0468 60.1979 91.651 60.1979C91.8489 60.2551 91.9375 60.0781 92.0208 59.9062C92.1666 59.6197 92.2239 59.302 92.5937 59.2395L92.625 59.2708Z" fill="#E1A141"/>
<path d="M86.3385 35.1562C86.1927 35.6458 86.0781 36.1406 86.2239 36.6615C86.3385 37.1823 86.4791 37.7031 86.8229 38.1615C86.8802 37.9896 86.8229 37.875 86.8229 37.7604C86.651 36.9479 86.625 36.1406 87.026 35.3594C87.1718 35.0677 87.1979 34.7812 87.026 34.4896C86.5364 33.625 86.4218 32.6406 86.4791 31.6562C86.4791 31.5417 86.5677 31.4531 86.4218 31.3125C86.25 31.4531 86.1666 31.6302 86.1093 31.8333C85.8177 32.7552 86.0208 33.6823 86.3645 34.5469C86.4531 34.75 86.4531 34.9271 86.3645 35.1562H86.3385Z" fill="#E1A141"/>
<path d="M102.875 53.8072C102.615 54.0937 102.328 54.3853 101.984 54.5885C101.469 54.9062 101.38 55.3072 101.495 55.8593C101.641 56.5833 101.641 57.3333 100.953 57.8228C100.661 58.026 100.578 58.2864 100.724 58.6614C101.01 58.3437 101.323 58.0833 101.583 57.7655C102.042 57.1874 102.188 56.526 102.156 55.802C102.156 55.5416 102.156 55.3385 102.385 55.1666C102.531 55.0468 102.615 54.9322 102.729 54.7864C103.135 54.2708 103.479 53.7499 103.422 53.052C103.365 53.401 103.135 53.6041 102.901 53.8333L102.875 53.8072Z" fill="#E1A141"/>
<path d="M93.8021 61.8439C93.6876 61.8179 93.5417 61.7554 93.4271 61.6981C93.1146 61.5835 92.7969 61.6981 92.5365 61.8439C92.3386 61.9897 92.2813 62.2502 92.3386 62.5106C92.4219 62.8543 92.5938 63.146 92.8282 63.4064C93.1719 63.7814 93.5157 63.7502 93.7709 63.3491C93.974 63.0314 94.1198 62.6825 94.1459 62.1616C94.2032 62.0158 94.0313 61.9012 93.8021 61.8179V61.8439Z" fill="#E1A141"/>
<path d="M98.5104 51.9531C98.4531 51.9531 98.3958 51.9531 98.3646 52.0156C98.3073 52.1563 98.1927 52.2448 98.1927 52.4167C98.1927 52.651 98.1094 52.8229 97.9635 52.9948C97.9062 53.0833 97.8489 53.2292 97.7083 53.1719C97.5625 53.1406 97.5052 53.026 97.4792 52.9115C97.3906 52.6198 97.3073 52.3333 97.3333 51.9844C96.901 51.9844 96.6719 52.2135 96.8177 52.5938C96.9896 53.0833 97.1614 53.6042 97.651 53.9219C97.9635 54.125 98.1354 54.0937 98.2812 53.75C98.3958 53.4896 98.4844 53.2292 98.5989 52.9688C98.6823 52.7083 98.7396 52.4479 98.6823 52.1562C98.6823 52.0417 98.5989 52.0156 98.5104 51.9531Z" fill="#E1A141"/>
<path d="M96.0416 59.5312C95.8125 59.4427 95.6094 59.3281 95.4114 59.3281C94.6927 59.3854 94.6354 59.6458 94.8646 60.1094C94.8906 60.1667 94.9219 60.2552 94.9791 60.3125C95.125 60.4844 95.2656 60.6875 95.526 60.6562C95.8698 60.6562 96.3021 59.9635 96.1562 59.6458C96.1562 59.5885 96.0989 59.5625 96.0416 59.5312Z" fill="#E1A141"/>
<path d="M95.151 38.3645C95.2083 38.2187 95.2083 38.0468 95.151 37.8749C95.0677 38.1614 94.8906 38.3645 94.75 38.5676C94.6041 38.7708 94.4635 38.7708 94.2916 38.5676C94.0625 38.3385 94.0625 38.0468 93.9479 37.7864C93.6875 37.8437 93.5416 37.9895 93.5989 38.2187C93.7135 38.6562 93.8906 39.0885 94.2916 39.3801C94.5208 39.552 94.6927 39.5208 94.8333 39.2603C94.9791 38.9739 95.0937 38.6822 95.1823 38.3958L95.151 38.3645Z" fill="#E1A141"/>
<path d="M102.156 48.5417C102.328 48.6875 102.474 48.6615 102.557 48.4844C102.729 48.1667 102.875 47.8229 102.932 47.4427C102.932 47.3281 102.958 47.1823 102.818 47.125C102.672 47.3281 102.557 47.5313 102.417 47.7344C102.328 47.8802 102.214 47.9063 102.073 47.7344C101.901 47.5625 101.901 47.3021 101.755 47.125C101.526 47.2448 101.469 47.3281 101.526 47.5C101.641 47.8802 101.812 48.2552 102.156 48.5156V48.5417Z" fill="#E1A141"/>
<path d="M85.7344 44.8125C85.8177 44.6979 85.8802 44.5833 85.9635 44.4688C86.1354 44.151 86.0208 43.9167 85.6458 43.8906C85.5313 43.8906 85.4167 43.8906 85.3021 43.8906C85.1042 43.8906 85.0469 44.0052 85.0469 44.2083C85.0469 44.3802 85.1302 44.6094 85.276 44.7865C85.4479 45.0469 85.5625 45.0156 85.7344 44.7865V44.8125Z" fill="#E1A141"/>
<path d="M98.4532 37.9325C98.3386 37.9898 98.2813 38.0471 98.3074 38.1929C98.3646 38.396 98.4532 38.5419 98.5678 38.6825C98.7396 38.8596 98.8282 38.8596 98.9428 38.6252C99.0261 38.4794 99.0574 38.3075 99.198 38.1616C98.9115 37.8179 98.7969 37.7606 98.4219 37.9325H98.4532Z" fill="#E1A141"/>
<path d="M100.26 35.7031C100.005 35.7031 99.776 35.8229 99.776 35.9948C99.776 36.1667 100.031 36.5417 100.177 36.5417C100.292 36.5417 100.464 36.1979 100.464 35.9635C100.464 35.8229 100.406 35.7344 100.26 35.7344V35.7031Z" fill="#E1A141"/>
<path d="M88.0885 47.0989C88 47.0989 87.8854 47.0989 87.9166 47.2135C87.9166 47.3853 87.9166 47.6197 88.1771 47.677C88.3177 47.5624 88.4635 47.4166 88.4062 47.2135C88.4062 47.0989 88.2343 47.0989 88.0885 47.0989Z" fill="#E1A141"/>
<path d="M86.1354 54.6145C86.1354 54.328 85.7344 54.0676 85.3906 54.1249C84.9896 54.2083 84.8437 54.3853 85.0156 54.7603C85.1875 55.1353 85.3906 55.5103 85.5885 55.8593C85.6771 55.9739 85.8489 56.1197 85.9635 55.9739C86.1354 55.7708 86.2812 55.5103 86.1666 55.2499C86.0781 55.0208 86.0208 54.8176 86.1094 54.6145H86.1354Z" fill="#F2D47B"/>
<path d="M92.3645 57.8855C92.1927 57.8855 92.0208 57.8855 92.0208 58.1407C92.0208 58.2292 91.9948 58.3178 91.9062 58.3438C91.7083 58.4011 91.651 58.5782 91.651 58.7813C91.651 58.8959 91.651 59.0105 91.7343 59.1251C91.7916 59.2136 91.8489 59.3022 91.9635 59.3022C92.1093 59.3022 92.1354 59.2136 92.1666 59.1251C92.2239 58.9532 92.3645 58.8386 92.5364 58.7501C92.7395 58.6355 92.8281 58.4324 92.7968 58.2292C92.7968 57.9688 92.5937 57.9115 92.3958 57.8855H92.3645Z" fill="#F2D47B"/>
<path d="M92.9427 61.8439C93.2552 62.047 93.2552 62.047 93.4271 62.4532C93.4844 62.5939 93.5417 62.7397 93.6875 62.8543C93.974 62.396 94.0313 62.073 93.7709 61.7866C93.599 61.6147 93.2865 61.6147 92.9427 61.8439Z" fill="#F2D47B"/>
<path d="M95.8386 59.646C95.6667 59.646 95.4375 59.646 95.4115 59.8804C95.4115 60.021 95.6667 60.4012 95.8125 60.4273C95.9532 60.4273 96.099 60.1981 96.125 59.8804C96.1563 59.7033 96.0417 59.62 95.8698 59.646H95.8386Z" fill="#F2D47B"/>
</svg>
