<svg width="21" height="30" viewBox="0 0 21 30" fill="none" xmlns="http://www.w3.org/2000/svg">
<mask id="mask0_1_19293" style="mask-type:luminance" maskUnits="userSpaceOnUse" x="0" y="0" width="21" height="30">
<path d="M0.494812 0.833496H20.4844V29.8231H0.494812V0.833496Z" fill="white"/>
</mask>
<g mask="url(#mask0_1_19293)">
<path fill-rule="evenodd" clip-rule="evenodd" d="M0.489563 10.6979C0.489563 5.28125 4.88019 0.890625 10.2969 0.890625C15.7135 0.890625 20.1041 5.28125 20.1041 10.6979C20.1041 15.9062 14.6823 22.2813 10.9062 25.8542C10.5625 26.1823 10.026 26.1823 9.68748 25.8542C5.90623 22.2813 0.489563 15.9062 0.489563 10.6979ZM6.5729 23.5938C3.11977 24.099 0.692688 25.2813 0.692688 26.6615C0.692688 28.5 4.99477 29.9896 10.2969 29.9896C15.5989 29.9896 19.8958 28.5 19.8958 26.6615C19.8958 25.2813 17.4739 24.099 14.0156 23.5938L13.9479 23.6719C16.1354 24.1094 17.6094 24.9323 17.6094 25.8698C17.6094 27.2708 14.3333 28.4062 10.2969 28.4062C6.25519 28.4062 2.97915 27.2708 2.97915 25.8698C2.97915 24.9323 4.4531 24.1094 6.64581 23.6719L6.5729 23.5938ZM10.2969 6.20312C7.81248 6.20312 5.80206 8.21354 5.80206 10.6979C5.80206 13.1771 7.81248 15.1875 10.2969 15.1875C12.776 15.1875 14.7864 13.1771 14.7864 10.6979C14.7864 8.21354 12.776 6.20312 10.2969 6.20312Z" fill="#59453C"/>
</g>
</svg>
