<svg width="471" height="376" viewBox="0 0 471 376" fill="none" xmlns="http://www.w3.org/2000/svg">
<mask id="mask0_1_8883" style="mask-type:luminance" maskUnits="userSpaceOnUse" x="0" y="0" width="495" height="376">
<path d="M0 0H494.667V375.812H0V0Z" fill="white"/>
</mask>
<g mask="url(#mask0_1_8883)">
<mask id="mask1_1_8883" style="mask-type:luminance" maskUnits="userSpaceOnUse" x="-23" y="19" width="495" height="376">
<path d="M471.667 19H-23V395H471.667V19Z" fill="white"/>
</mask>
<g mask="url(#mask1_1_8883)">
<mask id="mask2_1_8883" style="mask-type:luminance" maskUnits="userSpaceOnUse" x="350" y="19" width="122" height="83">
<path d="M350.333 19.1875H471.667V101.667H350.333V19.1875Z" fill="white"/>
</mask>
<g mask="url(#mask2_1_8883)">
<mask id="mask3_1_8883" style="mask-type:luminance" maskUnits="userSpaceOnUse" x="300" y="-123" width="295" height="282">
<path d="M496.484 158.229L300.391 -6.60419L398.073 -122.807L594.161 42.0312L496.484 158.229Z" fill="white"/>
</mask>
<g mask="url(#mask3_1_8883)">
<mask id="mask4_1_8883" style="mask-type:luminance" maskUnits="userSpaceOnUse" x="351" y="-102" width="225" height="204">
<path d="M409.333 84.9686C383.912 63.604 378.042 30.7759 386.839 4.0884C381.26 1.88007 375.932 -1.36472 370.844 -5.63556C347.969 -24.8647 344.958 -59.6251 364.193 -82.5001C383.729 -105.74 416.229 -107.547 438.016 -89.2293L550.589 5.4009C579.641 29.8176 581.896 55.8853 565.104 75.8592C549.234 94.7394 521.583 98.1457 502.203 84.3332C476.057 105.12 438.38 109.39 409.333 84.9686Z" fill="white"/>
</mask>
<g mask="url(#mask4_1_8883)">
<mask id="mask5_1_8883" style="mask-type:luminance" maskUnits="userSpaceOnUse" x="350" y="19" width="122" height="83">
<path d="M471.667 19H350.333V101.667H471.667V19Z" fill="white"/>
</mask>
<g mask="url(#mask5_1_8883)">
<mask id="mask6_1_8883" style="mask-type:luminance" maskUnits="userSpaceOnUse" x="350" y="19" width="122" height="83">
<path d="M350.333 19.1875H471.667V101.667H350.333V19.1875Z" fill="white"/>
</mask>
<g mask="url(#mask6_1_8883)">
<mask id="mask7_1_8883" style="mask-type:luminance" maskUnits="userSpaceOnUse" x="300" y="-123" width="295" height="282">
<path d="M496.484 158.229L300.391 -6.60419L398.073 -122.807L594.162 42.0312L496.484 158.229Z" fill="white"/>
</mask>
<g mask="url(#mask7_1_8883)">
<mask id="mask8_1_8883" style="mask-type:luminance" maskUnits="userSpaceOnUse" x="351" y="-102" width="225" height="204">
<path d="M409.333 84.9686C383.912 63.604 378.042 30.7759 386.839 4.0884C381.26 1.88007 375.932 -1.36472 370.844 -5.63556C347.969 -24.8647 344.958 -59.6251 364.193 -82.5001C383.729 -105.74 416.229 -107.547 438.016 -89.2293L550.589 5.4009C579.641 29.8176 581.896 55.8853 565.104 75.8592C549.234 94.7394 521.583 98.1457 502.203 84.3332C476.057 105.12 438.38 109.39 409.333 84.9686Z" fill="white"/>
</mask>
<g mask="url(#mask8_1_8883)">
<path d="M496.484 158.229L300.391 -6.60419L398.073 -122.807L594.162 42.0312L496.484 158.229Z" fill="#F3D6D4"/>
</g>
</g>
</g>
</g>
</g>
</g>
</g>
<mask id="mask9_1_8883" style="mask-type:luminance" maskUnits="userSpaceOnUse" x="350" y="19" width="122" height="83">
<path d="M350.333 19.1875H471.667V101.667H350.333V19.1875Z" fill="white"/>
</mask>
<g mask="url(#mask9_1_8883)">
<mask id="mask10_1_8883" style="mask-type:luminance" maskUnits="userSpaceOnUse" x="300" y="-123" width="295" height="282">
<path d="M496.484 158.229L300.734 -6.31773L398.75 -122.917L594.495 41.6354L496.484 158.229Z" fill="white"/>
</mask>
<g mask="url(#mask10_1_8883)">
<mask id="mask11_1_8883" style="mask-type:luminance" maskUnits="userSpaceOnUse" x="300" y="-123" width="295" height="282">
<path d="M496.484 158.229L300.401 -6.59895L398.078 -122.797L594.161 42.0312L496.484 158.229Z" fill="white"/>
</mask>
<g mask="url(#mask11_1_8883)">
<mask id="mask12_1_8883" style="mask-type:luminance" maskUnits="userSpaceOnUse" x="351" y="-102" width="225" height="204">
<path d="M409.333 84.9738C383.917 63.604 378.047 30.7811 386.844 4.09357C381.266 1.88524 375.938 -1.35956 370.854 -5.63039C347.974 -24.8596 344.969 -59.6148 364.198 -82.4898C383.734 -105.729 416.234 -107.537 438.021 -89.2189L550.589 5.40607C579.635 29.8227 581.891 55.8904 565.104 75.8592C549.234 94.7446 521.583 98.1457 502.203 84.3384C476.063 105.12 438.385 109.39 409.333 84.9738Z" fill="white"/>
</mask>
<g mask="url(#mask12_1_8883)">
<path d="M409.333 84.9739C383.917 63.6041 378.047 30.7812 386.844 4.09366C381.266 1.88532 375.937 -1.35947 370.854 -5.6303C347.974 -24.8595 344.969 -59.6147 364.198 -82.4897C383.734 -105.729 416.234 -107.537 438.021 -89.2188L550.588 5.4062C579.635 29.8229 581.891 55.8906 565.104 75.8593C549.234 94.7447 521.583 98.1458 502.203 84.3385C476.062 105.12 438.385 109.391 409.333 84.9739Z" stroke="#59453C" stroke-width="7.9961"/>
</g>
</g>
</g>
</g>
<mask id="mask13_1_8883" style="mask-type:luminance" maskUnits="userSpaceOnUse" x="449" y="19" width="23" height="246">
<path d="M449 19.1875H471.667V264.333H449V19.1875Z" fill="white"/>
</mask>
<g mask="url(#mask13_1_8883)">
<mask id="mask14_1_8883" style="mask-type:luminance" maskUnits="userSpaceOnUse" x="434" y="3" width="180" height="273">
<path d="M462.687 275.089L434.896 20.4323L585.807 3.9635L613.594 258.62L462.687 275.089Z" fill="white"/>
</mask>
<g mask="url(#mask14_1_8883)">
<mask id="mask15_1_8883" style="mask-type:luminance" maskUnits="userSpaceOnUse" x="449" y="9" width="160" height="255">
<path d="M450.333 161.906C446.734 128.896 465.177 101.115 489.979 87.9114C487.479 82.4583 485.864 76.427 485.146 69.8281C481.901 40.1145 503.75 12.9166 533.458 9.67704C563.64 6.38538 588.38 27.5416 591.463 55.8385L607.417 202.031C611.536 239.76 595.151 260.156 569.213 262.99C544.687 265.661 522.354 249.01 517.896 225.641C484.635 222.589 454.453 199.635 450.333 161.906Z" fill="white"/>
</mask>
<g mask="url(#mask15_1_8883)">
<mask id="mask16_1_8883" style="mask-type:luminance" maskUnits="userSpaceOnUse" x="449" y="19" width="23" height="246">
<path d="M471.667 19H449V264.333H471.667V19Z" fill="white"/>
</mask>
<g mask="url(#mask16_1_8883)">
<mask id="mask17_1_8883" style="mask-type:luminance" maskUnits="userSpaceOnUse" x="448" y="19" width="24" height="246">
<path d="M449 19.1875H471.667V264.333H449V19.1875Z" fill="white"/>
</mask>
<g mask="url(#mask17_1_8883)">
<mask id="mask18_1_8883" style="mask-type:luminance" maskUnits="userSpaceOnUse" x="434" y="3" width="180" height="273">
<path d="M462.687 275.089L434.896 20.4323L585.807 3.9635L613.594 258.62L462.687 275.089Z" fill="white"/>
</mask>
<g mask="url(#mask18_1_8883)">
<mask id="mask19_1_8883" style="mask-type:luminance" maskUnits="userSpaceOnUse" x="449" y="9" width="160" height="255">
<path d="M450.333 161.906C446.734 128.896 465.177 101.115 489.979 87.9114C487.479 82.4583 485.865 76.427 485.146 69.8281C481.901 40.1145 503.75 12.9166 533.458 9.67704C563.641 6.38538 588.38 27.5416 591.464 55.8385L607.417 202.031C611.536 239.76 595.151 260.156 569.214 262.99C544.687 265.661 522.354 249.01 517.896 225.641C484.635 222.589 454.453 199.635 450.333 161.906Z" fill="white"/>
</mask>
<g mask="url(#mask19_1_8883)">
<path d="M462.687 275.089L434.896 20.4323L585.807 3.9635L613.594 258.62L462.687 275.089Z" fill="#F3D6D4"/>
</g>
</g>
</g>
</g>
</g>
</g>
</g>
<mask id="mask20_1_8883" style="mask-type:luminance" maskUnits="userSpaceOnUse" x="449" y="19" width="23" height="246">
<path d="M449 19.1875H471.667V264.333H449V19.1875Z" fill="white"/>
</mask>
<g mask="url(#mask20_1_8883)">
<mask id="mask21_1_8883" style="mask-type:luminance" maskUnits="userSpaceOnUse" x="434" y="4" width="181" height="272">
<path d="M462.687 275.089L434.948 20.875L586.37 4.34894L614.109 258.568L462.687 275.089Z" fill="white"/>
</mask>
<g mask="url(#mask21_1_8883)">
<mask id="mask22_1_8883" style="mask-type:luminance" maskUnits="userSpaceOnUse" x="434" y="3" width="180" height="273">
<path d="M462.687 275.089L434.901 20.4427L585.802 3.97394L613.589 258.625L462.687 275.089Z" fill="white"/>
</mask>
<g mask="url(#mask22_1_8883)">
<mask id="mask23_1_8883" style="mask-type:luminance" maskUnits="userSpaceOnUse" x="449" y="9" width="160" height="255">
<path d="M450.339 161.911C446.734 128.901 465.177 101.12 489.979 87.9166C487.479 82.4635 485.865 76.4375 485.146 69.8333C481.906 40.125 503.75 12.9271 533.458 9.68748C563.641 6.39581 588.375 27.5521 591.464 55.8489L607.417 202.036C611.531 239.76 595.146 260.156 569.208 262.99C544.688 265.661 522.354 249.016 517.896 225.641C484.635 222.589 454.453 199.635 450.339 161.911Z" fill="white"/>
</mask>
<g mask="url(#mask23_1_8883)">
<path d="M450.339 161.912C446.734 128.901 465.177 101.12 489.979 87.9169C487.479 82.4638 485.865 76.4378 485.146 69.8336C481.906 40.1253 503.75 12.9274 533.458 9.68781C563.641 6.39614 588.375 27.5524 591.463 55.8492L607.417 202.037C611.531 239.761 595.146 260.156 569.208 262.99C544.687 265.662 522.354 249.016 517.896 225.641C484.635 222.589 454.453 199.636 450.339 161.912Z" stroke="#59453C" stroke-width="7.99609"/>
</g>
</g>
</g>
</g>
<mask id="mask24_1_8883" style="mask-type:luminance" maskUnits="userSpaceOnUse" x="261" y="19" width="211" height="152">
<path d="M261 19.1875H471.667V171H261V19.1875Z" fill="white"/>
</mask>
<g mask="url(#mask24_1_8883)">
<mask id="mask25_1_8883" style="mask-type:luminance" maskUnits="userSpaceOnUse" x="249" y="0" width="275" height="185">
<path d="M503.75 184.13L249.74 150.958L269.401 0.432251L523.411 33.6093L503.75 184.13Z" fill="white"/>
</mask>
<g mask="url(#mask25_1_8883)">
<mask id="mask26_1_8883" style="mask-type:luminance" maskUnits="userSpaceOnUse" x="262" y="6" width="256" height="165">
<path d="M390.859 169.385C357.932 165.088 335.292 140.604 328.323 113.38C322.432 114.521 316.198 114.667 309.609 113.807C279.974 109.937 258.708 82.2812 262.578 52.6458C266.51 22.5416 292.922 3.50513 321.141 7.18743L466.964 26.2343C504.594 31.151 520.547 51.8905 517.167 77.7603C513.974 102.224 492.516 119.99 468.75 118.802C457.922 150.401 428.49 174.302 390.859 169.385Z" fill="white"/>
</mask>
<g mask="url(#mask26_1_8883)">
<mask id="mask27_1_8883" style="mask-type:luminance" maskUnits="userSpaceOnUse" x="261" y="19" width="211" height="152">
<path d="M471.667 19H261V171H471.667V19Z" fill="white"/>
</mask>
<g mask="url(#mask27_1_8883)">
<mask id="mask28_1_8883" style="mask-type:luminance" maskUnits="userSpaceOnUse" x="261" y="19" width="211" height="152">
<path d="M261 19.1875H471.667V171H261V19.1875Z" fill="white"/>
</mask>
<g mask="url(#mask28_1_8883)">
<mask id="mask29_1_8883" style="mask-type:luminance" maskUnits="userSpaceOnUse" x="249" y="0" width="275" height="185">
<path d="M503.75 184.13L249.74 150.958L269.401 0.432251L523.411 33.6093L503.75 184.13Z" fill="white"/>
</mask>
<g mask="url(#mask29_1_8883)">
<mask id="mask30_1_8883" style="mask-type:luminance" maskUnits="userSpaceOnUse" x="262" y="6" width="256" height="165">
<path d="M390.859 169.385C357.932 165.088 335.292 140.604 328.323 113.38C322.432 114.521 316.198 114.667 309.609 113.807C279.974 109.937 258.708 82.2812 262.578 52.6458C266.51 22.5416 292.922 3.50513 321.141 7.18743L466.963 26.2343C504.594 31.151 520.547 51.8905 517.167 77.7603C513.974 102.224 492.516 119.99 468.75 118.802C457.922 150.401 428.489 174.302 390.859 169.385Z" fill="white"/>
</mask>
<g mask="url(#mask30_1_8883)">
<path d="M503.75 184.13L249.74 150.958L269.401 0.432251L523.411 33.6093L503.75 184.13Z" fill="#F3D6D4"/>
</g>
</g>
</g>
</g>
</g>
</g>
</g>
<mask id="mask31_1_8883" style="mask-type:luminance" maskUnits="userSpaceOnUse" x="261" y="19" width="211" height="152">
<path d="M261 19.1875H471.667V171H261V19.1875Z" fill="white"/>
</mask>
<g mask="url(#mask31_1_8883)">
<mask id="mask32_1_8883" style="mask-type:luminance" maskUnits="userSpaceOnUse" x="250" y="-1" width="274" height="186">
<path d="M503.75 184.13L250.182 151.016L269.906 -0.026062L523.479 33.0937L503.75 184.13Z" fill="white"/>
</mask>
<g mask="url(#mask32_1_8883)">
<mask id="mask33_1_8883" style="mask-type:luminance" maskUnits="userSpaceOnUse" x="249" y="0" width="275" height="185">
<path d="M503.75 184.13L249.75 150.958L269.411 0.4375L523.411 33.6094L503.75 184.13Z" fill="white"/>
</mask>
<g mask="url(#mask33_1_8883)">
<mask id="mask34_1_8883" style="mask-type:luminance" maskUnits="userSpaceOnUse" x="262" y="6" width="256" height="165">
<path d="M390.865 169.385C357.938 165.088 335.302 140.604 328.333 113.38C322.443 114.526 316.203 114.667 309.62 113.807C279.984 109.937 258.719 82.2812 262.589 52.6509C266.521 22.5468 292.927 3.51032 321.151 7.19261L466.969 26.2395C504.594 31.1562 520.547 51.8957 517.167 77.7655C513.969 102.224 492.516 119.995 468.75 118.802C457.927 150.396 428.495 174.302 390.865 169.385Z" fill="white"/>
</mask>
<g mask="url(#mask34_1_8883)">
<path d="M390.865 169.385C357.937 165.088 335.302 140.604 328.333 113.38C322.443 114.526 316.203 114.667 309.62 113.807C279.984 109.937 258.719 82.2811 262.588 52.6509C266.521 22.5467 292.927 3.51021 321.151 7.19249L466.969 26.2394C504.594 31.156 520.547 51.8956 517.167 77.7654C513.969 102.224 492.516 119.995 468.75 118.802C457.927 150.396 428.495 174.302 390.865 169.385Z" stroke="#59453C" stroke-width="7.9961"/>
</g>
</g>
</g>
</g>
<mask id="mask35_1_8883" style="mask-type:luminance" maskUnits="userSpaceOnUse" x="311" y="19" width="161" height="122">
<path d="M311.667 19.1875H471.667V140.333H311.667V19.1875Z" fill="white"/>
</mask>
<g mask="url(#mask35_1_8883)">
<mask id="mask36_1_8883" style="mask-type:luminance" maskUnits="userSpaceOnUse" x="287" y="-142" width="306" height="306">
<path d="M537.776 -141.391L592.74 108.812L342.536 163.776L287.573 -86.4271L537.776 -141.391Z" fill="white"/>
</mask>
<g mask="url(#mask36_1_8883)">
<mask id="mask37_1_8883" style="mask-type:luminance" maskUnits="userSpaceOnUse" x="312" y="-117" width="257" height="257">
<path d="M565.255 -16.2866C550.078 -85.3803 481.766 -129.083 412.672 -113.906C343.583 -98.7293 299.875 -30.4168 315.052 38.6718C330.229 107.766 398.547 151.474 467.635 136.297C536.729 121.12 580.432 52.802 565.255 -16.2866Z" fill="white"/>
</mask>
<g mask="url(#mask37_1_8883)">
<mask id="mask38_1_8883" style="mask-type:luminance" maskUnits="userSpaceOnUse" x="311" y="19" width="161" height="122">
<path d="M471.667 19H311.667V140.333H471.667V19Z" fill="white"/>
</mask>
<g mask="url(#mask38_1_8883)">
<mask id="mask39_1_8883" style="mask-type:luminance" maskUnits="userSpaceOnUse" x="311" y="19" width="161" height="122">
<path d="M311.667 19.1875H471.667V140.333H311.667V19.1875Z" fill="white"/>
</mask>
<g mask="url(#mask39_1_8883)">
<mask id="mask40_1_8883" style="mask-type:luminance" maskUnits="userSpaceOnUse" x="287" y="-142" width="306" height="306">
<path d="M537.776 -141.391L592.74 108.812L342.536 163.776L287.573 -86.4271L537.776 -141.391Z" fill="white"/>
</mask>
<g mask="url(#mask40_1_8883)">
<mask id="mask41_1_8883" style="mask-type:luminance" maskUnits="userSpaceOnUse" x="312" y="-117" width="257" height="257">
<path d="M565.255 -16.2866C550.078 -85.3803 481.766 -129.083 412.672 -113.906C343.583 -98.7293 299.875 -30.4168 315.052 38.6718C330.229 107.766 398.547 151.474 467.635 136.297C536.729 121.12 580.432 52.802 565.255 -16.2866Z" fill="white"/>
</mask>
<g mask="url(#mask41_1_8883)">
<path d="M537.776 -141.391L592.74 108.812L342.536 163.776L287.573 -86.4271L537.776 -141.391Z" fill="#F3D6D4"/>
</g>
</g>
</g>
</g>
</g>
</g>
</g>
<mask id="mask42_1_8883" style="mask-type:luminance" maskUnits="userSpaceOnUse" x="61" y="19" width="258" height="86">
<path d="M61 19.1875H318.333V104.333H61V19.1875Z" fill="white"/>
</mask>
<g mask="url(#mask42_1_8883)">
<mask id="mask43_1_8883" style="mask-type:luminance" maskUnits="userSpaceOnUse" x="49" y="-67" width="275" height="185">
<path d="M303.667 117.573L49.6562 84.3958L69.3177 -66.1302L323.328 -32.9532L303.667 117.573Z" fill="white"/>
</mask>
<g mask="url(#mask43_1_8883)">
<mask id="mask44_1_8883" style="mask-type:luminance" maskUnits="userSpaceOnUse" x="62" y="-60" width="256" height="164">
<path d="M190.776 102.828C157.849 98.5262 135.213 74.0418 128.24 46.8178C122.349 47.9637 116.115 48.1043 109.526 47.2449C79.8906 43.3751 58.6249 15.7189 62.4999 -13.9165C66.427 -44.0207 92.8385 -63.0572 121.062 -59.3697L266.88 -40.328C304.51 -35.4113 320.464 -14.6718 317.083 11.2032C313.891 35.6616 292.432 53.4324 268.667 52.2397C257.844 83.8387 228.406 107.74 190.776 102.828Z" fill="white"/>
</mask>
<g mask="url(#mask44_1_8883)">
<mask id="mask45_1_8883" style="mask-type:luminance" maskUnits="userSpaceOnUse" x="61" y="19" width="258" height="86">
<path d="M318.333 19H61V104.333H318.333V19Z" fill="white"/>
</mask>
<g mask="url(#mask45_1_8883)">
<mask id="mask46_1_8883" style="mask-type:luminance" maskUnits="userSpaceOnUse" x="61" y="19" width="258" height="86">
<path d="M61 19.1875H318.333V104.333H61V19.1875Z" fill="white"/>
</mask>
<g mask="url(#mask46_1_8883)">
<mask id="mask47_1_8883" style="mask-type:luminance" maskUnits="userSpaceOnUse" x="49" y="-67" width="275" height="185">
<path d="M303.667 117.573L49.6562 84.3958L69.3177 -66.1302L323.328 -32.9532L303.667 117.573Z" fill="white"/>
</mask>
<g mask="url(#mask47_1_8883)">
<mask id="mask48_1_8883" style="mask-type:luminance" maskUnits="userSpaceOnUse" x="62" y="-60" width="256" height="164">
<path d="M190.776 102.828C157.849 98.5262 135.213 74.0418 128.24 46.8178C122.349 47.9637 116.115 48.1043 109.526 47.2449C79.8906 43.3751 58.6249 15.7189 62.4999 -13.9165C66.427 -44.0207 92.8385 -63.0572 121.062 -59.3697L266.88 -40.328C304.51 -35.4113 320.464 -14.6718 317.083 11.2032C313.891 35.6616 292.432 53.4324 268.667 52.2397C257.844 83.8387 228.406 107.74 190.776 102.828Z" fill="white"/>
</mask>
<g mask="url(#mask48_1_8883)">
<path d="M303.667 117.573L49.6562 84.3958L69.3177 -66.1302L323.328 -32.9532L303.667 117.573Z" fill="#F3D6D4"/>
</g>
</g>
</g>
</g>
</g>
</g>
</g>
<mask id="mask49_1_8883" style="mask-type:luminance" maskUnits="userSpaceOnUse" x="61" y="19" width="258" height="86">
<path d="M61 19.1875H318.333V104.333H61V19.1875Z" fill="white"/>
</mask>
<g mask="url(#mask49_1_8883)">
<mask id="mask50_1_8883" style="mask-type:luminance" maskUnits="userSpaceOnUse" x="50" y="-67" width="274" height="185">
<path d="M303.667 117.573L50.0989 84.4531L69.8229 -66.5886L323.396 -33.4688L303.667 117.573Z" fill="white"/>
</mask>
<g mask="url(#mask50_1_8883)">
<mask id="mask51_1_8883" style="mask-type:luminance" maskUnits="userSpaceOnUse" x="49" y="-67" width="275" height="185">
<path d="M303.672 117.568L49.6666 84.3958L69.3281 -66.125L323.328 -32.9531L303.672 117.568Z" fill="white"/>
</mask>
<g mask="url(#mask51_1_8883)">
<mask id="mask52_1_8883" style="mask-type:luminance" maskUnits="userSpaceOnUse" x="62" y="-60" width="256" height="164">
<path d="M190.781 102.823C157.854 98.5262 135.219 74.0418 128.25 46.8178C122.359 47.9636 116.12 48.1043 109.536 47.2449C79.901 43.3751 58.6354 15.7188 62.5052 -13.9114C66.4374 -44.0155 92.8437 -63.052 121.068 -59.3645L266.885 -40.3228C304.516 -35.4062 320.464 -14.6666 317.083 11.2032C313.891 35.6616 292.432 53.4324 268.667 52.2397C257.844 83.8387 228.411 107.74 190.781 102.823Z" fill="white"/>
</mask>
<g mask="url(#mask52_1_8883)">
<path d="M190.781 102.823C157.854 98.5259 135.219 74.0415 128.25 46.8176C122.359 47.9634 116.12 48.104 109.536 47.2446C79.9009 43.3749 58.6352 15.7186 62.505 -13.9116C66.4373 -44.0158 92.8436 -63.0523 121.068 -59.3648L266.885 -40.3231C304.516 -35.4065 320.463 -14.6669 317.083 11.2029C313.891 35.6613 292.432 53.4321 268.667 52.2394C257.844 83.8384 228.411 107.739 190.781 102.823Z" stroke="#59453C" stroke-width="7.9961"/>
</g>
</g>
</g>
</g>
<mask id="mask53_1_8883" style="mask-type:luminance" maskUnits="userSpaceOnUse" x="171" y="19" width="258" height="39">
<path d="M171.667 19.1875H429V57.6667H171.667V19.1875Z" fill="white"/>
</mask>
<g mask="url(#mask53_1_8883)">
<mask id="mask54_1_8883" style="mask-type:luminance" maskUnits="userSpaceOnUse" x="148" y="-224" width="306" height="306">
<path d="M398.37 -223.219L453.333 26.9844L203.13 81.9427L148.167 -168.26L398.37 -223.219Z" fill="white"/>
</mask>
<g mask="url(#mask54_1_8883)">
<mask id="mask55_1_8883" style="mask-type:luminance" maskUnits="userSpaceOnUse" x="172" y="-199" width="257" height="257">
<path d="M425.854 -98.1199C410.677 -167.214 342.359 -210.917 273.271 -195.74C204.177 -180.563 160.469 -112.25 175.651 -43.1563C190.828 25.9322 259.141 69.6405 328.229 54.4634C397.323 39.2864 441.031 -29.0261 425.854 -98.1199Z" fill="white"/>
</mask>
<g mask="url(#mask55_1_8883)">
<mask id="mask56_1_8883" style="mask-type:luminance" maskUnits="userSpaceOnUse" x="171" y="19" width="258" height="39">
<path d="M429 19H171.667V57.6667H429V19Z" fill="white"/>
</mask>
<g mask="url(#mask56_1_8883)">
<mask id="mask57_1_8883" style="mask-type:luminance" maskUnits="userSpaceOnUse" x="171" y="19" width="258" height="39">
<path d="M171.667 19.1875H429V57.6667H171.667V19.1875Z" fill="white"/>
</mask>
<g mask="url(#mask57_1_8883)">
<mask id="mask58_1_8883" style="mask-type:luminance" maskUnits="userSpaceOnUse" x="148" y="-224" width="306" height="306">
<path d="M398.37 -223.219L453.333 26.9844L203.13 81.9427L148.167 -168.26L398.37 -223.219Z" fill="white"/>
</mask>
<g mask="url(#mask58_1_8883)">
<mask id="mask59_1_8883" style="mask-type:luminance" maskUnits="userSpaceOnUse" x="172" y="-199" width="257" height="257">
<path d="M425.854 -98.1199C410.677 -167.214 342.359 -210.917 273.271 -195.74C204.177 -180.563 160.469 -112.25 175.651 -43.1563C190.828 25.9322 259.141 69.6405 328.229 54.4634C397.323 39.2864 441.031 -29.0261 425.854 -98.1199Z" fill="white"/>
</mask>
<g mask="url(#mask59_1_8883)">
<path d="M398.37 -223.219L453.333 26.9844L203.13 81.9427L148.167 -168.26L398.37 -223.219Z" fill="#F3D6D4"/>
</g>
</g>
</g>
</g>
</g>
</g>
</g>
</g>
</g>
</svg>
