<svg width="308" height="313" viewBox="0 0 308 313" fill="none" xmlns="http://www.w3.org/2000/svg">
<mask id="mask0_1_8494" style="mask-type:luminance" maskUnits="userSpaceOnUse" x="0" y="0" width="308" height="323">
<path d="M308 0H0V322.667H308V0Z" fill="white"/>
</mask>
<g mask="url(#mask0_1_8494)">
<mask id="mask1_1_8494" style="mask-type:luminance" maskUnits="userSpaceOnUse" x="40" y="0" width="174" height="94">
<path d="M40 0.1875H213.333V93.3333H40V0.1875Z" fill="white"/>
</mask>
<g mask="url(#mask1_1_8494)">
<mask id="mask2_1_8494" style="mask-type:luminance" maskUnits="userSpaceOnUse" x="24" y="-86" width="235" height="224">
<path d="M258.094 7.65623L101.406 137.818L24.2708 44.9687L180.958 -85.1979L258.094 7.65623Z" fill="white"/>
</mask>
<g mask="url(#mask2_1_8494)">
<mask id="mask3_1_8494" style="mask-type:luminance" maskUnits="userSpaceOnUse" x="41" y="-71" width="172" height="164">
<path d="M188.453 65.5052C168.141 82.3802 141.625 82.3386 121.984 71.6823C119.469 75.7344 116.177 79.4479 112.115 82.8229C93.8333 98.0104 66.2135 95.4531 51.026 77.1771C35.5989 58.6042 38.7812 32.9167 56.1875 18.4531L146.141 -56.2708C169.349 -75.5573 190.068 -73.6406 203.328 -57.6823C215.859 -42.5937 214.62 -20.4739 201.073 -7.26041C213.646 16.1354 211.667 46.224 188.453 65.5052Z" fill="white"/>
</mask>
<g mask="url(#mask3_1_8494)">
<mask id="mask4_1_8494" style="mask-type:luminance" maskUnits="userSpaceOnUse" x="40" y="0" width="174" height="94">
<path d="M213.333 0H40V93.3333H213.333V0Z" fill="white"/>
</mask>
<g mask="url(#mask4_1_8494)">
<mask id="mask5_1_8494" style="mask-type:luminance" maskUnits="userSpaceOnUse" x="40" y="0" width="174" height="94">
<path d="M40 0.1875H213.333V93.3333H40V0.1875Z" fill="white"/>
</mask>
<g mask="url(#mask5_1_8494)">
<mask id="mask6_1_8494" style="mask-type:luminance" maskUnits="userSpaceOnUse" x="24" y="-86" width="235" height="224">
<path d="M258.094 7.65623L101.406 137.818L24.2708 44.9687L180.958 -85.1979L258.094 7.65623Z" fill="white"/>
</mask>
<g mask="url(#mask6_1_8494)">
<mask id="mask7_1_8494" style="mask-type:luminance" maskUnits="userSpaceOnUse" x="41" y="-71" width="172" height="164">
<path d="M188.453 65.5052C168.141 82.3802 141.625 82.3386 121.984 71.6823C119.469 75.7344 116.177 79.4479 112.115 82.8229C93.8333 98.0104 66.2135 95.4531 51.026 77.1771C35.5989 58.6042 38.7812 32.9167 56.1875 18.4531L146.141 -56.2708C169.349 -75.5573 190.068 -73.6406 203.328 -57.6823C215.859 -42.5937 214.62 -20.4739 201.073 -7.26041C213.646 16.1354 211.667 46.224 188.453 65.5052Z" fill="white"/>
</mask>
<g mask="url(#mask7_1_8494)">
<path d="M258.094 7.65623L101.406 137.818L24.2708 44.9687L180.958 -85.1979L258.094 7.65623Z" fill="#F3D6D4"/>
</g>
</g>
</g>
</g>
</g>
</g>
</g>
<mask id="mask8_1_8494" style="mask-type:luminance" maskUnits="userSpaceOnUse" x="40" y="0" width="174" height="94">
<path d="M40 0.1875H213.333V93.3333H40V0.1875Z" fill="white"/>
</mask>
<g mask="url(#mask8_1_8494)">
<mask id="mask9_1_8494" style="mask-type:luminance" maskUnits="userSpaceOnUse" x="24" y="-86" width="235" height="224">
<path d="M258.094 7.65625L101.677 137.594L24.2812 44.4219L180.693 -85.5156L258.094 7.65625Z" fill="white"/>
</mask>
<g mask="url(#mask9_1_8494)">
<mask id="mask10_1_8494" style="mask-type:luminance" maskUnits="userSpaceOnUse" x="24" y="-86" width="235" height="224">
<path d="M258.094 7.651L101.411 137.812L24.2812 44.9635L180.958 -85.1927L258.094 7.651Z" fill="white"/>
</mask>
<g mask="url(#mask10_1_8494)">
<mask id="mask11_1_8494" style="mask-type:luminance" maskUnits="userSpaceOnUse" x="41" y="-71" width="172" height="164">
<path d="M188.453 65.5C168.146 82.375 141.63 82.3334 121.99 71.6771C119.474 75.7292 116.182 79.4427 112.12 82.8177C93.8385 98.0052 66.2187 95.448 51.0365 77.1719C35.6094 58.599 38.7865 32.9115 56.1979 18.448L146.141 -56.2708C169.354 -75.552 190.073 -73.6354 203.328 -57.677C215.859 -42.5937 214.62 -20.4739 201.078 -7.26038C213.646 16.1355 211.667 46.2188 188.453 65.5Z" fill="white"/>
</mask>
<g mask="url(#mask11_1_8494)">
<path d="M188.453 65.5C168.146 82.375 141.63 82.3334 121.99 71.6772C119.474 75.7292 116.182 79.4428 112.12 82.8178C93.8386 98.0053 66.2188 95.448 51.0366 77.172C35.6095 58.5991 38.7865 32.9116 56.198 18.448L146.141 -56.2707C169.354 -75.552 190.073 -73.6353 203.328 -57.677C215.859 -42.5937 214.62 -20.4739 201.078 -7.26035C213.646 16.1355 211.667 46.2188 188.453 65.5Z" stroke="#59453C" stroke-width="7.99609"/>
</g>
</g>
</g>
</g>
<mask id="mask12_1_8494" style="mask-type:luminance" maskUnits="userSpaceOnUse" x="0" y="9" width="66" height="166">
<path d="M0 9.33331H65.3333V174.667H0V9.33331Z" fill="white"/>
</mask>
<g mask="url(#mask12_1_8494)">
<mask id="mask13_1_8494" style="mask-type:luminance" maskUnits="userSpaceOnUse" x="-123" y="-5" width="235" height="224">
<path d="M111.099 88.3229L-45.5885 218.49L-122.724 125.635L33.9635 -4.53125L111.099 88.3229Z" fill="white"/>
</mask>
<g mask="url(#mask13_1_8494)">
<mask id="mask14_1_8494" style="mask-type:luminance" maskUnits="userSpaceOnUse" x="-106" y="10" width="172" height="164">
<path d="M41.4583 146.172C21.1458 163.047 -5.36979 163.005 -25.0104 152.349C-27.526 156.401 -30.8177 160.115 -34.8802 163.49C-53.1562 178.677 -80.7812 176.125 -95.9688 157.844C-111.396 139.271 -108.214 113.583 -90.8073 99.1198L-0.854164 24.3958C22.3594 5.11457 43.0729 7.02603 56.3333 22.9896C68.8646 38.0781 67.625 60.1927 54.0833 73.4062C66.651 96.8021 64.6719 126.891 41.4583 146.172Z" fill="white"/>
</mask>
<g mask="url(#mask14_1_8494)">
<mask id="mask15_1_8494" style="mask-type:luminance" maskUnits="userSpaceOnUse" x="0" y="9" width="66" height="166">
<path d="M65.3333 9.33331H0V174.667H65.3333V9.33331Z" fill="white"/>
</mask>
<g mask="url(#mask15_1_8494)">
<mask id="mask16_1_8494" style="mask-type:luminance" maskUnits="userSpaceOnUse" x="0" y="9" width="66" height="166">
<path d="M0 9.33331H65.3333V174.667H0V9.33331Z" fill="white"/>
</mask>
<g mask="url(#mask16_1_8494)">
<mask id="mask17_1_8494" style="mask-type:luminance" maskUnits="userSpaceOnUse" x="-123" y="-5" width="235" height="224">
<path d="M111.099 88.323L-45.5885 218.49L-122.724 125.635L33.9635 -4.53119L111.099 88.323Z" fill="white"/>
</mask>
<g mask="url(#mask17_1_8494)">
<mask id="mask18_1_8494" style="mask-type:luminance" maskUnits="userSpaceOnUse" x="-106" y="10" width="172" height="164">
<path d="M41.4583 146.172C21.1458 163.047 -5.36979 163.005 -25.0104 152.349C-27.526 156.401 -30.8177 160.115 -34.8802 163.49C-53.1562 178.677 -80.7812 176.125 -95.9688 157.844C-111.396 139.271 -108.214 113.583 -90.8073 99.1198L-0.854164 24.3959C22.3594 5.11463 43.0729 7.02609 56.3333 22.9896C68.8646 38.0782 67.625 60.1928 54.0833 73.4063C66.651 96.8021 64.6719 126.891 41.4583 146.172Z" fill="white"/>
</mask>
<g mask="url(#mask18_1_8494)">
<path d="M111.099 88.323L-45.5885 218.49L-122.724 125.635L33.9635 -4.53119L111.099 88.323Z" fill="#F3D6D4"/>
</g>
</g>
</g>
</g>
</g>
</g>
</g>
<mask id="mask19_1_8494" style="mask-type:luminance" maskUnits="userSpaceOnUse" x="0" y="9" width="66" height="166">
<path d="M0 9.33331H65.3333V174.667H0V9.33331Z" fill="white"/>
</mask>
<g mask="url(#mask19_1_8494)">
<mask id="mask20_1_8494" style="mask-type:luminance" maskUnits="userSpaceOnUse" x="-123" y="-5" width="235" height="224">
<path d="M111.099 88.3229L-45.3177 218.26L-122.714 125.094L33.6979 -4.84375L111.099 88.3229Z" fill="white"/>
</mask>
<g mask="url(#mask20_1_8494)">
<mask id="mask21_1_8494" style="mask-type:luminance" maskUnits="userSpaceOnUse" x="-123" y="-5" width="235" height="224">
<path d="M111.099 88.3229L-45.5834 218.479L-122.714 125.63L33.9687 -4.52606L111.099 88.3229Z" fill="white"/>
</mask>
<g mask="url(#mask21_1_8494)">
<mask id="mask22_1_8494" style="mask-type:luminance" maskUnits="userSpaceOnUse" x="-106" y="10" width="172" height="164">
<path d="M41.4635 146.172C21.151 163.042 -5.36459 163 -25.0052 152.344C-27.5208 156.401 -30.8125 160.115 -34.875 163.49C-53.1511 178.672 -80.7761 176.12 -95.9583 157.839C-111.385 139.271 -108.208 113.583 -90.7969 99.1198L-0.854172 24.3958C22.3594 5.11458 43.0781 7.03125 56.3333 22.9896C68.8646 38.0781 67.625 60.1927 54.0833 73.4062C66.651 96.8021 64.6719 126.885 41.4635 146.172Z" fill="white"/>
</mask>
<g mask="url(#mask22_1_8494)">
<path d="M41.4636 146.172C21.1511 163.042 -5.36451 163 -25.0051 152.344C-27.5207 156.401 -30.8124 160.115 -34.8749 163.49C-53.1509 178.672 -80.7759 176.12 -95.9582 157.839C-111.385 139.271 -108.208 113.583 -90.7968 99.1198L-0.854141 24.3958C22.3594 5.1146 43.0781 7.03125 56.3333 22.9896C68.8646 38.0781 67.625 60.1927 54.0834 73.4062C66.6511 96.802 64.6719 126.885 41.4636 146.172Z" stroke="#59453C" stroke-width="7.99609"/>
</g>
</g>
</g>
</g>
<mask id="mask23_1_8494" style="mask-type:luminance" maskUnits="userSpaceOnUse" x="0" y="0" width="103" height="91">
<path d="M0 0.1875H102.667V90.6667H0V0.1875Z" fill="white"/>
</mask>
<g mask="url(#mask23_1_8494)">
<mask id="mask24_1_8494" style="mask-type:luminance" maskUnits="userSpaceOnUse" x="-140" y="-152" width="280" height="280">
<path d="M-36.3959 -151.156L139.203 -47.9167L35.9635 127.682L-139.635 24.4427L-36.3959 -151.156Z" fill="white"/>
</mask>
<g mask="url(#mask24_1_8494)">
<mask id="mask25_1_8494" style="mask-type:luminance" maskUnits="userSpaceOnUse" x="-103" y="-114" width="205" height="205">
<path d="M51.4062 -99.5366C2.91665 -128.042 -59.5052 -111.844 -88.0156 -63.3543C-116.521 -14.8647 -100.323 47.5572 -51.8334 76.0624C-3.34377 104.573 59.0781 88.3748 87.5833 39.8853C116.094 -8.60432 99.8958 -71.0262 51.4062 -99.5366Z" fill="white"/>
</mask>
<g mask="url(#mask25_1_8494)">
<mask id="mask26_1_8494" style="mask-type:luminance" maskUnits="userSpaceOnUse" x="0" y="0" width="103" height="91">
<path d="M102.667 0H0V90.6667H102.667V0Z" fill="white"/>
</mask>
<g mask="url(#mask26_1_8494)">
<mask id="mask27_1_8494" style="mask-type:luminance" maskUnits="userSpaceOnUse" x="0" y="0" width="103" height="91">
<path d="M0 0.1875H102.667V90.6667H0V0.1875Z" fill="white"/>
</mask>
<g mask="url(#mask27_1_8494)">
<mask id="mask28_1_8494" style="mask-type:luminance" maskUnits="userSpaceOnUse" x="-140" y="-152" width="280" height="280">
<path d="M-36.3959 -151.156L139.203 -47.9167L35.9635 127.682L-139.635 24.4427L-36.3959 -151.156Z" fill="white"/>
</mask>
<g mask="url(#mask28_1_8494)">
<mask id="mask29_1_8494" style="mask-type:luminance" maskUnits="userSpaceOnUse" x="-103" y="-114" width="205" height="205">
<path d="M51.4062 -99.5366C2.91665 -128.042 -59.5052 -111.844 -88.0156 -63.3543C-116.521 -14.8647 -100.323 47.5572 -51.8334 76.0624C-3.34377 104.573 59.0781 88.3748 87.5833 39.8853C116.094 -8.60432 99.8958 -71.0262 51.4062 -99.5366Z" fill="white"/>
</mask>
<g mask="url(#mask29_1_8494)">
<path d="M-36.3959 -151.156L139.203 -47.9167L35.9635 127.682L-139.635 24.4427L-36.3959 -151.156Z" fill="#F3D6D4"/>
</g>
</g>
</g>
</g>
</g>
</g>
</g>
</g>
</svg>
