<svg width="228" height="393" viewBox="0 0 228 393" fill="none" xmlns="http://www.w3.org/2000/svg">
<mask id="mask0_11_20" style="mask-type:luminance" maskUnits="userSpaceOnUse" x="0" y="0" width="72" height="130">
<path d="M0 0H72V129.729H0V0Z" fill="white"/>
</mask>
<g mask="url(#mask0_11_20)">
<mask id="mask1_11_20" style="mask-type:luminance" maskUnits="userSpaceOnUse" x="-145" y="-68" width="267" height="249">
<path d="M121.552 40.4478L-61 180.828L-144.188 72.651L38.3646 -67.7292L121.552 40.4478Z" fill="white"/>
</mask>
<g mask="url(#mask1_11_20)">
<mask id="mask2_11_20" style="mask-type:luminance" maskUnits="userSpaceOnUse" x="-126" y="-51" width="198" height="181">
<path d="M40.4167 102.838C16.7552 121.036 -13.1979 119.864 -34.9323 106.989C-37.9531 111.458 -41.8281 115.515 -46.5573 119.156C-67.8593 135.531 -98.9531 131.474 -115.333 110.172C-131.969 88.5363 -127.286 59.6509 -107 44.0519L-2.2031 -36.5366C24.8438 -57.3335 48.1667 -54.2866 62.4636 -35.6929C75.9844 -18.1147 73.6407 6.82277 57.7761 21.1717C70.9792 48.1353 67.4636 82.0415 40.4167 102.838Z" fill="white"/>
</mask>
<g mask="url(#mask2_11_20)">
<mask id="mask3_11_20" style="mask-type:luminance" maskUnits="userSpaceOnUse" x="0" y="-1" width="72" height="131">
<path d="M72 -0.9375H3.05176e-05V129.729H72V-0.9375Z" fill="white"/>
</mask>
<g mask="url(#mask3_11_20)">
<mask id="mask4_11_20" style="mask-type:luminance" maskUnits="userSpaceOnUse" x="0" y="0" width="72" height="130">
<path d="M3.05176e-05 0H72V129.729H3.05176e-05V0Z" fill="white"/>
</mask>
<g mask="url(#mask4_11_20)">
<mask id="mask5_11_20" style="mask-type:luminance" maskUnits="userSpaceOnUse" x="-145" y="-68" width="267" height="249">
<path d="M121.552 40.4478L-61 180.828L-144.187 72.651L38.3646 -67.7292L121.552 40.4478Z" fill="white"/>
</mask>
<g mask="url(#mask5_11_20)">
<mask id="mask6_11_20" style="mask-type:luminance" maskUnits="userSpaceOnUse" x="-126" y="-51" width="198" height="181">
<path d="M40.4167 102.838C16.7552 121.036 -13.1979 119.864 -34.9323 106.989C-37.9531 111.458 -41.8281 115.515 -46.5573 119.156C-67.8593 135.531 -98.9531 131.474 -115.333 110.172C-131.969 88.5363 -127.286 59.6509 -107 44.0519L-2.2031 -36.5366C24.8438 -57.3335 48.1667 -54.2866 62.4636 -35.6929C75.9844 -18.1147 73.6407 6.82277 57.7761 21.1717C70.9792 48.1353 67.4636 82.0415 40.4167 102.838Z" fill="white"/>
</mask>
<g mask="url(#mask6_11_20)">
<path d="M121.552 40.4478L-61 180.828L-144.187 72.651L38.3646 -67.7292L121.552 40.4478Z" fill="#F3D6D4"/>
</g>
</g>
</g>
</g>
</g>
</g>
</g>
<mask id="mask7_11_20" style="mask-type:luminance" maskUnits="userSpaceOnUse" x="0" y="0" width="72" height="130">
<path d="M0 0H72V129.729H0V0Z" fill="white"/>
</mask>
<g mask="url(#mask7_11_20)">
<mask id="mask8_11_20" style="mask-type:luminance" maskUnits="userSpaceOnUse" x="-145" y="-69" width="267" height="250">
<path d="M121.552 40.4478L-60.6823 180.583L-144.156 72.0363L38.0833 -68.0991L121.552 40.4478Z" fill="white"/>
</mask>
<g mask="url(#mask8_11_20)">
<mask id="mask9_11_20" style="mask-type:luminance" maskUnits="userSpaceOnUse" x="-145" y="-68" width="267" height="249">
<path d="M121.552 40.4476L-60.9948 180.823L-144.177 72.6455L38.3698 -67.7295L121.552 40.4476Z" fill="white"/>
</mask>
<g mask="url(#mask9_11_20)">
<mask id="mask10_11_20" style="mask-type:luminance" maskUnits="userSpaceOnUse" x="-126" y="-51" width="198" height="181">
<path d="M40.4219 102.833C16.7552 121.031 -13.1927 119.859 -34.927 106.984C-37.9479 111.453 -41.8229 115.51 -46.552 119.151C-67.8489 135.526 -98.9479 131.469 -115.323 110.172C-131.958 88.5362 -127.276 59.6456 -106.995 44.0518L-2.19788 -36.5367C24.8438 -57.3284 48.1667 -54.2867 62.4636 -35.6929C75.9844 -18.1148 73.6407 6.82268 57.7761 21.1716C70.9792 48.1352 67.4636 82.0414 40.4219 102.833Z" fill="white"/>
</mask>
<g mask="url(#mask10_11_20)">
<path d="M40.422 102.833C16.7553 121.031 -13.1926 119.859 -34.927 106.984C-37.9478 111.453 -41.8228 115.51 -46.552 119.151C-67.8488 135.526 -98.9478 131.469 -115.323 110.172C-131.958 88.5363 -127.276 59.6457 -106.995 44.0519L-2.19789 -36.5366C24.8438 -57.3283 48.1667 -54.2866 62.4636 -35.6929C75.9844 -18.1148 73.6407 6.82271 57.7761 21.1717C70.9792 48.1352 67.4636 82.0414 40.422 102.833Z" stroke="#59453C" stroke-width="7.9961"/>
</g>
</g>
</g>
</g>
<mask id="mask11_11_20" style="mask-type:luminance" maskUnits="userSpaceOnUse" x="0" y="0" width="228" height="84">
<path d="M0 0H228V83.0625H0V0Z" fill="white"/>
</mask>
<g mask="url(#mask11_11_20)">
<mask id="mask12_11_20" style="mask-type:luminance" maskUnits="userSpaceOnUse" x="-12" y="-68" width="245" height="161">
<path d="M217.641 92.6615L-11.3177 67.9427L3.33332 -67.7344L232.286 -43.0156L217.641 92.6615Z" fill="white"/>
</mask>
<g mask="url(#mask12_11_20)">
<mask id="mask13_11_20" style="mask-type:luminance" maskUnits="userSpaceOnUse" x="-3" y="-63" width="231" height="146">
<path d="M115.88 81.6771C86.2031 78.474 65.3646 56.9219 58.5573 32.5938C53.2864 33.7396 47.6823 33.9948 41.7448 33.3542C15.0312 30.4688 -4.63543 6.04169 -1.75002 -20.6719C1.17706 -47.8073 24.5312 -65.4479 49.9687 -62.6979L181.406 -48.5104C215.328 -44.8489 230.078 -26.526 227.562 -3.20831C225.182 18.8438 206.255 35.2448 184.87 34.6511C175.776 63.2656 149.802 85.3386 115.88 81.6771Z" fill="white"/>
</mask>
<g mask="url(#mask13_11_20)">
<mask id="mask14_11_20" style="mask-type:luminance" maskUnits="userSpaceOnUse" x="0" y="-1" width="228" height="85">
<path d="M228 -0.9375H-1.52588e-05V83.0625H228V-0.9375Z" fill="white"/>
</mask>
<g mask="url(#mask14_11_20)">
<mask id="mask15_11_20" style="mask-type:luminance" maskUnits="userSpaceOnUse" x="0" y="0" width="228" height="84">
<path d="M-1.52588e-05 0H228V83.0625H-1.52588e-05V0Z" fill="white"/>
</mask>
<g mask="url(#mask15_11_20)">
<mask id="mask16_11_20" style="mask-type:luminance" maskUnits="userSpaceOnUse" x="-12" y="-68" width="245" height="161">
<path d="M217.641 92.6615L-11.3177 67.9427L3.33332 -67.7344L232.286 -43.0156L217.641 92.6615Z" fill="white"/>
</mask>
<g mask="url(#mask16_11_20)">
<mask id="mask17_11_20" style="mask-type:luminance" maskUnits="userSpaceOnUse" x="-3" y="-63" width="231" height="146">
<path d="M115.88 81.6771C86.2031 78.474 65.3646 56.9219 58.5573 32.5938C53.2864 33.7396 47.6823 33.9948 41.7448 33.3542C15.0312 30.4688 -4.63543 6.04169 -1.75002 -20.6719C1.17706 -47.8073 24.5312 -65.4479 49.9687 -62.6979L181.406 -48.5104C215.328 -44.8489 230.078 -26.526 227.562 -3.20831C225.182 18.8438 206.255 35.2448 184.87 34.6511C175.776 63.2656 149.802 85.3386 115.88 81.6771Z" fill="white"/>
</mask>
<g mask="url(#mask17_11_20)">
<path d="M217.641 92.6615L-11.3177 67.9427L3.33332 -67.7344L232.286 -43.0156L217.641 92.6615Z" fill="#F3D6D4"/>
</g>
</g>
</g>
</g>
</g>
</g>
</g>
<mask id="mask18_11_20" style="mask-type:luminance" maskUnits="userSpaceOnUse" x="0" y="0" width="228" height="84">
<path d="M0 0H228V83.0625H0V0Z" fill="white"/>
</mask>
<g mask="url(#mask18_11_20)">
<mask id="mask19_11_20" style="mask-type:luminance" maskUnits="userSpaceOnUse" x="-11" y="-69" width="244" height="162">
<path d="M217.641 92.6615L-10.9219 67.9844L3.78125 -68.1562L232.339 -43.4792L217.641 92.6615Z" fill="white"/>
</mask>
<g mask="url(#mask19_11_20)">
<mask id="mask20_11_20" style="mask-type:luminance" maskUnits="userSpaceOnUse" x="-12" y="-68" width="245" height="161">
<path d="M217.641 92.6614L-11.3073 67.9426L3.33855 -67.7292L232.286 -43.0105L217.641 92.6614Z" fill="white"/>
</mask>
<g mask="url(#mask20_11_20)">
<mask id="mask21_11_20" style="mask-type:luminance" maskUnits="userSpaceOnUse" x="-3" y="-63" width="231" height="146">
<path d="M115.885 81.677C86.2083 78.4687 65.3698 56.9218 58.5625 32.5937C53.2917 33.7395 47.6875 33.9947 41.75 33.3541C15.0417 30.4687 -4.625 6.04161 -1.73958 -20.6667C1.1875 -47.8021 24.5365 -65.4428 49.9792 -62.6928L181.411 -48.5053C215.328 -44.8438 230.078 -26.5209 227.563 -3.20319C225.182 18.8437 206.255 35.2447 184.87 34.651C175.776 63.2656 149.802 85.3385 115.885 81.677Z" fill="white"/>
</mask>
<g mask="url(#mask21_11_20)">
<path d="M115.885 81.677C86.2083 78.4687 65.3698 56.9218 58.5625 32.5937C53.2916 33.7395 47.6875 33.9947 41.75 33.3541C15.0416 30.4687 -4.62505 6.04157 -1.73963 -20.6668C1.18745 -47.8022 24.5364 -65.4428 49.9791 -62.6928L181.411 -48.5053C215.328 -44.8438 230.078 -26.5209 227.562 -3.20322C225.182 18.8437 206.255 35.2447 184.87 34.651C175.776 63.2655 149.802 85.3385 115.885 81.677Z" stroke="#59453C" stroke-width="7.9961"/>
</g>
</g>
</g>
</g>
<mask id="mask22_11_20" style="mask-type:luminance" maskUnits="userSpaceOnUse" x="0" y="3" width="116" height="226">
<path d="M0 3.0625H116V228.396H0V3.0625Z" fill="white"/>
</mask>
<g mask="url(#mask22_11_20)">
<mask id="mask23_11_20" style="mask-type:luminance" maskUnits="userSpaceOnUse" x="-61" y="-8" width="207" height="264">
<path d="M145.698 39.0625L67.5781 255.693L-60.7969 209.401L17.3229 -7.23438L145.698 39.0625Z" fill="white"/>
</mask>
<g mask="url(#mask23_11_20)">
<mask id="mask24_11_20" style="mask-type:luminance" maskUnits="userSpaceOnUse" x="-48" y="4" width="163" height="225">
<path d="M110.979 135.344C100.849 163.422 74.9844 178.578 49.7396 179.448C49.6094 184.839 48.5312 190.344 46.5052 195.958C37.3906 221.234 9.0052 234.573 -16.2708 225.458C-41.9427 216.198 -53.5625 189.339 -44.8854 165.271L-0.0364609 40.9063C11.5365 8.81254 32.8229 -1.18746 54.8906 6.76566C75.75 14.2917 87.2135 36.5573 81.5833 57.1927C107.24 72.7917 122.552 103.25 110.979 135.344Z" fill="white"/>
</mask>
<g mask="url(#mask24_11_20)">
<mask id="mask25_11_20" style="mask-type:luminance" maskUnits="userSpaceOnUse" x="0" y="3" width="116" height="226">
<path d="M116 3.0625H0V228.396H116V3.0625Z" fill="white"/>
</mask>
<g mask="url(#mask25_11_20)">
<mask id="mask26_11_20" style="mask-type:luminance" maskUnits="userSpaceOnUse" x="0" y="3" width="116" height="226">
<path d="M0 3.0625H116V228.396H0V3.0625Z" fill="white"/>
</mask>
<g mask="url(#mask26_11_20)">
<mask id="mask27_11_20" style="mask-type:luminance" maskUnits="userSpaceOnUse" x="-61" y="-8" width="207" height="264">
<path d="M145.698 39.0625L67.5781 255.693L-60.7969 209.401L17.3229 -7.23438L145.698 39.0625Z" fill="white"/>
</mask>
<g mask="url(#mask27_11_20)">
<mask id="mask28_11_20" style="mask-type:luminance" maskUnits="userSpaceOnUse" x="-48" y="4" width="163" height="225">
<path d="M110.979 135.344C100.849 163.422 74.9844 178.578 49.7396 179.448C49.6094 184.839 48.5312 190.344 46.5052 195.958C37.3906 221.234 9.0052 234.573 -16.2708 225.458C-41.9427 216.198 -53.5625 189.339 -44.8854 165.271L-0.0364609 40.9063C11.5365 8.81254 32.8229 -1.18746 54.8906 6.76566C75.75 14.2917 87.2135 36.5573 81.5833 57.1927C107.24 72.7917 122.552 103.25 110.979 135.344Z" fill="white"/>
</mask>
<g mask="url(#mask28_11_20)">
<path d="M145.698 39.0625L67.5781 255.693L-60.7969 209.401L17.3229 -7.23438L145.698 39.0625Z" fill="#F3D6D4"/>
</g>
</g>
</g>
</g>
</g>
</g>
</g>
<mask id="mask29_11_20" style="mask-type:luminance" maskUnits="userSpaceOnUse" x="0" y="3" width="116" height="226">
<path d="M0 3.0625H116V228.396H0V3.0625Z" fill="white"/>
</mask>
<g mask="url(#mask29_11_20)">
<mask id="mask30_11_20" style="mask-type:luminance" maskUnits="userSpaceOnUse" x="-62" y="-8" width="208" height="264">
<path d="M145.698 39.0625L67.7135 255.318L-61.099 208.865L16.8854 -7.39062L145.698 39.0625Z" fill="white"/>
</mask>
<g mask="url(#mask30_11_20)">
<mask id="mask31_11_20" style="mask-type:luminance" maskUnits="userSpaceOnUse" x="-61" y="-8" width="207" height="264">
<path d="M145.698 39.0625L67.5781 255.682L-60.7917 209.391L17.3281 -7.23438L145.698 39.0625Z" fill="white"/>
</mask>
<g mask="url(#mask31_11_20)">
<mask id="mask32_11_20" style="mask-type:luminance" maskUnits="userSpaceOnUse" x="-48" y="4" width="163" height="225">
<path d="M110.979 135.339C100.849 163.417 74.9843 178.573 49.7396 179.438C49.6093 184.833 48.5312 190.339 46.5052 195.953C37.3906 221.224 9.01039 234.563 -16.2657 225.448C-41.9375 216.193 -53.5573 189.333 -44.8802 165.266L-0.0312729 40.9063C11.5416 8.81254 32.8281 -1.18746 54.8906 6.76566C75.75 14.2917 87.2135 36.5573 81.5833 57.1927C107.24 72.7917 122.552 103.245 110.979 135.339Z" fill="white"/>
</mask>
<g mask="url(#mask32_11_20)">
<path d="M110.979 135.338C100.849 163.417 74.9844 178.573 49.7396 179.437C49.6094 184.833 48.5313 190.338 46.5053 195.953C37.3907 221.224 9.01049 234.562 -16.2656 225.448C-41.9374 216.193 -53.5572 189.333 -44.8802 165.266L-0.0312795 40.9062C11.5416 8.81246 32.8281 -1.18756 54.8906 6.76555C75.7499 14.2916 87.2135 36.5572 81.5833 57.1926C107.24 72.7916 122.552 103.245 110.979 135.338Z" stroke="#59453C" stroke-width="7.9961"/>
</g>
</g>
</g>
</g>
<mask id="mask33_11_20" style="mask-type:luminance" maskUnits="userSpaceOnUse" x="0" y="0" width="97" height="177">
<path d="M0 0H96.7292V176.688H0V0Z" fill="white"/>
</mask>
<g mask="url(#mask33_11_20)">
<mask id="mask34_11_20" style="mask-type:luminance" maskUnits="userSpaceOnUse" x="-134" y="-54" width="231" height="231">
<path d="M-18.4167 -53.5991C-82.0052 -53.5991 -133.557 -2.04704 -133.557 61.5467C-133.557 125.135 -82.0052 176.687 -18.4167 176.687C45.1771 176.687 96.7292 125.135 96.7292 61.5467C96.7292 -2.04704 45.1771 -53.5991 -18.4167 -53.5991Z" fill="white"/>
</mask>
<g mask="url(#mask34_11_20)">
<mask id="mask35_11_20" style="mask-type:luminance" maskUnits="userSpaceOnUse" x="0" y="-1" width="98" height="179">
<path d="M97.3333 -0.937622H-1.52588e-05V177.729H97.3333V-0.937622Z" fill="white"/>
</mask>
<g mask="url(#mask35_11_20)">
<mask id="mask36_11_20" style="mask-type:luminance" maskUnits="userSpaceOnUse" x="0" y="-1" width="97" height="178">
<path d="M-1.52588e-05 -0.00012207H96.7292V176.687H-1.52588e-05V-0.00012207Z" fill="white"/>
</mask>
<g mask="url(#mask36_11_20)">
<mask id="mask37_11_20" style="mask-type:luminance" maskUnits="userSpaceOnUse" x="-134" y="-54" width="231" height="231">
<path d="M-18.4167 -53.5991C-82.0052 -53.5991 -133.557 -2.04704 -133.557 61.5467C-133.557 125.135 -82.0052 176.687 -18.4167 176.687C45.1771 176.687 96.7292 125.135 96.7292 61.5467C96.7292 -2.04704 45.1771 -53.5991 -18.4167 -53.5991Z" fill="white"/>
</mask>
<g mask="url(#mask37_11_20)">
<path d="M-133.557 -53.5991H96.7292V176.687H-133.557V-53.5991Z" fill="#F3D6D4"/>
</g>
</g>
</g>
</g>
</g>
<mask id="mask38_11_20" style="mask-type:luminance" maskUnits="userSpaceOnUse" x="0" y="165" width="19" height="228">
<path d="M0 165.729H18.6667V392.396H0V165.729Z" fill="white"/>
</mask>
<g mask="url(#mask38_11_20)">
<mask id="mask39_11_20" style="mask-type:luminance" maskUnits="userSpaceOnUse" x="-158" y="155" width="207" height="264">
<path d="M48.6615 201.901L-29.4583 418.536L-157.833 372.24L-79.7135 155.609L48.6615 201.901Z" fill="white"/>
</mask>
<g mask="url(#mask39_11_20)">
<mask id="mask40_11_20" style="mask-type:luminance" maskUnits="userSpaceOnUse" x="-145" y="167" width="163" height="225">
<path d="M13.9427 298.182C3.81769 326.266 -22.0469 341.417 -47.2969 342.286C-47.4271 347.682 -48.5052 353.182 -50.5313 358.802C-59.6459 384.073 -88.0313 397.411 -113.302 388.297C-138.979 379.042 -150.599 352.182 -141.917 328.109L-97.0729 203.75C-85.5 171.656 -64.2084 161.651 -42.1459 169.609C-21.2865 177.13 -9.82294 199.401 -15.4479 220.036C10.2031 235.635 25.5156 266.089 13.9427 298.182Z" fill="white"/>
</mask>
<g mask="url(#mask40_11_20)">
<mask id="mask41_11_20" style="mask-type:luminance" maskUnits="userSpaceOnUse" x="0" y="165" width="19" height="228">
<path d="M18.6667 165.729H-1.52588e-05V392.396H18.6667V165.729Z" fill="white"/>
</mask>
<g mask="url(#mask41_11_20)">
<mask id="mask42_11_20" style="mask-type:luminance" maskUnits="userSpaceOnUse" x="0" y="165" width="19" height="228">
<path d="M-1.52588e-05 165.729H18.6667V392.396H-1.52588e-05V165.729Z" fill="white"/>
</mask>
<g mask="url(#mask42_11_20)">
<mask id="mask43_11_20" style="mask-type:luminance" maskUnits="userSpaceOnUse" x="-158" y="155" width="207" height="264">
<path d="M48.6614 201.901L-29.4584 418.536L-157.833 372.24L-79.7136 155.609L48.6614 201.901Z" fill="white"/>
</mask>
<g mask="url(#mask43_11_20)">
<mask id="mask44_11_20" style="mask-type:luminance" maskUnits="userSpaceOnUse" x="-145" y="167" width="163" height="225">
<path d="M13.9427 298.182C3.81769 326.266 -22.0469 341.417 -47.2969 342.286C-47.4271 347.682 -48.5052 353.182 -50.5313 358.802C-59.6459 384.073 -88.0313 397.411 -113.302 388.297C-138.979 379.042 -150.599 352.182 -141.917 328.109L-97.0729 203.75C-85.5 171.656 -64.2084 161.651 -42.1459 169.609C-21.2865 177.13 -9.82294 199.401 -15.4479 220.036C10.2031 235.635 25.5156 266.089 13.9427 298.182Z" fill="white"/>
</mask>
<g mask="url(#mask44_11_20)">
<path d="M48.6614 201.901L-29.4584 418.536L-157.833 372.24L-79.7136 155.609L48.6614 201.901Z" fill="#F3D6D4"/>
</g>
</g>
</g>
</g>
</g>
</g>
</g>
<mask id="mask45_11_20" style="mask-type:luminance" maskUnits="userSpaceOnUse" x="0" y="165" width="19" height="228">
<path d="M0 165.729H18.6667V392.396H0V165.729Z" fill="white"/>
</mask>
<g mask="url(#mask45_11_20)">
<mask id="mask46_11_20" style="mask-type:luminance" maskUnits="userSpaceOnUse" x="-159" y="155" width="208" height="264">
<path d="M48.6614 201.901L-29.3229 418.156L-158.135 371.703L-80.1511 155.448L48.6614 201.901Z" fill="white"/>
</mask>
<g mask="url(#mask46_11_20)">
<mask id="mask47_11_20" style="mask-type:luminance" maskUnits="userSpaceOnUse" x="-158" y="155" width="207" height="264">
<path d="M48.6614 201.901L-29.4584 418.526L-157.828 372.234L-79.7084 155.609L48.6614 201.901Z" fill="white"/>
</mask>
<g mask="url(#mask47_11_20)">
<mask id="mask48_11_20" style="mask-type:luminance" maskUnits="userSpaceOnUse" x="-145" y="167" width="163" height="225">
<path d="M13.9427 298.177C3.81769 326.26 -22.0469 341.411 -47.2917 342.281C-47.4271 347.672 -48.5052 353.177 -50.5313 358.792C-59.6406 384.068 -88.0261 397.406 -113.297 388.292C-138.974 379.031 -150.594 352.177 -141.911 328.104L-97.0677 203.75C-85.4948 171.656 -64.2084 161.651 -42.1459 169.609C-21.2813 177.13 -9.82294 199.396 -15.4479 220.036C10.2031 235.63 25.5156 266.089 13.9427 298.177Z" fill="white"/>
</mask>
<g mask="url(#mask48_11_20)">
<path d="M13.9427 298.177C3.81775 326.26 -22.0468 341.411 -47.2916 342.281C-47.427 347.672 -48.5052 353.177 -50.5312 358.792C-59.6406 384.068 -88.026 397.406 -113.297 388.292C-138.974 379.031 -150.594 352.177 -141.911 328.104L-97.0677 203.75C-85.4948 171.656 -64.2084 161.651 -42.1459 169.609C-21.2813 177.13 -9.82295 199.396 -15.4479 220.036C10.2031 235.63 25.5156 266.089 13.9427 298.177Z" stroke="#59453C" stroke-width="7.9961"/>
</g>
</g>
</g>
</g>
</svg>
