<svg width="207" height="186" viewBox="0 0 207 186" fill="none" xmlns="http://www.w3.org/2000/svg">
<mask id="mask0_12_22" style="mask-type:luminance" maskUnits="userSpaceOnUse" x="0" y="0" width="35" height="158">
<path d="M0 0H34.6667V157.333H0V0Z" fill="white"/>
</mask>
<g mask="url(#mask0_12_22)">
<mask id="mask1_12_22" style="mask-type:luminance" maskUnits="userSpaceOnUse" x="-203" y="-23" width="258" height="190">
<path d="M-168.62 -22.7136L54.5521 34.1093L20.8802 166.354L-202.292 109.536L-168.62 -22.7136Z" fill="white"/>
</mask>
<g mask="url(#mask1_12_22)">
<mask id="mask2_12_22" style="mask-type:luminance" maskUnits="userSpaceOnUse" x="-194" y="0" width="229" height="157">
<path d="M-69.4323 2.54171C-40.5052 9.9063 -22.9219 34.1875 -19.6146 59.2292C-14.2344 58.8386 -8.65628 59.3803 -2.86983 60.8542C23.1666 67.4844 39.1875 94.4428 32.5573 120.479C25.8229 146.932 0.213516 161.094 -24.5834 154.781L-152.698 122.162C-185.76 113.745 -197.771 93.5209 -191.984 70.7917C-186.516 49.3021 -165.458 35.7396 -144.375 39.349C-131.328 12.3073 -102.495 -5.87495 -69.4323 2.54171Z" fill="white"/>
</mask>
<g mask="url(#mask2_12_22)">
<mask id="mask3_12_22" style="mask-type:luminance" maskUnits="userSpaceOnUse" x="0" y="0" width="35" height="158">
<path d="M34.6667 0H-1.52588e-05V157.333H34.6667V0Z" fill="white"/>
</mask>
<g mask="url(#mask3_12_22)">
<mask id="mask4_12_22" style="mask-type:luminance" maskUnits="userSpaceOnUse" x="0" y="0" width="35" height="158">
<path d="M-1.52588e-05 0H34.6667V157.333H-1.52588e-05V0Z" fill="white"/>
</mask>
<g mask="url(#mask4_12_22)">
<mask id="mask5_12_22" style="mask-type:luminance" maskUnits="userSpaceOnUse" x="-203" y="-23" width="258" height="190">
<path d="M-168.62 -22.7136L54.5521 34.1093L20.8802 166.354L-202.292 109.536L-168.62 -22.7136Z" fill="white"/>
</mask>
<g mask="url(#mask5_12_22)">
<mask id="mask6_12_22" style="mask-type:luminance" maskUnits="userSpaceOnUse" x="-194" y="0" width="229" height="157">
<path d="M-69.4323 2.54159C-40.5052 9.90618 -22.9219 34.1874 -19.6146 59.2291C-14.2344 58.8385 -8.65628 59.3801 -2.86983 60.8541C23.1666 67.4843 39.1875 94.4426 32.5573 120.479C25.8229 146.932 0.213516 161.094 -24.5834 154.781L-152.698 122.161C-185.76 113.745 -197.771 93.5208 -191.984 70.7916C-186.516 49.302 -165.458 35.7395 -144.375 39.3489C-131.328 12.3072 -102.495 -5.87508 -69.4323 2.54159Z" fill="white"/>
</mask>
<g mask="url(#mask6_12_22)">
<path d="M-168.62 -22.7136L54.5521 34.1093L20.8802 166.354L-202.292 109.536L-168.62 -22.7136Z" fill="#F3D6D4"/>
</g>
</g>
</g>
</g>
</g>
</g>
</g>
<mask id="mask7_12_22" style="mask-type:luminance" maskUnits="userSpaceOnUse" x="0" y="0" width="35" height="158">
<path d="M0 0H34.6667V157.333H0V0Z" fill="white"/>
</mask>
<g mask="url(#mask7_12_22)">
<mask id="mask8_12_22" style="mask-type:luminance" maskUnits="userSpaceOnUse" x="-203" y="-23" width="258" height="190">
<path d="M-168.62 -22.7136L54.1615 34.0103L20.375 166.708L-202.406 109.984L-168.62 -22.7136Z" fill="white"/>
</mask>
<g mask="url(#mask8_12_22)">
<mask id="mask9_12_22" style="mask-type:luminance" maskUnits="userSpaceOnUse" x="-203" y="-23" width="258" height="190">
<path d="M-168.62 -22.7136L54.5417 34.1041L20.8698 166.349L-202.286 109.531L-168.62 -22.7136Z" fill="white"/>
</mask>
<g mask="url(#mask9_12_22)">
<mask id="mask10_12_22" style="mask-type:luminance" maskUnits="userSpaceOnUse" x="-194" y="0" width="229" height="157">
<path d="M-69.4375 2.54171C-40.5104 9.9063 -22.927 34.1823 -19.625 59.2292C-14.2448 58.8386 -8.66141 59.3803 -2.87495 60.8542C23.1615 67.4792 39.1771 94.4428 32.5469 120.479C25.8177 146.927 0.208374 161.089 -24.5885 154.776L-152.698 122.156C-185.76 113.74 -197.771 93.5209 -191.984 70.7917C-186.516 49.3021 -165.458 35.7396 -144.375 39.349C-131.328 12.3073 -102.5 -5.87495 -69.4375 2.54171Z" fill="white"/>
</mask>
<g mask="url(#mask10_12_22)">
<path d="M-69.4375 2.5415C-40.5105 9.9061 -22.9271 34.1821 -19.6251 59.229C-14.2449 58.8384 -8.66154 59.38 -2.87508 60.854C23.1614 67.479 39.177 94.4426 32.5467 120.479C25.8176 146.927 0.208187 161.088 -24.5887 154.776L-152.698 122.156C-185.76 113.739 -197.771 93.5205 -191.984 70.7914C-186.516 49.3018 -165.458 35.7393 -144.375 39.3487C-131.328 12.3071 -102.5 -5.87519 -69.4375 2.5415Z" stroke="#59453C" stroke-width="7.99609"/>
</g>
</g>
</g>
</g>
<mask id="mask11_12_22" style="mask-type:luminance" maskUnits="userSpaceOnUse" x="0" y="80" width="207" height="106">
<path d="M0 80H206.667V185.896H0V80Z" fill="white"/>
</mask>
<g mask="url(#mask11_12_22)">
<mask id="mask12_12_22" style="mask-type:luminance" maskUnits="userSpaceOnUse" x="-31" y="58" width="258" height="190">
<path d="M2.83855 58.1301L226.005 114.948L192.333 247.198L-30.8333 190.38L2.83855 58.1301Z" fill="white"/>
</mask>
<g mask="url(#mask12_12_22)">
<mask id="mask13_12_22" style="mask-type:luminance" maskUnits="userSpaceOnUse" x="-22" y="81" width="228" height="157">
<path d="M102.026 83.3852C130.953 90.7498 148.536 115.026 151.839 140.073C157.219 139.682 162.802 140.224 168.589 141.698C194.625 148.328 210.646 175.286 204.016 201.323C197.281 227.776 171.672 241.937 146.875 235.625L18.7604 203.005C-14.3021 194.588 -26.3177 174.364 -20.526 151.635C-15.0573 130.146 6.00001 116.583 27.0833 120.192C40.1302 93.1456 68.9636 74.9633 102.026 83.3852Z" fill="white"/>
</mask>
<g mask="url(#mask13_12_22)">
<mask id="mask14_12_22" style="mask-type:luminance" maskUnits="userSpaceOnUse" x="0" y="80" width="207" height="107">
<path d="M206.667 80H0V186.667H206.667V80Z" fill="white"/>
</mask>
<g mask="url(#mask14_12_22)">
<mask id="mask15_12_22" style="mask-type:luminance" maskUnits="userSpaceOnUse" x="0" y="80" width="207" height="106">
<path d="M0 80H206.667V185.896H0V80Z" fill="white"/>
</mask>
<g mask="url(#mask15_12_22)">
<mask id="mask16_12_22" style="mask-type:luminance" maskUnits="userSpaceOnUse" x="-31" y="58" width="258" height="190">
<path d="M2.83855 58.1301L226.005 114.948L192.333 247.198L-30.8333 190.38L2.83855 58.1301Z" fill="white"/>
</mask>
<g mask="url(#mask16_12_22)">
<mask id="mask17_12_22" style="mask-type:luminance" maskUnits="userSpaceOnUse" x="-22" y="81" width="228" height="157">
<path d="M102.026 83.3852C130.953 90.7498 148.536 115.026 151.839 140.073C157.219 139.682 162.802 140.224 168.589 141.698C194.625 148.328 210.646 175.286 204.016 201.323C197.281 227.776 171.672 241.937 146.875 235.625L18.7604 203.005C-14.3021 194.588 -26.3177 174.364 -20.526 151.635C-15.0573 130.146 6.00001 116.583 27.0833 120.192C40.1302 93.1456 68.9636 74.9633 102.026 83.3852Z" fill="white"/>
</mask>
<g mask="url(#mask17_12_22)">
<path d="M2.83855 58.1301L226.005 114.948L192.333 247.198L-30.8333 190.38L2.83855 58.1301Z" fill="#F3D6D4"/>
</g>
</g>
</g>
</g>
</g>
</g>
</g>
<mask id="mask18_12_22" style="mask-type:luminance" maskUnits="userSpaceOnUse" x="0" y="80" width="207" height="106">
<path d="M0 80H206.667V185.896H0V80Z" fill="white"/>
</mask>
<g mask="url(#mask18_12_22)">
<mask id="mask19_12_22" style="mask-type:luminance" maskUnits="userSpaceOnUse" x="-31" y="58" width="257" height="190">
<path d="M2.83854 58.1301L225.62 114.854L191.833 247.552L-30.9479 190.828L2.83854 58.1301Z" fill="white"/>
</mask>
<g mask="url(#mask19_12_22)">
<mask id="mask20_12_22" style="mask-type:luminance" maskUnits="userSpaceOnUse" x="-31" y="58" width="257" height="190">
<path d="M2.83853 58.1301L225.995 114.948L192.328 247.193L-30.8333 190.375L2.83853 58.1301Z" fill="white"/>
</mask>
<g mask="url(#mask20_12_22)">
<mask id="mask21_12_22" style="mask-type:luminance" maskUnits="userSpaceOnUse" x="-22" y="81" width="228" height="157">
<path d="M102.021 83.3855C130.948 90.75 148.526 115.026 151.833 140.073C157.214 139.682 162.797 140.224 168.583 141.698C194.615 148.323 210.635 175.287 204.005 201.323C197.271 227.771 171.661 241.932 146.87 235.62L18.7604 203C-14.3021 194.583 -26.3125 174.365 -20.526 151.635C-15.0573 130.146 6 116.583 27.0833 120.193C40.125 93.1511 68.9583 74.9688 102.021 83.3855Z" fill="white"/>
</mask>
<g mask="url(#mask21_12_22)">
<path d="M102.021 83.3852C130.948 90.7498 148.526 115.026 151.833 140.073C157.213 139.682 162.797 140.224 168.583 141.698C194.614 148.323 210.635 175.286 204.005 201.323C197.271 227.771 171.661 241.932 146.87 235.62L18.7603 203C-14.3022 194.583 -26.3126 174.364 -20.5261 151.635C-15.0573 130.146 5.99996 116.583 27.0833 120.192C40.125 93.1508 68.9583 74.9686 102.021 83.3852Z" stroke="#59453C" stroke-width="7.99609"/>
</g>
</g>
</g>
</g>
<mask id="mask22_12_22" style="mask-type:luminance" maskUnits="userSpaceOnUse" x="0" y="110" width="102" height="76">
<path d="M0 110.667H101.333V185.896H0V110.667Z" fill="white"/>
</mask>
<g mask="url(#mask22_12_22)">
<mask id="mask23_12_22" style="mask-type:luminance" maskUnits="userSpaceOnUse" x="-141" y="100" width="253" height="253">
<path d="M-118.193 352.161L-140.448 122.948L88.7656 100.693L111.021 329.906L-118.193 352.161Z" fill="white"/>
</mask>
<g mask="url(#mask23_12_22)">
<mask id="mask24_12_22" style="mask-type:luminance" maskUnits="userSpaceOnUse" x="-130" y="111" width="231" height="231">
<path d="M-129.318 237.557C-123.172 300.849 -66.8802 347.177 -3.58334 341.031C59.7083 334.885 106.036 278.594 99.8906 215.302C93.7448 152.005 37.4531 105.677 -25.8385 111.823C-89.1354 117.969 -135.464 174.26 -129.318 237.557Z" fill="white"/>
</mask>
<g mask="url(#mask24_12_22)">
<mask id="mask25_12_22" style="mask-type:luminance" maskUnits="userSpaceOnUse" x="0" y="110" width="102" height="77">
<path d="M101.333 110.667H0V186.667H101.333V110.667Z" fill="white"/>
</mask>
<g mask="url(#mask25_12_22)">
<mask id="mask26_12_22" style="mask-type:luminance" maskUnits="userSpaceOnUse" x="0" y="110" width="102" height="76">
<path d="M0 110.667H101.333V185.896H0V110.667Z" fill="white"/>
</mask>
<g mask="url(#mask26_12_22)">
<mask id="mask27_12_22" style="mask-type:luminance" maskUnits="userSpaceOnUse" x="-141" y="100" width="253" height="253">
<path d="M-118.193 352.161L-140.448 122.948L88.7656 100.693L111.021 329.906L-118.193 352.161Z" fill="white"/>
</mask>
<g mask="url(#mask27_12_22)">
<mask id="mask28_12_22" style="mask-type:luminance" maskUnits="userSpaceOnUse" x="-130" y="111" width="231" height="231">
<path d="M-129.318 237.557C-123.172 300.849 -66.8802 347.177 -3.58337 341.031C59.7083 334.885 106.036 278.594 99.8906 215.302C93.7448 152.005 37.4531 105.677 -25.8386 111.823C-89.1355 117.969 -135.464 174.26 -129.318 237.557Z" fill="white"/>
</mask>
<g mask="url(#mask28_12_22)">
<path d="M-118.193 352.161L-140.448 122.948L88.7656 100.693L111.021 329.906L-118.193 352.161Z" fill="#F3D6D4"/>
</g>
</g>
</g>
</g>
</g>
</g>
</g>
</svg>
