<svg width="136" height="92" viewBox="0 0 136 92" fill="none" xmlns="http://www.w3.org/2000/svg">
<mask id="mask0_4_9" style="mask-type:luminance" maskUnits="userSpaceOnUse" x="0" y="10" width="136" height="82">
<path d="M0 10.8018H135.932V91.958H0V10.8018Z" fill="white"/>
</mask>
<g mask="url(#mask0_4_9)">
<path d="M135.932 49.052C135.932 48.4061 135.932 47.7551 135.771 47.104C135.661 46.6405 135.823 46.2082 135.823 45.7499C135.823 45.177 135.719 44.6093 135.661 44.0676C135.339 41.7395 134.521 39.5988 133.161 37.6457C132.24 36.3176 131.37 34.9634 130.422 33.6613C129.766 32.7655 129.005 31.927 128.219 31.1145C126.401 29.1926 124.469 27.4009 122.38 25.7759C121.13 24.802 119.932 23.7707 118.604 22.9061C117.161 21.9582 115.615 21.2238 114.01 20.5728C112.219 19.8436 110.453 19.1093 108.661 18.354C107.115 17.6718 105.51 17.078 103.906 16.5363C102.089 15.9374 100.292 15.3176 98.4479 14.828C96.0312 14.203 93.6094 13.6093 91.1667 13.1509C89.1042 12.7707 87.0365 12.4426 84.9479 12.1197C83.4219 11.8749 81.875 11.7395 80.3281 11.6301C78.2604 11.4947 76.1979 11.3593 74.1354 11.2499C71.7448 11.1457 69.3802 11.2238 66.9896 11.1978C66.5833 11.1978 66.1458 11.2499 65.7396 11.2811C65.4948 11.2811 65.224 11.3593 65.1146 11.604C64.9792 11.8749 64.7865 11.9009 64.5469 11.9009C62.6979 11.8488 60.849 12.0103 59.0052 12.1197C57.4531 12.1978 55.8802 12.3905 54.3281 12.5259C52.1823 12.7447 50.0677 13.0416 47.9479 13.3645C45.8281 13.6926 43.7344 14.0988 41.6719 14.6405C40.8542 14.854 40.0156 14.854 39.1979 14.9634C37.5417 15.1822 35.9688 15.5624 34.3646 15.9947C31.4323 16.7811 28.6302 17.9166 25.9427 19.2707C23.9896 20.2759 22.0312 21.3072 20.1042 22.3905C19.0417 22.9843 18.0938 23.7186 17.1406 24.4738C16 25.3697 14.8854 26.2916 13.7188 27.1874C12.3594 28.2134 11.1094 29.3801 9.83333 30.5468C9.02083 31.3072 8.26042 32.0884 7.52604 32.9582C5.89583 34.9061 4.48438 37.0207 3.3125 39.2707C2.30729 41.1978 1.65625 43.229 1.08854 45.3124C0.869792 46.1249 0.4375 46.8593 0.244792 47.6718C0.161458 48.052 0.218751 48.4582 0 48.8124V52.1978C0.109375 52.2499 0.109375 52.3593 0.109375 52.4426C0.161459 54.3384 0.598959 56.1561 1.03125 57.9686C1.57813 60.1926 2.52604 62.2238 3.61458 64.203C4.29167 65.4218 4.97396 66.6405 5.70312 67.8072C6.4375 68.9686 7.25521 70.0832 8.125 71.1405C9.85938 73.1978 12.0052 74.7968 14.151 76.4218C16.8698 78.5103 19.8333 80.1613 22.8177 81.7863C25.2344 83.1145 27.7656 84.229 30.3438 85.2551C32.625 86.1509 34.9896 86.9374 37.3542 87.6145C39.9583 88.3176 42.5677 88.9686 45.2031 89.5103C46.5052 89.7811 47.8125 90.1093 49.1406 90.4061C50.9635 90.7863 52.7812 91.1353 54.6302 91.354C56.125 91.5155 57.6458 91.6249 59.1406 91.7603C60.1146 91.8697 61.151 91.953 62.1562 91.8957C62.3177 91.8957 66.2292 91.8957 66.3385 91.8957C67.1771 91.8957 67.9948 91.8436 68.8385 91.8176C70.3594 91.7603 71.8542 91.7082 73.375 91.6822C75.1094 91.6509 76.849 91.4061 78.6146 91.328C80.026 91.2707 81.4427 91.0832 82.8542 90.8384C84.1823 90.5936 85.5417 90.3228 86.875 90.0259C89.1302 89.5103 91.4115 88.9947 93.6667 88.453C95.3229 88.0468 96.9531 87.5311 98.5833 87.0468C100.781 86.3957 102.958 85.6093 105.073 84.7134C107.219 83.8228 109.312 82.8436 111.375 81.7603C112.734 81.0311 114.12 80.2707 115.427 79.4582C117.432 78.1822 119.552 77.0468 121.51 75.6665C123.354 74.3645 125.068 72.9009 126.562 71.1926C128.354 69.1353 129.932 66.9113 131.286 64.552C132.349 62.7395 133.354 60.9218 134.141 58.9738C134.849 57.2655 135.339 55.5051 135.474 53.6613C135.583 52.1145 135.88 50.5988 135.854 49.052H135.932Z" fill="#71B2D1"/>
</g>
<path d="M21.8125 32.6299C21.4896 32.6299 21.323 32.9007 21.1094 33.0361C19.6667 33.9893 18.1719 34.8799 16.9532 36.1299C15.2136 37.9163 13.7188 39.8695 12.5521 42.0622C11.4896 44.0934 10.5938 46.182 10.1355 48.458C10.0261 48.9997 10.0521 49.5674 9.83337 50.083V50.7861C10.1355 50.3538 10.2396 49.8643 10.349 49.3538C11.4375 44.9059 13.6094 41.0049 16.7605 37.6976C18.3907 35.9945 19.9948 34.2601 21.7605 32.6299H21.8125Z" fill="#F4E5B9"/>
<path d="M112 73.0104C111.974 72.9531 111.948 72.9271 111.922 72.875C111.432 73.0885 110.943 73.3333 110.453 73.5521C106.542 75.4479 102.63 77.3438 98.5834 78.8906C96.1667 79.8125 93.7761 80.7865 91.4115 81.7865C91.2188 81.8698 90.8386 81.8177 90.8699 82.224H90.974C90.974 82.1406 91.0574 82.1146 91.1407 82.0885C92.2553 81.7865 93.3959 81.5729 94.5053 81.1927C100.104 79.3229 105.51 77.0208 110.563 73.9583C111.052 73.6615 111.51 73.3333 112 73.0104Z" fill="#F4E5B9"/>
<path d="M75.4635 74.9323C73.9167 74.9323 72.3958 75.125 70.875 75.3385C69.4323 75.5312 67.9687 75.6667 66.526 75.6927C64.3802 75.7188 62.2083 75.7708 60.0625 75.6354C58.7292 75.5573 57.4271 75.4219 56.125 75.2031C54.1927 74.8802 52.2656 74.4427 50.3646 74.0677C48.7083 73.7396 47.0521 73.3333 45.474 72.7656C42.3229 71.5729 39.1458 70.4062 36.0208 69.1094C33.5469 68.0781 31.3229 66.6927 29.0417 65.3698C27.7344 64.6094 26.7865 63.4427 25.6719 62.4688C24.6667 61.5729 23.8802 60.4896 23.0104 59.4583C22.3594 58.6719 21.6771 57.9427 21.2969 56.9688C21.2448 56.8594 21.2187 56.75 21.0781 56.75C20.8073 56.9115 20.9167 57.1823 20.9427 57.401C20.974 57.6719 21.0781 57.9427 21.1875 58.2135C22.3281 60.7865 24.0156 63.0104 25.8333 65.125C27.1927 66.724 28.9583 67.8594 30.75 68.8906C33.3854 70.4323 36.2656 71.4375 39.1458 72.4115C40.474 72.875 41.7812 73.3073 43.1094 73.7656C44.7969 74.3385 46.4792 74.8542 48.2187 75.2031C50.1458 75.6094 52.1042 75.9375 54.0573 76.2865C55.7708 76.6146 57.4792 76.8281 59.2187 76.9115C61.3646 77.0208 63.5417 76.9115 65.6875 76.8281C66.5573 76.8021 67.4219 76.75 68.2656 76.6406C69.5677 76.4792 70.875 76.2604 72.1771 76.0729C73.6198 75.8542 74.9219 75.2292 76.4167 74.9062C76.0104 74.7708 75.7656 74.9583 75.4635 74.9583V74.9323Z" fill="#F4E5B9"/>
<path d="M114.938 39.1355C113.552 37.2918 111.677 35.9637 109.609 34.9064C108.417 34.2866 107.115 33.9064 105.865 33.448C105.729 33.3907 105.62 33.448 105.589 33.5262C105.563 33.6355 105.646 33.6876 105.755 33.771C106.974 34.5001 108.198 35.2605 109.396 36.021C111.188 37.1876 112.682 38.646 113.823 40.4637C114.5 41.547 114.938 42.7397 115.479 43.9064C116.266 45.5835 116.536 47.2918 116.047 49.1095C115.698 50.3282 115.453 51.573 114.854 52.6876C113.958 54.3647 112.792 55.8543 111.484 57.2397C109.448 59.4064 107.25 61.3282 104.802 63.0366C103.339 64.0678 101.953 65.1512 100.401 66.073C98.8281 67.021 97.3854 68.1876 95.8646 69.2137C95.1042 69.7293 94.3438 70.2449 93.6094 70.7605C93.6094 70.7866 93.6667 70.8387 93.6667 70.8699C94.6458 70.5678 95.6198 70.3543 96.5469 69.922C98.3906 69.0782 100.13 68.0522 101.844 66.9637C104.016 65.6095 106.188 64.2293 108.198 62.6564C109.802 61.3855 111.271 59.9741 112.682 58.4845C113.958 57.1303 115.042 55.6407 115.911 53.9845C116.703 52.4949 117.109 50.896 117.49 49.271C117.813 47.8907 117.896 46.5366 117.677 45.1251C117.297 42.8751 116.292 40.8699 114.938 39.0835V39.1355Z" fill="#F4E5B9"/>
<path d="M27.3281 37.5934C29.2031 36.4268 31.2396 35.6403 33.3073 34.8799C34.9896 34.2601 36.7292 33.7965 38.2761 32.8747C39.1979 32.307 40.2344 31.9528 41.2656 31.6299C41.4531 31.5778 41.6979 31.5778 41.8906 31.333C40.4479 31.4945 39.0625 31.6299 37.6771 31.682C37 31.7132 36.2917 31.7393 35.5886 31.9007C33.7656 32.307 32 32.932 30.2604 33.6351C28.0886 34.5309 26.1615 35.7497 24.474 37.4007C22.9531 38.9215 21.7344 40.6507 20.7813 42.5518C20.2136 43.7132 19.724 44.9059 19.5573 46.208C19.75 45.8538 19.9688 45.5049 20.1563 45.1507C20.7552 44.0934 21.599 43.2028 22.3281 42.2497C23.7448 40.4111 25.375 38.8382 27.3542 37.5934H27.3281Z" fill="#F4E5B9"/>
<path d="M18.8281 31.307C20.8386 29.8122 22.8438 28.3486 24.6927 26.833C18.5261 28.8903 11.8698 36.0465 10.6511 40.3799C11.7344 38.6195 12.9844 37.0205 14.3438 35.5049C15.7031 33.958 17.1979 32.5518 18.8542 31.307H18.8281Z" fill="#F4E5B9"/>
<path d="M113.823 74.1457C110.615 75.9894 107.276 77.505 103.906 78.9998C103.198 79.3228 102.521 79.703 101.708 80.1353C102.63 80.2446 103.307 79.9738 103.99 79.729C109.26 77.7759 114.229 75.203 118.766 71.8957C119.391 71.4373 120.099 71.0571 120.396 70.2446C120.177 70.354 119.964 70.4634 119.745 70.5988C117.76 71.7915 115.833 73.0103 113.823 74.1717V74.1457Z" fill="#F4E5B9"/>
<path d="M28.0365 26.375C28.3334 26.401 28.6302 25.9115 28.6615 25.3438C28.7136 24.9896 28.5781 24.8281 28.1979 24.8281C27.7344 24.8281 27.3542 25.0156 27.3542 25.3698C27.3542 25.724 27.7656 26.375 28.0365 26.401V26.375Z" fill="#F4E5B9"/>
<path d="M122.542 67.6143C122.271 68.1299 122.786 68.6195 123.25 68.9163C123.792 68.5934 123.792 68.0518 124.063 67.5361C123.464 67.2393 122.786 67.1559 122.542 67.6143Z" fill="#F4E5B9"/>
<mask id="mask1_4_9" style="mask-type:luminance" maskUnits="userSpaceOnUse" x="26" y="0" width="86" height="71">
<path d="M26.6459 0H111.979V70.8021H26.6459V0Z" fill="white"/>
</mask>
<g mask="url(#mask1_4_9)">
<path d="M110.589 45.0413C109.99 44.3903 109.911 43.5518 109.828 42.7393C109.667 41.2497 109.365 39.7861 109.12 38.3226C108.823 36.6403 108.5 34.9632 108.198 33.2809C107.792 31.0882 107.354 28.9216 106.922 26.7236C106.729 25.833 106.677 24.9111 106.568 23.9893C106.349 22.307 106.214 20.6299 105.698 18.9997C105.104 17.1299 104.042 15.5309 102.818 14.0413C102.411 13.5257 102.031 13.0153 101.599 12.5257C101.026 11.9007 100.375 11.3851 99.724 10.8174C97.875 9.19238 95.8386 7.83822 93.7188 6.64551C92.3334 5.85905 90.8959 5.12988 89.4532 4.42155C87.7709 3.60905 86.0573 2.84863 84.3229 2.17155C82.8282 1.5778 81.3073 1.17155 79.7292 0.791341C78.6719 0.546549 77.5834 0.411132 76.4688 0.301758C74.5157 0.0882165 72.5573 0.0309241 70.6042 0.00488281C68.5365 0.00488281 66.5261 0.359049 64.5157 0.708008C62.6979 1.06217 60.875 1.3903 59.0313 1.66113C55.3907 2.2028 51.9115 3.28613 48.6823 5.04655C46.6719 6.12988 44.7709 7.32259 42.8646 8.59863C41.8907 9.24447 41.1563 10.1924 40.3959 11.0622C39.3646 12.2549 38.4636 13.583 37.3542 14.6924C36.0469 15.9945 35.5886 17.6455 34.9896 19.2445C34.5261 20.5205 34.0938 21.8226 33.7136 23.1195C33.0313 25.4216 32.3542 27.7288 31.5938 30.0309C30.9688 31.8747 30.6719 33.7705 30.2344 35.6663C29.6927 37.9997 29.2865 40.3538 28.4688 42.6038C27.9011 44.1768 27.7344 45.8278 27.1667 47.4007C27 47.807 27.3282 48.1299 27.4896 48.458C28.4427 50.5726 29.5834 52.5778 31.2396 54.2288C32.2188 55.2341 33.3073 56.1247 34.3906 56.9945C35.9688 58.2393 37.5417 59.4841 39.1719 60.6768C40.7188 61.8174 42.2396 63.0101 43.8698 64.0101C45.0677 64.7445 46.3177 65.4216 47.5938 66.0153C49.4688 66.8851 51.3959 67.5361 53.3542 68.1038C55.0365 68.5934 56.75 68.9424 58.4844 69.1611C59.7084 69.3226 60.9063 69.432 62.1563 69.5153C62.9167 69.5674 63.7292 69.458 64.4896 69.6768H67.099C67.2084 69.5413 67.3698 69.5674 67.5052 69.5674C68.9167 69.5674 70.3282 69.3226 71.7448 69.1872C73.4532 69.0257 75.0834 68.6455 76.7709 68.2913C78.4532 67.9424 80.0834 67.4268 81.7136 66.9111C84.1823 66.1247 86.6563 65.2861 89.0729 64.3382C91.4115 63.4424 93.6407 62.333 95.7552 61.0309C97.6875 59.8643 99.5313 58.5934 101.297 57.1559C103.391 55.4736 105.104 53.4684 106.677 51.3278C107.464 50.3018 108.198 49.2445 108.797 48.0778C108.823 48.0778 108.906 48.0778 108.958 48.1299C109.531 48.5101 109.609 48.432 109.938 47.807C110.344 47.0205 110.318 46.0726 110.75 45.2861C110.807 45.1768 110.75 45.0413 110.672 44.9372L110.589 45.0413Z" fill="#F2D47B"/>
</g>
<path d="M112.708 45.0158C112.328 44.4481 111.703 44.5314 111.13 44.422C110.75 44.3387 110.646 44.6929 110.453 44.8804C110.073 44.3387 110.047 44.3387 109.365 44.2293C108.932 44.1772 108.771 44.3127 108.771 44.7449C108.771 45.3439 108.932 45.8543 109.339 46.4533C109.016 46.7502 108.714 47.1304 108.359 47.2658C107.734 47.4845 107.354 47.8908 107.115 48.4324C106.896 48.9481 106.568 49.4064 106.271 49.8647C106 50.2762 105.807 50.7606 105.375 50.9793C104.938 51.1929 104.776 51.547 104.557 51.9012C104.203 52.4429 104.016 53.172 103.281 53.3647C102.74 53.5002 102.302 53.771 101.813 54.0158C101.542 54.1512 101.219 54.2554 100.891 54.2293C100.594 54.2293 100.401 54.3127 100.24 54.6095C99.8855 55.2345 99.5625 55.9116 98.6927 55.9897C98.5261 55.9897 98.3907 56.1252 98.2552 56.2606C97.7396 56.8022 97.1407 57.2085 96.4896 57.5366C96.0313 57.7554 95.6771 58.0783 95.4063 58.5106C95.1042 58.9741 94.75 59.0522 94.2605 58.8074C94.0469 58.7033 93.8802 58.7033 93.7188 58.8647C93.2605 59.297 92.849 59.7293 92.3594 60.1095C91.7344 60.5991 91.2188 61.2762 90.323 61.2762C89.724 61.2762 89.1042 61.1408 88.5052 61.2502C88.448 61.2502 88.3386 61.2189 88.2865 61.1668C88.0157 60.896 87.7448 61.0314 87.474 61.1668C87.2292 61.3283 86.9844 61.4637 86.7657 61.6564C86.4115 62.0366 85.8438 62.0054 85.4636 62.3335C84.2917 63.3908 82.9636 64.0418 81.3855 64.2033C80.1667 64.3387 79.5105 64.0679 79.2136 63.172C78.698 63.3335 78.5365 63.4429 78.3438 63.8231C78.1823 64.1199 77.9896 64.3908 77.7448 64.6095C77.3959 64.9324 76.9844 64.8804 76.6615 64.5262C76.3334 64.1772 76.3334 63.7137 76.1146 63.3335C75.7344 63.297 75.4115 63.3908 75.1407 63.6043C74.9219 63.771 74.6511 63.8491 74.4063 63.771C73.7813 63.5522 73.2084 63.8231 72.75 64.1199C71.4167 64.9324 70.0052 65.0939 68.5625 64.6095C67.8021 64.3647 67.3438 64.4741 66.9375 65.1252C66.6615 65.5574 66.2292 65.6668 65.7396 65.5835C65.1667 65.5054 64.599 65.396 64.0261 65.422C63.4323 65.422 62.8073 65.422 62.2084 65.422C61.2865 65.396 60.9844 65.2033 60.6042 64.1772C60.5521 63.9845 60.4948 63.8231 60.4427 63.5783C60.0886 64.2814 59.5469 64.6095 58.9219 64.8543C58.6511 64.9585 58.3802 64.9324 58.1042 64.6616C57.5105 64.0679 57.073 63.4168 57.0209 62.521C56.6927 62.6304 56.3959 62.7397 56.0938 62.6824C55.9896 62.6824 55.9323 62.7658 55.9063 62.8491C55.8542 63.172 55.5782 63.1981 55.3646 63.146C54.224 62.9012 53.1094 62.5783 52.0469 62.0627C51.4792 61.7918 50.8542 61.5991 50.2813 62.0627C50.1459 62.172 49.9844 62.1408 49.849 62.1408C49.3073 62.1408 48.8698 61.8179 48.3802 61.6304C47.5677 61.3022 46.7761 60.8699 45.8802 60.7606C45.4219 60.7085 44.9844 60.4897 44.5261 60.6772C43.8438 60.9481 43.2448 60.8127 42.7292 60.3283C42.4323 60.0574 42.1355 59.896 41.698 59.9481C41.2084 60.0002 40.6927 59.9481 40.3386 59.5418C39.6615 58.7554 38.9844 57.9689 38.9011 56.8856C38.9011 56.7762 38.9011 56.6981 38.7917 56.6408C38.224 56.9689 37.8959 57.021 37.5677 56.6408C37.1875 56.2085 36.7552 55.7762 36.698 55.1512C36.6719 54.8804 36.5625 54.5835 36.2657 54.6356C35.9688 54.6929 35.8021 54.5002 35.6146 54.422C35.2865 54.6095 34.9896 54.7449 34.6927 54.8543C34.474 54.9324 34.2292 54.8543 34.1719 54.771C34.0105 54.4741 33.6563 54.2554 33.6302 53.9064C33.5469 53.2814 33.25 52.9012 32.6511 52.6564C32.2188 52.4689 31.7292 52.1147 31.8646 51.521C31.948 51.1668 31.8646 50.8699 31.8646 50.5731C31.8386 50.0314 31.4584 49.7293 30.9427 49.6512C30.698 49.6252 30.4792 49.5418 30.2344 49.4064C29.3646 48.8908 29.1198 47.9949 28.6615 47.2397C28.4948 46.9689 28.3855 46.6408 28.5521 46.2918C28.7136 45.8856 28.4688 45.1772 28.0886 44.8804C27.573 44.4481 26.948 44.5835 26.3802 44.5002C25.9948 44.4481 25.9167 44.8283 25.7813 45.0991C25.7813 45.0991 25.7552 45.1512 25.724 45.1512C25.2084 45.5054 25.073 45.7189 25.2657 46.2918C25.375 46.6408 25.375 46.9116 25.099 47.1824V47.8595C25.3177 48.5418 25.698 49.2189 25.724 49.896C25.724 50.5158 25.8907 51.0314 26.1615 51.547C26.3802 51.9533 26.7605 52.3074 26.948 52.7397C27.4636 53.9064 28.4688 54.5574 29.474 55.2345C29.5834 55.3127 29.6667 55.4481 29.7448 55.5574C30.2917 56.2345 30.8073 56.9116 31.5677 57.3439C31.6771 57.4012 31.7292 57.5106 31.7813 57.6147C32.1355 58.2658 32.573 58.8908 32.9219 59.5418C33.1146 59.922 33.5469 60.0835 33.9844 60.1095C34.9636 60.1668 35.5886 60.7345 36.0209 61.547C36.6198 62.6824 37.4063 63.5522 38.7917 63.6877C39.198 63.7137 39.6094 63.6877 40.0677 63.6877C40.125 64.0939 40.3959 64.3908 40.6146 64.7189C40.75 64.9064 40.9948 65.0939 41.1563 65.0679C42 64.9324 42.5938 65.7449 43.4375 65.6095C43.7344 65.5574 43.9011 65.9116 43.9532 66.1824C44.1459 66.9637 44.849 67.5106 45.6355 67.5106C45.8542 67.5106 46.0469 67.4272 46.1823 67.2658C46.4271 66.9637 46.698 66.8856 47.0782 67.021C47.4011 67.1564 47.7813 67.2397 48.1094 67.3752C48.2709 67.4272 48.4063 67.5366 48.4896 67.6981C49.25 69.0522 50.3907 69.5939 51.9688 69.4585C52.7032 69.4064 53.4896 69.1616 54.1927 69.6199C54.3855 69.7293 54.573 69.8647 54.7396 70.0262C55.0105 70.271 55.2813 70.4637 55.6615 70.2449C55.8802 70.1356 56.0938 70.297 56.3125 70.3283C56.9115 70.3283 57.375 70.1356 57.6719 69.6199C57.698 69.5418 57.7552 69.4845 57.8073 69.4064C58.1615 69.7554 58.5417 69.9481 59.0052 69.9741C59.2188 69.9741 59.3855 70.1356 59.5209 70.297C60.4688 71.4116 61.4219 71.3543 62.1563 70.3804C62.1823 70.3283 62.2605 70.297 62.2917 70.271C62.6407 70.4637 62.6719 71.0054 63.1875 70.9793C63.7032 70.9481 63.8907 70.5418 64.2188 70.2189C64.7084 70.7033 65.3594 70.7866 66.0365 70.7606C66.8802 70.7345 67.6667 70.7866 68.5105 70.5158C69.2188 70.297 70.0313 70.5158 70.8177 70.5679C70.875 70.5679 70.9271 70.6252 70.9844 70.6772C71.5261 71.3283 72.1771 71.1929 72.8021 70.8699C73.5105 70.5158 74.2448 70.6772 74.974 70.6772C75.25 70.6772 75.3855 71.0314 75.573 71.2502H76.0625C76.823 70.9481 77.6667 70.8439 78.4011 70.5418C79.5105 70.0835 80.573 70.0835 81.7136 70.271C82.5261 70.4064 83.3177 70.271 84.0209 69.7293C84.5365 69.3491 85.0261 68.9429 85.6511 68.7554C86.4688 68.5106 87.2552 68.2658 88.0677 68.021C88.3698 67.9168 88.7188 67.9429 89.073 68.0522C89.9427 68.3231 91.1927 67.5106 91.1927 66.5887C91.1927 66.1824 91.3855 66.2085 91.6302 66.1252C91.6302 66.3439 91.6563 66.5314 91.7344 66.6929C92.0625 67.4793 92.6875 67.672 93.3125 67.1304C94.4011 66.1824 95.6198 65.3387 96.2188 63.9845C97.6875 64.6095 97.9844 64.5002 99.0157 63.172C99.5886 62.4429 99.6667 62.0054 99.3698 61.5731C99.75 61.3856 100.104 61.1929 100.536 61.2502C100.807 61.2502 101.052 61.1929 101.271 61.0574C102.411 60.3283 103.417 59.4324 104.177 58.3231C104.396 57.9949 104.615 57.646 105.104 57.6981C105.266 57.6981 105.344 57.5887 105.401 57.4793C105.807 56.8856 106.432 56.5054 106.948 56.021C107.219 55.7502 107.495 55.4741 107.573 55.0418C107.63 54.6929 107.734 54.2033 108.115 54.0939C108.5 53.9845 108.714 53.7397 108.932 53.4689C109.531 52.6877 110.125 51.8699 110.266 50.8439C110.266 50.7606 110.318 50.7085 110.37 50.6512C111.677 49.4585 112.109 47.8074 112.708 46.2345C112.844 45.9116 113.005 45.5054 112.76 45.1252L112.708 45.0158Z" fill="#E1A141"/>
<path d="M45.0677 33.9062C47.0209 35.5312 49.2761 36.776 51.5886 37.8073C54.25 39 57.0729 39.6771 59.9271 40.2448C61.9636 40.651 64 41.0312 66.0677 41.3333C67.5313 41.5469 69 41.6823 70.4948 41.6562C72.4219 41.6042 74.3229 41.5208 76.224 41.3333C77.4219 41.224 78.5886 41.0312 79.7292 40.7604C81.7656 40.276 83.6979 39.4323 85.625 38.6458C87.0938 38.0521 88.4219 37.1875 89.7552 36.3698C92.0104 35.0156 94.1823 33.5521 95.974 31.5781C97.1719 30.25 98.2813 28.8646 98.9375 27.1875C98.9896 27.0208 99.125 26.8594 98.9896 26.6719C98.6094 26.9427 98.2813 27.2396 97.9584 27.5104C96.625 28.6771 95.3229 29.8698 94.0469 31.0885C93.4219 31.6562 92.7709 32.1719 92.0886 32.6615C90.6511 33.7188 89.0469 34.4479 87.5 35.2604C85.5677 36.2656 83.5052 36.9688 81.3854 37.4844C79.5417 37.9167 77.6667 38.2396 75.7917 38.5417C74.7031 38.7031 73.5886 38.8646 72.4792 38.9219C70.3021 39 68.1302 38.9219 65.9584 38.7552C64.4896 38.6458 63.0209 38.4323 61.5834 38.1354C59.0052 37.5938 56.474 36.8854 53.9479 36.1562C52.6459 35.776 51.3438 35.3438 50.1198 34.7708C48.4375 33.9583 46.8594 32.901 45.2865 31.901C43.599 30.8177 42 29.5729 40.2865 28.4583C40.2865 28.5417 40.2604 28.5938 40.2865 28.5938C41.5886 30.6562 43.2188 32.3906 45.0677 33.9323V33.9062Z" fill="#E1A141"/>
<path d="M103.771 31.6821C104.068 31.6821 104.667 30.8436 104.583 30.5207C104.479 30.0832 104.125 30.0051 103.661 30.0571C103.365 30.0051 103.036 30.0571 103.062 30.5467C103.094 31.1405 103.443 31.6821 103.745 31.6821H103.771Z" fill="#E1A141"/>
<path d="M45.9636 57.0729C45.6927 57.3177 45.9115 57.9427 46.3959 58.375C46.9688 57.8906 47.1875 57.401 46.9688 57.1562C46.724 56.9114 46.1823 56.8594 45.9636 57.0729Z" fill="#E1A141"/>
<path d="M105.427 42.0882C105.62 42.0882 105.943 41.5205 105.969 41.1663C106 40.8174 105.729 40.708 105.51 40.708C105.208 40.708 104.828 40.708 104.75 41.1143C104.693 41.359 105.24 42.0622 105.427 42.0622V42.0882Z" fill="#E1A141"/>
<path d="M92.9323 51.8438C92.9323 52.25 93.2032 52.6875 93.474 52.6875C93.6927 52.6875 94.1563 52.0625 94.099 51.7656C94.0469 51.4115 93.7448 51.3854 93.4479 51.3594C93.1198 51.3594 92.9063 51.4375 92.9323 51.8438Z" fill="#E1A141"/>
<path d="M37.1614 49.4061C37.3802 49.4061 37.8125 48.8384 37.8125 48.5675C37.8125 48.1873 37.4635 48.104 37.2187 48.104C37 48.104 36.6198 48.104 36.6718 48.5103C36.6718 48.9478 36.9166 49.4061 37.1614 49.4061Z" fill="#E1A141"/>
<path d="M34.9896 46.0208C35.3125 46.0208 35.4532 45.6145 35.5053 45.3124C35.5573 44.9635 35.2084 44.9895 35.0157 44.9374C34.8282 44.9062 34.5521 44.9374 34.6094 45.3958C34.6928 45.5572 34.6094 46.0208 35.0157 46.0208H34.9896Z" fill="#E1A141"/>
<path d="M35.2084 30.0314C35.5052 30.0314 35.6406 29.6772 35.6927 29.4064C35.75 29.1095 35.5052 29.0001 35.2344 29.0262C35.0156 29.0262 34.7188 29.0262 34.7969 29.3543C34.8542 29.6251 34.7969 30.0574 35.2344 30.0314H35.2084Z" fill="#E1A141"/>
<path d="M83.5886 60.3539C83.4792 60.8122 83.6407 61.1143 83.9688 61.3278C84.323 61.1664 84.4011 60.8122 84.323 60.5414C84.2396 60.2184 83.8855 60.3539 83.5886 60.3539Z" fill="#E1A141"/>
<path d="M79.6771 59.135C79.5417 59.3798 79.6771 59.76 79.9479 59.786C80.3281 59.786 80.4635 59.4319 80.5729 59.0256C80.2188 58.9423 79.8646 58.7548 79.6771 59.135Z" fill="#E1A141"/>
<path d="M50.5834 51.1664C50.3386 51.4945 50.5834 51.7914 50.8542 52.0362C51.125 51.8174 51.3959 51.5726 51.2344 51.2237C51.099 50.9528 50.7188 50.9789 50.5834 51.1664Z" fill="#E1A141"/>
<path d="M85.2708 44.0415C85.5156 44.1196 85.651 43.7707 85.6771 43.5259C85.6771 43.1196 85.4063 43.1717 85.1354 43.2029C85.1875 43.4998 84.8385 43.9061 85.2708 44.0415Z" fill="#E1A141"/>
<path d="M103.745 45.8277C103.906 45.9891 103.906 46.2912 104.234 46.3173C104.422 46.0985 104.422 45.885 104.37 45.6141C104.125 45.5308 103.906 45.5308 103.745 45.8277Z" fill="#E1A141"/>
<path d="M38.9271 43.4166C39.0885 43.3645 39.1979 43.1457 39.1458 42.9322C38.875 42.8489 38.6302 42.7968 38.4375 43.1197C38.5729 43.2551 38.6562 43.5259 38.901 43.4166H38.9271Z" fill="#E1A141"/>
<path d="M106.594 44.3123C106.703 44.1508 106.786 43.9841 106.703 43.7966C106.516 43.7706 106.323 43.7133 106.188 43.906C106.245 44.1196 106.349 44.2862 106.594 44.2862V44.3123Z" fill="#E1A141"/>
<path d="M30.8073 46.6401C30.9167 46.5047 31.0782 46.4266 31.0209 46.2079C30.8594 46.1558 30.698 46.0985 30.5052 46.2079C30.5052 46.4526 30.6146 46.536 30.8073 46.6141V46.6401Z" fill="#E1A141"/>
<path d="M76.875 60.3798C76.5781 60.2183 76.2552 60.3016 76.0364 60.4891C75.7917 60.6766 75.9531 60.9475 76.0625 61.1662C76.1458 61.3537 76.2552 61.5204 76.4167 61.6558H76.7969C76.7969 61.437 76.9583 61.2495 77.0156 61.0308C77.0677 60.812 77.2292 60.5412 76.875 60.3798Z" fill="#F4E5B9"/>
<path d="M35.125 36.9688V37.2656C35.2865 37.375 35.3125 37.6459 35.6146 37.6198C35.75 37.4011 35.8854 37.1875 35.75 36.9167C35.5312 36.8854 35.3125 36.8854 35.125 36.9688Z" fill="#F4E5B9"/>
<path d="M81.8751 9.38001C81.4688 9.24459 81.0886 9.46334 80.9792 9.92167C80.1355 9.48938 79.2657 9.57272 78.4271 9.78626C77.9896 9.89563 77.6667 9.92168 77.6094 9.35397C77.6094 9.16647 77.4219 9.08313 77.2553 8.97376C76.3594 8.48938 75.4636 8.59876 74.5678 8.94772C74.2709 9.05709 74.1615 9.27584 74.323 9.59876C74.5417 10.031 74.8126 10.4113 75.2188 10.656C75.6563 10.9269 75.7084 11.1144 75.4115 11.5779C74.7605 12.6092 73.9167 13.5258 73.073 14.4217C72.6146 14.9113 72.448 15.3696 72.6407 16.0206C72.7761 16.4269 72.5313 16.8592 72.1251 17.0258C71.0626 17.4321 70.1146 18.0519 69.2188 18.729C68.7292 19.1092 68.6198 19.38 68.8386 19.979C68.9167 20.2238 68.8907 20.4373 68.9167 20.656C69.0521 20.7081 69.1876 20.656 69.2969 20.7654C69.8959 21.1404 70.1407 21.1144 70.573 20.4946C71.0938 19.7602 71.5521 18.9998 72.0678 18.2967C72.3126 17.9738 72.3959 17.5102 72.7501 17.2967C72.9636 17.1613 73.099 16.9946 73.1823 16.7238C73.6459 16.9946 73.9428 16.7238 74.1615 16.4008C74.8386 15.4529 75.2761 14.3696 75.6303 13.2863C75.8438 12.5779 75.9532 11.8488 75.9271 11.0883C76.3594 11.0363 76.823 11.1977 77.1771 10.7081C77.1771 11.4425 77.7448 11.1977 78.073 11.3331C79.1042 11.7915 80.1667 12.5519 81.3073 11.5206C81.4948 11.3592 81.7657 11.3852 81.8751 11.6873C82.1459 12.3644 82.8282 12.6613 83.2084 13.255C83.1823 12.7967 83.073 12.3644 83.2084 11.9269C83.4219 10.979 82.7448 9.70813 81.823 9.41126L81.8751 9.38001Z" fill="#F4E5B9"/>
<path d="M51.6667 30.2188C49.7396 29.1615 47.8385 28.0781 45.8802 27.1042C44.3333 26.3177 42.8385 25.4531 41.375 24.5312C40.6927 24.099 40.0417 23.6354 39.3906 23.2031C44.9062 29.9792 52.0781 33.3906 60.8229 33.7448C60.6042 33.5 60.3333 33.474 60.1146 33.4167C57.1823 32.6615 54.3281 31.6823 51.6667 30.2188Z" fill="#F4E5B9"/>
<path d="M89.2917 14.9111C88.3699 14.8278 87.5261 15.1559 86.6824 15.4268C85.6511 15.7497 84.5626 16.0205 83.7501 16.8591C83.4532 17.1872 83.5313 17.3226 83.7501 17.4841C84.5105 16.9424 85.3542 17.2966 86.1407 17.1611C86.9271 17.0257 87.7709 16.8591 88.5574 16.833C88.6667 17.0257 88.6407 17.1872 88.6146 17.3486C88.5053 18.2184 88.3959 19.083 88.4219 19.9789C88.4219 20.057 88.3699 20.1664 88.3386 20.2497C87.9896 20.9268 87.7449 21.682 87.4167 22.3903C86.6303 24.1507 86.3334 25.9945 86.5209 27.9736C86.7657 27.0518 87.4428 26.4007 87.7449 25.5049C88.2032 24.1507 88.6146 22.7705 88.9949 21.3851C89.073 21.0361 89.1824 20.682 89.0469 20.3591C88.6407 19.4059 88.6928 18.432 88.7188 17.432C88.7188 17.0518 88.8594 16.7549 89.2396 16.5101C89.9167 16.1038 90.4896 15.5309 91.2501 15.182C90.5417 15.208 89.9167 14.9893 89.2657 14.9372L89.2917 14.9111Z" fill="#F4E5B9"/>
<path d="M59.9011 17.0256C59.7084 17.2392 59.6824 17.3746 59.7917 17.5673C59.9011 17.7548 60.0365 17.8902 60.2501 17.7288C60.3595 17.6454 60.4688 17.6715 60.5522 17.7288C61.0938 18.135 61.7761 18.2444 62.4011 18.4579C62.7813 18.5673 63.0782 18.5152 63.3751 18.2965C63.7553 17.9996 64.1667 17.7808 64.7865 17.7548C64.4063 17.4319 64.0834 17.2392 63.922 16.9163C63.7292 16.51 63.349 16.3486 62.9688 16.2652C61.8282 16.0725 60.7397 16.0204 59.8699 17.0256H59.9011Z" fill="#F4E5B9"/>
<path d="M69.9219 8.62456C68.4584 9.30165 69.2969 10.3277 69.4636 11.2235C70.3594 11.036 70.4948 10.1923 70.7917 9.54644C71.3073 9.84331 71.8542 9.86936 72.3386 10.1402C72.099 9.75998 71.9063 9.37977 71.7709 8.97352C71.6355 8.54123 71.3646 8.21831 71.0105 7.91623C70.4948 7.48394 69.948 7.07769 69.4323 6.61936C69.3803 6.56206 69.3803 6.40061 69.2188 6.42665C69.0834 6.45269 69.0521 6.56206 69.0261 6.67144C68.974 6.94227 69 7.18706 69.1355 7.4579C69.3542 7.86415 69.599 8.21831 69.9219 8.62456Z" fill="#F4E5B9"/>
<path d="M74.7604 5.88546C74.9479 5.64067 75.1927 5.45316 75.4375 5.29171C75.7917 5.04692 76.1458 4.71879 76.6875 4.9115V6.15629C76.7396 6.10421 76.7708 6.10421 76.7708 6.07817C77.4219 4.75004 77.5573 3.22921 78.099 1.87504C78.1562 1.76566 78.1562 1.57817 77.9896 1.55212C77.8281 1.49483 77.6927 1.55212 77.6354 1.76567C77.5312 2.06775 77.3385 2.33858 77.2031 2.60942C76.9844 3.01567 76.7708 3.44796 76.7969 3.90629C76.7969 4.42192 76.6042 4.55733 76.1458 4.50525C75.2188 4.39587 74.349 4.58338 73.5104 5.02087C73.0729 5.26567 72.7188 5.56254 72.6406 6.07817C72.5833 6.40108 72.4479 6.67192 72.3125 6.94275C73.2656 6.89067 74.1042 6.64587 74.7031 5.88546H74.7604Z" fill="#F4E5B9"/>
<path d="M94.9688 27.0518C95.1302 26.9684 95.1875 26.9424 95.2396 26.9163C96.7604 26.0465 97.9583 24.8278 99.2083 23.6351C100.292 22.5778 100.948 21.333 101.271 19.8955C99.125 22.1976 96.8958 24.3955 94.9688 27.0518Z" fill="#F4E5B9"/>
<path d="M82.1459 26.4009C81.9323 25.9946 81.7136 25.6978 82.1459 25.3957C81.7396 25.1821 81.6042 24.4738 81.0313 24.828C79.4323 23.5259 77.6355 22.7707 75.6823 22.3071C75.6303 22.6613 75.8178 22.7707 76.0105 22.7967C76.823 22.8488 77.3646 23.3644 77.9115 23.88C78.5886 24.5311 79.2396 25.2082 80.0001 25.7759C80.4063 26.0728 80.9532 26.0207 81.3073 26.453C81.3594 26.13 81.0626 25.9373 81.1719 25.6144C81.4688 25.8592 81.7657 26.0728 82.1459 26.4009Z" fill="#F4E5B9"/>
<path d="M79.7865 20.7085C80.0833 20.8439 80.3802 20.8439 80.5469 20.4637C80.7083 20.0574 80.8958 19.6512 81.0312 19.2449C81.0885 19.0314 81.1146 18.7293 80.8177 18.5678C80.4062 18.3803 80.0573 18.1095 79.5677 18.1876C79.2396 18.1355 78.9167 18.2449 78.6146 18.323C78.1823 18.4585 77.9635 18.922 78.2083 19.271C78.6146 19.8439 79.1042 20.4116 79.7865 20.6824V20.7085Z" fill="#F4E5B9"/>
<path d="M48.8177 20.3018C49.0625 19.8956 49.5469 19.7862 49.7656 19.3279C50.1719 18.3539 51.0156 17.7289 51.9948 17.3487C52.2656 17.2393 52.5625 17.3227 52.8646 17.2966C53.1354 17.2966 53.2188 17.0779 53.2188 16.8591C53.2188 16.6195 53 16.6195 52.8073 16.6456C52.5365 16.6977 52.2917 16.781 52.0208 16.8331C51.099 16.9945 50.1458 17.13 49.3073 17.6716C48.6511 18.1091 48.4896 18.5414 48.6511 19.3018C48.7344 19.6248 48.8438 19.9529 48.8177 20.3018Z" fill="#F4E5B9"/>
<path d="M63.2656 24.8803C63.1875 24.6668 63.2396 24.422 63.3229 24.1772C63.6771 23.3126 64.0833 22.4689 64.8438 21.8491C65.0313 21.6824 65.1719 21.4949 65.0313 21.198C64.8177 21.1407 64.6823 21.2241 64.599 21.3595C64.0573 22.2293 63.2396 22.8491 62.5625 23.5834C61.6667 24.5574 61.6354 25.5053 62.4792 26.2918C62.724 26.5105 62.9167 26.4793 63.0521 26.2397C63.2656 25.8334 63.5104 25.3959 63.2969 24.8803H63.2656Z" fill="#F4E5B9"/>
<path d="M67.9115 14.1247C67.8594 14.3122 68.0209 14.4476 68.2136 14.5049C68.2136 14.5049 68.2396 14.5049 68.2656 14.5049C68.4844 14.3695 68.5938 14.583 68.7552 14.6403C69.1354 14.8018 69.3542 15.2341 69.8438 15.208C70.2761 15.182 70.6563 15.2914 71.0625 15.4268C70.7656 14.9111 70.5729 14.3955 70.4688 13.8278C70.4688 13.7184 70.3854 13.6091 70.3021 13.5257C69.7865 12.9841 68.6719 12.7132 67.9948 13.0153C67.3438 13.3122 67.9948 13.7705 67.9115 14.1247Z" fill="#F4E5B9"/>
<path d="M68.4584 26.75C68.0781 25.724 67.75 24.6667 67.4792 23.6094C67.4531 23.474 67.5052 23.2292 67.1511 23.2031C67.5313 24.3385 67.3698 25.5052 67.4531 26.6458C67.5052 27.375 67.724 28.0781 68.1563 28.6771C68.4584 29.1094 69 29.1354 69.1094 28.6771C69.1875 28.3802 69.2969 27.974 69 27.6458C68.7292 27.375 68.6198 27.0521 68.4844 26.6979L68.4584 26.75Z" fill="#F4E5B9"/>
<path d="M92.224 9.89557C91.7084 9.78619 91.1094 10.057 91.0052 10.4372C90.8386 11.0362 90.7032 11.6299 90.3802 12.1716C90.2969 12.3331 90.2969 12.4424 90.4584 12.5518C90.7865 12.281 90.7292 11.7133 91.2188 11.5206C91.4115 11.7654 91.4896 12.0362 91.5469 12.3643C91.8177 12.1716 92.198 12.4424 92.3594 12.1195C92.5782 11.6872 92.7969 11.2237 92.849 10.7393C92.9063 10.2497 92.7136 10.0049 92.2552 9.89557H92.224Z" fill="#F4E5B9"/>
<path d="M67.2604 12.036C66.4739 12.2547 65.6562 12.3068 64.8698 12.5777C63.8645 12.9318 63.052 13.661 62.0156 13.9891C61.8802 14.0412 61.776 14.1506 61.9114 14.3433C62.0156 14.4787 62.125 14.6402 62.3437 14.4787C62.5885 14.2599 62.8854 14.1245 63.1875 14.0672C64.4895 13.8277 65.6875 13.3641 66.7448 12.5777C67.0416 12.3641 67.4531 12.3068 67.6979 11.9839C67.5312 11.8745 67.3958 12.0099 67.2604 12.062V12.036Z" fill="#F4E5B9"/>
<path d="M65.7657 10.4634C65.849 10.6301 65.9323 10.8176 66.0677 10.953C66.4167 11.2811 66.7709 11.7395 67.3177 11.604C67.6146 11.5207 67.9115 11.4165 68.2396 11.4947C68.1302 11.2238 67.8855 11.0884 67.8855 10.8176C67.8855 10.0311 67.3438 9.73425 66.7188 9.48946C66.3386 9.328 65.9584 9.48946 65.6875 9.68216C65.4115 9.89571 65.6563 10.2238 65.7657 10.4634Z" fill="#F4E5B9"/>
<path d="M62.6407 4.80218C62.6407 4.61468 62.6719 4.47926 62.6979 4.23447C63.8646 4.88552 65.0625 5.23448 66.3125 5.5626C65.9323 5.13031 65.5209 4.7501 65.0886 4.34385C64.5157 3.82822 63.8646 3.5001 63.0782 3.53135C62.8073 3.53135 62.4792 3.5001 62.4271 3.80218C62.3698 4.09906 62.2605 4.47926 62.6407 4.77614V4.80218Z" fill="#F4E5B9"/>
<path d="M58.1354 11.0624C58.7865 11.0624 59.4375 10.901 60.0625 11.3072C60.1979 11.3854 60.3073 11.3072 60.3333 11.1458C60.3594 10.9791 60.3333 10.7916 60.1146 10.7916C59.6562 10.7916 59.276 10.5208 58.8958 10.302C58.3802 10.0312 57.8333 9.78639 57.2396 9.81764C56.776 9.81764 56.5052 10.1666 56.0156 10.2499C56.2604 10.3853 56.474 10.4374 56.6146 10.5729C57.0469 11.0104 57.5625 11.0624 58.1615 11.0624H58.1354Z" fill="#F4E5B9"/>
<path d="M96.7604 40.979C96.7083 41.0623 96.6823 41.1404 96.7083 41.2498C96.8698 41.5727 96.9792 41.9269 97.1979 42.1977C97.3333 42.3592 97.6042 42.7654 97.875 42.3852C98.1458 42.0363 98.3125 41.5727 98.3646 41.0623C98.3646 41.0311 98.3385 40.9269 98.2813 40.8436C98.0365 40.4894 96.9792 40.5727 96.7604 40.9529V40.979Z" fill="#F4E5B9"/>
<path d="M66.1459 34.6354C66.0677 34.5573 65.9323 34.5313 65.7917 34.474C64.9271 34.151 64.0261 34.1771 63.1302 34.125C63.5105 34.3125 63.8386 34.5573 64.2188 34.7708C64.7605 35.0729 65.3073 35.3698 65.9584 35.3438C66.1719 35.3438 66.3386 35.2865 66.4167 35.099C66.5 34.8542 66.2813 34.7448 66.1459 34.6354Z" fill="#F4E5B9"/>
<path d="M41.375 50.0312C41.1302 50.1094 40.6667 50.0312 40.6927 50.4635C40.6927 50.8698 40.8854 51.3021 41.2344 51.5729C41.401 51.7083 41.5625 51.7344 41.6979 51.5729C41.9167 51.3021 42.0521 50.9792 42.1042 50.7604C42.1042 50.276 41.7552 49.9479 41.401 50.0573L41.375 50.0312Z" fill="#F4E5B9"/>
<path d="M59.9792 49.2188C59.7084 49.2708 59.3021 49.2188 59.3021 49.6771C59.3021 50.0573 59.7344 50.7083 59.9792 50.7344C60.1719 50.7344 60.6302 50 60.6042 49.651C60.5782 49.3542 60.3334 49.2188 59.9792 49.2188Z" fill="#F4E5B9"/>
<path d="M57.8334 46.4266C57.6199 46.6141 57.7813 47.0204 58.2709 47.4006C58.4844 47.0777 58.7865 46.7756 58.5157 46.4006C58.3803 46.2339 58.0522 46.26 57.8594 46.4006L57.8334 46.4266Z" fill="#F4E5B9"/>
<path d="M41.0209 46.8591C41.0209 46.5883 40.9376 46.505 40.7188 46.505C40.5313 46.505 40.2605 46.4529 40.3126 46.7498C40.3386 46.9946 40.4219 47.3487 40.7501 47.3487C41.0469 47.3487 40.9115 46.9946 41.0469 46.8852L41.0209 46.8591Z" fill="#F4E5B9"/>
<path d="M37.4323 34.7706C37.2448 35.0727 37.5156 35.2341 37.6771 35.3956C38.0052 35.2081 37.9479 34.9633 37.7865 34.7446C37.7031 34.6352 37.5156 34.6352 37.4323 34.7706Z" fill="#F4E5B9"/>
<path d="M101.599 46.5884C101.49 46.453 101.271 46.453 101.187 46.5884C101.026 46.8592 101.187 47.0207 101.432 47.1561C101.625 46.9946 101.812 46.8332 101.599 46.5623V46.5884Z" fill="#F4E5B9"/>
<path d="M81.9844 68.4269C81.7656 68.5623 81.7396 68.7811 81.849 69.0259C81.9011 69.1613 82.0104 69.2706 82.0938 69.38H82.3906C82.474 69.2706 82.5261 69.1092 82.6094 69.0259C82.8281 68.8644 82.8281 68.6456 82.6927 68.5102C82.5 68.3227 82.2292 68.3227 82.0104 68.4581L81.9844 68.4269Z" fill="#9F6D49"/>
<path d="M26.0521 47.2658V47.5626C26.2709 47.698 26.2396 48.0783 26.5938 48.1043C26.8386 47.8595 27.0573 47.5105 26.8386 47.2137C26.6198 46.8855 26.2969 47.1564 26.0521 47.2658Z" fill="#9F6D49"/>
<path d="M88.9636 65.9635C88.5834 65.9635 88.3959 66.099 88.3959 66.3177C88.3959 66.724 88.7188 67.3177 88.9375 67.3177C89.1563 67.3177 89.6459 66.6406 89.5886 66.3177C89.5365 66.0156 89.2084 65.9896 88.9636 65.9375V65.9635Z" fill="#9F6D49"/>
<path d="M55.7969 67.0209C55.6615 67.3178 55.7449 67.6719 56.1251 67.9167C56.3126 67.6146 56.7761 67.4532 56.4219 67.073C56.2865 66.9115 55.9584 66.6928 55.7969 67.0209Z" fill="#9F6D49"/>
<path d="M58.625 67.5361C58.4323 67.5361 58.1354 67.4788 58.1615 67.833C58.1615 68.0518 58.1615 68.3486 58.4844 68.3747C58.651 68.3747 59.1094 67.8851 59.0833 67.7497C59.0312 67.4788 58.8125 67.5622 58.625 67.5361Z" fill="#9F6D49"/>
<path d="M106.078 53.6039C106.078 53.8487 106.297 54.0675 106.49 54.0414C106.896 53.9842 106.651 53.6039 106.729 53.3331C106.432 53.3331 106.109 53.2289 106.078 53.6039Z" fill="#9F6D49"/>
<path d="M31.1563 56.0208C30.9427 56.3177 31.3229 56.4531 31.4844 56.6666C31.6198 56.4531 31.9479 56.2604 31.7292 55.9896C31.6198 55.8541 31.2969 55.8541 31.1563 56.0208Z" fill="#9F6D49"/>
<path d="M44.224 64.8538C44.0053 65.1507 44.3073 65.3121 44.5261 65.5569C44.7396 65.3121 44.9844 65.1247 44.7969 64.8538C44.6615 64.6872 44.3594 64.7184 44.2501 64.8538H44.224Z" fill="#9F6D49"/>
<path d="M93.0417 60.5724C92.849 60.437 92.6354 60.5724 92.5782 60.7599C92.4688 61.0829 92.7709 61.1662 93.0417 61.3276C93.1511 61.0308 93.3646 60.786 93.0417 60.5724Z" fill="#9F6D49"/>
<path d="M87.0626 65.1251C86.9271 65.0418 86.6824 65.1251 86.6042 65.2605C86.4688 65.5835 86.7657 65.6668 87.0105 65.8543C87.1199 65.5835 87.3646 65.3387 87.0365 65.1512L87.0626 65.1251Z" fill="#9F6D49"/>
<path d="M56.3385 65.5572C56.0417 65.802 56.3385 65.9895 56.4219 66.2603C56.776 66.1249 56.8281 65.9114 56.7187 65.6405C56.6667 65.5311 56.4739 65.4218 56.3385 65.5311V65.5572Z" fill="#9F6D49"/>
<path d="M110.266 47.2915C110.125 47.2915 109.99 47.3748 109.99 47.4842C109.99 47.6196 110.073 47.7811 110.234 47.8332C110.427 47.8332 110.453 47.7238 110.479 47.5884C110.505 47.4269 110.427 47.3175 110.266 47.2915Z" fill="#9F6D49"/>
<path d="M109.776 49.0519C109.719 49.2446 109.854 49.38 110.047 49.4581C110.234 49.2967 110.234 49.1092 110.182 48.9165C110.021 48.8644 109.828 48.8644 109.776 49.0519Z" fill="#9F6D49"/>
<path d="M32.7344 55.8851C32.6823 56.0987 32.8438 56.2341 33.0313 56.2914C33.25 56.156 33.1667 55.9893 33.1667 55.7445C32.9792 55.7445 32.7865 55.6664 32.7344 55.8851Z" fill="#9F6D49"/>
<path d="M68.4271 65.2031C67.9688 64.8802 67.5052 64.9896 67.0417 65.0677C66.2032 65.1771 65.9323 65.8281 66.2813 66.6146C66.5 67.0729 66.7448 67.5365 67.099 67.9167H67.6667C68.1302 67.2917 68.5365 66.6406 68.7032 65.8802C68.7552 65.5833 68.7032 65.4219 68.4271 65.2344V65.2031Z" fill="#F2D47B"/>
<path d="M29.3906 50.5989C29.474 50.0312 29.5 49.4322 29.3906 48.8645C29.3385 48.6458 29.3385 48.2708 28.9844 48.2395C28.5781 48.1874 28.1979 48.2395 27.8438 48.4843C27.5729 48.7031 27.276 48.8906 27 49.0833V49.5676C27.4896 50.1926 27.9792 50.7864 28.8229 50.9531C29.151 51.0312 29.3385 50.8697 29.3646 50.5989H29.3906Z" fill="#F2D47B"/>
<path d="M79.2396 63.8226C78.8594 63.5778 78.4531 63.3903 77.9896 63.3331C77.4479 63.281 77.0677 63.4685 76.7708 64.0101C76.7135 64.1195 76.6042 64.1768 76.4948 64.1768C75.9792 64.1768 75.9531 64.4997 76.1146 64.9581C75.7344 64.7966 75.4375 64.6351 75.1406 64.5258C74.8646 64.4476 74.5677 64.3643 74.2708 64.5831C74.026 64.7706 73.8906 65.0153 74 65.2862C74.1042 65.6091 74.2448 65.9633 74.4844 66.2601C74.6771 66.4789 74.8958 66.6403 75.1667 66.3695C75.276 66.2601 75.4115 66.3174 75.4896 66.4216C75.6562 66.6143 75.8698 66.6924 76.0885 66.8018C76.5521 67.0206 77.0937 67.1039 77.4219 67.5622C77.5573 67.7497 77.8021 67.7237 77.9115 67.5362C78.1562 67.0206 78.6406 66.6664 78.9687 66.2081C79.1615 65.9372 79.2656 65.5831 79.4583 65.3122C79.7865 64.7966 79.6458 64.1195 79.2656 63.8747L79.2396 63.8226Z" fill="#F2D47B"/>
<path d="M104.448 50.0574C104.016 50.1928 104.151 50.6824 104.042 51.0053C104.016 51.0887 104.042 51.1928 104.042 51.2501C103.958 51.7918 104.177 52.198 104.37 52.6043C104.557 53.0366 105.13 53.0366 105.401 52.6043C105.698 52.1147 106 51.6303 106.135 51.0574C106.187 50.7866 106.245 50.4897 106 50.2449C105.536 49.8126 104.995 49.896 104.479 50.0574H104.448Z" fill="#F2D47B"/>
<path d="M88.4219 62.3592C88.0417 62.3592 87.7969 62.5467 87.7448 62.9269C87.8802 63.2238 87.9896 63.5519 88.1511 63.8488C88.2865 64.1196 88.4792 64.4165 88.8281 64.4478C89.2084 64.4738 89.3177 64.1457 89.4531 63.8749C89.5365 63.7394 89.6198 63.6353 89.6719 63.4999C89.7813 63.2238 89.8906 62.9009 89.7552 62.7134C89.4531 62.2499 88.9115 62.3332 88.4479 62.3592H88.4219Z" fill="#F2D47B"/>
<path d="M55.2292 63.0361C54.9531 62.984 54.6823 63.1195 54.4115 63.1715C54.224 63.1976 54.0886 63.333 54.0573 63.5778C54.0573 63.984 54.6563 64.9059 55.0365 65.0674C55.1459 65.1247 55.1979 65.0674 55.3073 65.0674C55.8229 64.9893 55.7969 64.5257 55.9896 64.1768C56.3386 63.4997 56.0417 63.0101 55.2552 63.0361H55.2292Z" fill="#F2D47B"/>
<path d="M60.224 64.4478C60.0625 64.4998 59.8177 64.5259 59.599 64.6092C59.3542 64.7186 58.974 64.6873 58.9219 64.9582C58.8646 65.2863 59.1667 65.5311 59.3542 65.7446C59.3854 65.7759 59.4375 65.8019 59.4636 65.828C60.3073 66.5571 60.6042 66.5311 60.9844 65.5311C61.2552 64.8228 61.0417 64.5259 60.1979 64.4478H60.224Z" fill="#F2D47B"/>
<path d="M38.1667 58.703C38.0052 58.5103 37.8125 58.3749 37.5677 58.4322C36.974 58.4322 36.5938 58.7551 36.7292 59.1874C36.8386 59.5416 37 59.8957 37.2708 60.1666C37.6771 60.5728 38.3594 60.4635 38.5729 59.9218C38.6563 59.677 38.9011 59.3801 38.5729 59.1353C38.4115 58.9999 38.2761 58.8645 38.1667 58.703Z" fill="#F2D47B"/>
<path d="M95.8125 58.5103C95.5417 58.5363 95.2396 58.5675 94.9688 58.6196C94.75 58.6717 94.6458 58.8644 94.6719 59.0519C94.7813 59.4321 94.8594 59.8644 95.1042 60.1925C95.5104 60.7603 95.7552 60.7342 96.1354 60.1092C96.2708 59.8957 96.3802 59.6769 96.4636 59.4582C96.6823 58.8905 96.4115 58.5103 95.7865 58.5103H95.8125Z" fill="#F2D47B"/>
<path d="M70.25 64.2031C69.4062 63.9323 68.8646 64.2812 68.7031 65.151C68.8906 65.2344 69.1094 65.1771 69.2708 65.3385C69.4062 65.4739 69.599 65.5833 69.7865 65.6666C69.9479 65.7448 70.0885 65.9114 70.3021 65.8281C70.5469 65.7187 70.9271 65.0937 70.875 64.7708C70.8177 64.4166 70.5208 64.2812 70.25 64.2031Z" fill="#F2D47B"/>
<path d="M99.125 57.401C98.6615 57.0468 97.7396 57.2083 97.4948 57.7552C97.3855 58.026 97.198 58.1874 96.8959 58.3229C96.9532 58.4843 96.9532 58.7031 97.1407 58.6197C97.5782 58.401 97.823 58.6718 98.1198 58.8645C98.3125 58.9739 98.5261 59.0781 98.6927 58.8906C98.9896 58.5364 99.2605 58.1874 99.2605 57.6979C99.2605 57.5624 99.2084 57.5104 99.099 57.427L99.125 57.401Z" fill="#F2D47B"/>
<path d="M49.6562 63.1196C49.3333 63.2238 48.8177 63.1717 48.5729 63.604C48.3281 64.0415 48.7864 64.3123 48.8698 64.6613V64.6873C49.1667 65.0675 49.4948 65.0936 49.8229 64.7446C50.0677 64.4998 50.1458 64.203 50.2552 63.9061C50.4739 63.3332 50.3385 63.0884 49.6302 63.0884L49.6562 63.1196Z" fill="#F2D47B"/>
<path d="M47.401 60.6769C47.0521 60.5415 46.75 60.6769 46.4271 60.7863C46.099 60.8696 45.9635 61.1404 46.0469 61.4633C46.1563 61.7915 46.3177 62.1144 46.5885 62.3331C46.9427 62.656 47.2656 62.604 47.4583 62.1717C47.5938 61.8696 47.7813 61.5988 47.7552 61.1925C47.8646 60.8956 47.6458 60.7863 47.375 60.6769H47.401Z" fill="#F2D47B"/>
<path d="M29.7709 52.3593C29.7709 52.2499 29.8021 52.1718 29.7709 52.0884C29.7188 51.7916 29.6928 51.4947 29.448 51.302C29.2032 51.1145 28.6303 51.302 28.2813 51.7343C28.0625 51.9791 28.1146 52.2812 28.2813 52.5207C28.4688 52.7916 28.7396 52.9843 29.0105 53.1197C29.5 53.3645 29.7188 53.2291 29.7709 52.6874C29.7709 52.6041 29.7709 52.4947 29.7709 52.3853V52.3593Z" fill="#F2D47B"/>
<path d="M83.724 64.4164C83.4219 64.7184 83.5625 65.0674 83.724 65.3695C83.8021 65.5049 83.8334 65.6924 83.9427 65.7757C84.1042 65.9372 84.3229 66.2601 84.5938 65.9893C84.8907 65.6924 85.0834 65.2861 85.1615 64.932C85.1615 64.6872 85.1615 64.583 85.0521 64.4736C84.8073 64.2289 83.9427 64.1455 83.6979 64.3903L83.724 64.4164Z" fill="#F2D47B"/>
<path d="M86.6042 62.7393C86.1667 62.8747 85.7864 63.7705 86.0573 64.1195C86.4114 64.583 86.9844 64.5518 87.2812 64.0674C87.5 63.7132 87.6614 63.3643 87.6875 62.9268C87.3646 62.7132 87.0104 62.6039 86.6042 62.7393Z" fill="#F2D47B"/>
<path d="M64.4375 65.828C64.1354 65.9113 63.7552 65.9374 63.8386 66.3957C63.9219 66.828 64.0834 67.2394 64.4063 67.5624C64.599 67.7499 64.8177 67.7811 64.9792 67.5624C65.1719 67.2655 65.4115 66.9634 65.3594 66.5884C65.3594 66.0728 64.8959 65.7186 64.4375 65.828Z" fill="#F2D47B"/>
<path d="M58.3802 64.0675C57.8334 63.7134 57.099 63.8227 56.6927 64.3644C56.9948 64.7186 57.2084 65.0936 57.6198 65.2863C58.0261 65.4738 58.2709 65.4217 58.4063 65.0154C58.4584 64.88 58.5417 64.7706 58.5677 64.6352C58.6511 64.3904 58.625 64.229 58.3802 64.0675Z" fill="#F2D47B"/>
<path d="M100.646 55.8021C100.646 55.3385 100.536 55.2344 99.9688 55.2344C99.3959 55.2344 99.2084 55.3385 99.2084 55.7188C99.2084 56.1823 99.6407 56.9115 99.9115 56.9375C100.156 56.9375 100.62 56.2083 100.646 55.8021Z" fill="#F2D47B"/>
<path d="M103.526 53.5259C102.984 53.5259 102.656 53.7394 102.656 54.0675C102.656 54.4998 103.094 55.0675 103.417 55.0415C103.719 55.0415 104.125 54.4217 104.125 54.0155C104.125 53.5519 103.745 53.6353 103.526 53.5259Z" fill="#F2D47B"/>
<path d="M88.0156 62.1406C88.2031 62.1406 88.5833 61.5208 88.5573 61.2188C88.5573 60.9219 88.125 60.625 87.7187 60.625C87.526 60.7344 87.0937 60.599 87.0625 61.0312C87.0364 61.3542 87.7448 62.1406 88.0156 62.1406Z" fill="#F2D47B"/>
<path d="M35.3959 55.2602C34.9063 55.2342 34.5834 55.4217 34.5521 55.7446C34.5521 56.0988 35.073 56.8331 35.3438 56.8592C35.5886 56.8592 35.8855 56.2915 35.8855 55.7446C35.9375 55.3956 35.6927 55.2602 35.3959 55.2602Z" fill="#F2D47B"/>
<path d="M41.375 60.6247C41.0208 60.6247 40.9375 60.8434 40.9375 61.1143C40.9375 61.4945 41.401 62.1976 41.6979 62.2236C41.9167 62.2236 42.2396 61.708 42.2708 61.2757C42.2708 60.8955 41.9167 60.6247 41.375 60.5986V60.6247Z" fill="#F2D47B"/>
<path d="M37.0781 58.1041C37.4062 57.8593 37.5417 57.5104 37.625 57.1823C37.6771 56.9948 37.7031 56.776 37.5156 56.5625C37.2188 56.2343 37 56.4531 36.7292 56.5625C36.375 56.7239 36.3177 56.9948 36.4583 57.3177C36.5625 57.6145 36.7292 57.9166 37.1094 58.1041H37.0781Z" fill="#F2D47B"/>
<path d="M53.2708 64.1196C53.1094 63.9321 52.8906 63.8228 52.7552 63.5259C52.375 64.0936 52.375 64.6353 52.6719 65.1248C52.7813 65.3123 52.8906 65.6925 53.1875 65.5832C53.5156 65.4478 53.5677 65.0936 53.5417 64.7707C53.5417 64.5259 53.4063 64.3123 53.2708 64.1196Z" fill="#F2D47B"/>
<path d="M107.953 48.1302C107.573 48.1302 107.219 48.0781 107.25 48.5416C107.25 48.8906 107.708 49.5416 107.953 49.5416C108.146 49.5416 108.578 48.8385 108.578 48.5416C108.578 48.1041 108.198 48.1614 107.979 48.1302H107.953Z" fill="#F2D47B"/>
<path d="M102.031 54.1768C101.734 54.1768 101.245 54.4997 101.245 54.7184C101.245 55.1507 101.625 55.6924 101.922 55.6924C102.193 55.6924 102.495 55.2341 102.469 54.8538C102.469 54.583 102.224 54.2028 102.005 54.1768H102.031Z" fill="#F2D47B"/>
<path d="M30.9427 52.0626C30.9427 51.8178 30.8594 51.547 30.5052 51.573C30.2344 51.573 30.0469 51.7084 29.9375 51.9012C29.8021 52.1147 29.9896 52.2814 30.125 52.4168C30.3177 52.6564 30.6406 52.7397 30.75 53.0939C30.8073 53.2293 31.0521 53.3647 31.2136 53.2814C31.4011 53.172 31.375 52.9012 31.2136 52.7918C30.9427 52.6043 30.9427 52.3334 30.9427 52.0626Z" fill="#F2D47B"/>
<path d="M71.7969 65.151C71.6875 65.0677 71.5781 64.7969 71.3906 65.0156C71.2292 65.1771 71.0104 65.3698 71.1198 65.6666C71.2552 66.0156 71.3646 66.3958 71.7969 66.5573C72.4219 65.9375 72.4219 65.5573 71.7969 65.151Z" fill="#F2D47B"/>
<path d="M39.5782 59.6509C39.6875 60.2707 39.8802 60.7863 40.1771 61.2498C40.2605 61.3853 40.3698 61.5467 40.5573 61.4634C40.7188 61.4113 40.7761 61.2186 40.8021 61.0832C40.8282 60.9217 40.8021 60.7342 40.6927 60.5988C40.3698 60.2446 40.0677 59.8957 39.5521 59.6769L39.5782 59.6509Z" fill="#F2D47B"/>
<path d="M90.625 62.9529C90.4323 62.9529 90.0521 62.9529 90.1354 63.3332C90.1875 63.6352 90.2448 64.0675 90.625 64.0675C90.974 64.0675 91.0573 63.7134 91.0833 63.3332C91.0833 63.0884 90.8958 62.9269 90.625 62.9529Z" fill="#F2D47B"/>
<path d="M51.9948 62.7396C51.724 62.5469 51.4531 62.6563 51.2604 62.849C51.0417 63.0365 51.3177 63.4688 51.8021 63.7969C52.1823 63.3646 52.2656 62.9271 52.0208 62.7396H51.9948Z" fill="#F2D47B"/>
<path d="M100.266 57.2393C100.104 57.2653 99.8334 57.2393 99.8855 57.5622C99.9115 57.833 99.9688 58.1611 100.292 58.1872C100.62 58.1872 100.703 57.8903 100.729 57.6143C100.781 57.2913 100.51 57.2653 100.266 57.2393Z" fill="#F2D47B"/>
<path d="M27.5469 47.0469C27.7344 47.0469 27.7917 46.9115 27.7657 46.75C27.7344 46.5885 27.7084 46.401 27.5469 46.3438C27.2761 46.401 27.0573 46.4271 27.1094 46.6979C27.1407 46.9427 27.3542 47.0208 27.5469 47.0208V47.0469Z" fill="#F2D47B"/>
<path d="M108.771 46.75C108.771 47.0469 108.714 47.349 109.016 47.5104C109.12 47.5625 109.229 47.4531 109.26 47.349C109.286 47.0469 109.177 46.8073 108.797 46.75H108.771Z" fill="#F2D47B"/>
</svg>
