<svg width="426" height="279" viewBox="0 0 426 279" fill="none" xmlns="http://www.w3.org/2000/svg">
<mask id="mask0_1_12995" style="mask-type:luminance" maskUnits="userSpaceOnUse" x="0" y="0" width="426" height="280">
<path d="M425.667 0.333496H0.333313V279H425.667V0.333496Z" fill="white"/>
</mask>
<g mask="url(#mask0_1_12995)">
<mask id="mask1_1_12995" style="mask-type:luminance" maskUnits="userSpaceOnUse" x="68" y="27" width="90" height="230">
<path d="M68.1614 27.25H157.349V256.844H68.1614V27.25Z" fill="white"/>
</mask>
<g mask="url(#mask1_1_12995)">
<mask id="mask2_1_12995" style="mask-type:luminance" maskUnits="userSpaceOnUse" x="68" y="27" width="90" height="230">
<path d="M157.349 71.8438V212.208C157.349 236.839 137.385 256.802 112.755 256.802C88.125 256.802 68.1614 236.839 68.1614 212.208V71.8438C68.1614 47.2135 88.125 27.25 112.755 27.25C137.385 27.25 157.349 47.2135 157.349 71.8438Z" fill="white"/>
</mask>
<g mask="url(#mask2_1_12995)">
<mask id="mask3_1_12995" style="mask-type:luminance" maskUnits="userSpaceOnUse" x="67" y="27" width="91" height="231">
<path d="M157.667 27H67V257.667H157.667V27Z" fill="white"/>
</mask>
<g mask="url(#mask3_1_12995)">
<mask id="mask4_1_12995" style="mask-type:luminance" maskUnits="userSpaceOnUse" x="68" y="27" width="90" height="230">
<path d="M68.1614 27.25H157.349V256.844H68.1614V27.25Z" fill="white"/>
</mask>
<g mask="url(#mask4_1_12995)">
<mask id="mask5_1_12995" style="mask-type:luminance" maskUnits="userSpaceOnUse" x="68" y="27" width="90" height="230">
<path d="M157.349 71.8438V212.208C157.349 236.839 137.385 256.802 112.755 256.802C88.125 256.802 68.1614 236.839 68.1614 212.208V71.8438C68.1614 47.2135 88.125 27.25 112.755 27.25C137.385 27.25 157.349 47.2135 157.349 71.8438Z" fill="white"/>
</mask>
<g mask="url(#mask5_1_12995)">
<path d="M157.349 27.25V256.844H68.1614V27.25H157.349Z" fill="#59453C"/>
</g>
</g>
</g>
</g>
</g>
<mask id="mask6_1_12995" style="mask-type:luminance" maskUnits="userSpaceOnUse" x="67" y="27" width="91" height="230">
<path d="M67.7396 27.25H157.349V256.547H67.7396V27.25Z" fill="white"/>
</mask>
<g mask="url(#mask6_1_12995)">
<mask id="mask7_1_12995" style="mask-type:luminance" maskUnits="userSpaceOnUse" x="68" y="27" width="90" height="230">
<path d="M157.349 71.8438V212.203C157.349 236.828 137.385 256.792 112.76 256.792C88.1302 256.792 68.1667 236.828 68.1667 212.203V71.8438C68.1667 47.2135 88.1302 27.25 112.76 27.25C137.385 27.25 157.349 47.2135 157.349 71.8438Z" fill="white"/>
</mask>
<g mask="url(#mask7_1_12995)">
<path d="M157.349 71.8438V212.203C157.349 236.828 137.385 256.792 112.76 256.792C88.1301 256.792 68.1666 236.828 68.1666 212.203V71.8438C68.1666 47.2136 88.1301 27.25 112.76 27.25C137.385 27.25 157.349 47.2136 157.349 71.8438Z" stroke="#59453C" stroke-width="7.9961"/>
</g>
</g>
<mask id="mask8_1_12995" style="mask-type:luminance" maskUnits="userSpaceOnUse" x="64" y="54" width="313" height="142">
<path d="M64.0573 54.2396H376.271V195.203H64.0573V54.2396Z" fill="white"/>
</mask>
<g mask="url(#mask8_1_12995)">
<mask id="mask9_1_12995" style="mask-type:luminance" maskUnits="userSpaceOnUse" x="64" y="54" width="312" height="142">
<path d="M98.0417 54.2396H341.938C360.703 54.2396 375.922 69.4532 375.922 88.2188V161.219C375.922 179.99 360.703 195.203 341.938 195.203H98.0417C79.2709 195.203 64.0573 179.99 64.0573 161.219V88.2188C64.0573 69.4532 79.2709 54.2396 98.0417 54.2396Z" fill="white"/>
</mask>
<g mask="url(#mask9_1_12995)">
<mask id="mask10_1_12995" style="mask-type:luminance" maskUnits="userSpaceOnUse" x="63" y="53" width="314" height="144">
<path d="M376.333 53.6667H63V196.333H376.333V53.6667Z" fill="white"/>
</mask>
<g mask="url(#mask10_1_12995)">
<mask id="mask11_1_12995" style="mask-type:luminance" maskUnits="userSpaceOnUse" x="64" y="54" width="313" height="142">
<path d="M64.0573 54.2399H376.203V195.203H64.0573V54.2399Z" fill="white"/>
</mask>
<g mask="url(#mask11_1_12995)">
<mask id="mask12_1_12995" style="mask-type:luminance" maskUnits="userSpaceOnUse" x="64" y="54" width="312" height="142">
<path d="M98.0417 54.2399H341.938C360.703 54.2399 375.922 69.4534 375.922 88.219V161.219C375.922 179.99 360.703 195.203 341.938 195.203H98.0417C79.2709 195.203 64.0573 179.99 64.0573 161.219V88.219C64.0573 69.4534 79.2709 54.2399 98.0417 54.2399Z" fill="white"/>
</mask>
<g mask="url(#mask12_1_12995)">
<path d="M64.0573 54.2399H375.719V195.203H64.0573V54.2399Z" fill="#59453C"/>
</g>
</g>
</g>
</g>
</g>
<mask id="mask13_1_12995" style="mask-type:luminance" maskUnits="userSpaceOnUse" x="141" y="27" width="90" height="230">
<path d="M141.016 27.25H230.203V256.844H141.016V27.25Z" fill="white"/>
</mask>
<g mask="url(#mask13_1_12995)">
<mask id="mask14_1_12995" style="mask-type:luminance" maskUnits="userSpaceOnUse" x="141" y="27" width="90" height="230">
<path d="M230.203 71.8438V212.208C230.203 236.839 210.24 256.802 185.609 256.802C160.984 256.802 141.016 236.839 141.016 212.208V71.8438C141.016 47.2135 160.984 27.25 185.609 27.25C210.24 27.25 230.203 47.2135 230.203 71.8438Z" fill="white"/>
</mask>
<g mask="url(#mask14_1_12995)">
<mask id="mask15_1_12995" style="mask-type:luminance" maskUnits="userSpaceOnUse" x="140" y="27" width="91" height="231">
<path d="M231 27H140.333V257.667H231V27Z" fill="white"/>
</mask>
<g mask="url(#mask15_1_12995)">
<mask id="mask16_1_12995" style="mask-type:luminance" maskUnits="userSpaceOnUse" x="141" y="27" width="90" height="230">
<path d="M141.016 27.25H230.203V256.844H141.016V27.25Z" fill="white"/>
</mask>
<g mask="url(#mask16_1_12995)">
<mask id="mask17_1_12995" style="mask-type:luminance" maskUnits="userSpaceOnUse" x="141" y="27" width="90" height="230">
<path d="M230.203 71.8438V212.208C230.203 236.839 210.24 256.802 185.609 256.802C160.984 256.802 141.016 236.839 141.016 212.208V71.8438C141.016 47.2135 160.984 27.25 185.609 27.25C210.24 27.25 230.203 47.2135 230.203 71.8438Z" fill="white"/>
</mask>
<g mask="url(#mask17_1_12995)">
<path d="M230.203 27.25V256.844H141.016V27.25H230.203Z" fill="#59453C"/>
</g>
</g>
</g>
</g>
</g>
<mask id="mask18_1_12995" style="mask-type:luminance" maskUnits="userSpaceOnUse" x="140" y="27" width="91" height="230">
<path d="M140.594 27.25H230.203V256.547H140.594V27.25Z" fill="white"/>
</mask>
<g mask="url(#mask18_1_12995)">
<mask id="mask19_1_12995" style="mask-type:luminance" maskUnits="userSpaceOnUse" x="141" y="27" width="90" height="230">
<path d="M230.203 71.8438V212.203C230.203 236.828 210.24 256.792 185.615 256.792C160.984 256.792 141.021 236.828 141.021 212.203V71.8438C141.021 47.2135 160.984 27.25 185.615 27.25C210.24 27.25 230.203 47.2135 230.203 71.8438Z" fill="white"/>
</mask>
<g mask="url(#mask19_1_12995)">
<path d="M230.203 71.8438V212.203C230.203 236.828 210.24 256.792 185.615 256.792C160.984 256.792 141.021 236.828 141.021 212.203V71.8438C141.021 47.2136 160.984 27.25 185.615 27.25C210.24 27.25 230.203 47.2136 230.203 71.8438Z" stroke="#59453C" stroke-width="7.9961"/>
</g>
</g>
<mask id="mask20_1_12995" style="mask-type:luminance" maskUnits="userSpaceOnUse" x="213" y="27" width="91" height="230">
<path d="M213.87 27.25H303.063V256.844H213.87V27.25Z" fill="white"/>
</mask>
<g mask="url(#mask20_1_12995)">
<mask id="mask21_1_12995" style="mask-type:luminance" maskUnits="userSpaceOnUse" x="213" y="27" width="91" height="230">
<path d="M303.063 71.8438V212.208C303.063 236.839 283.094 256.802 258.464 256.802C233.839 256.802 213.87 236.839 213.87 212.208V71.8438C213.87 47.2135 233.839 27.25 258.464 27.25C283.094 27.25 303.063 47.2135 303.063 71.8438Z" fill="white"/>
</mask>
<g mask="url(#mask21_1_12995)">
<mask id="mask22_1_12995" style="mask-type:luminance" maskUnits="userSpaceOnUse" x="213" y="27" width="92" height="231">
<path d="M304.333 27H213.667V257.667H304.333V27Z" fill="white"/>
</mask>
<g mask="url(#mask22_1_12995)">
<mask id="mask23_1_12995" style="mask-type:luminance" maskUnits="userSpaceOnUse" x="213" y="27" width="91" height="230">
<path d="M213.87 27.25H303.063V256.844H213.87V27.25Z" fill="white"/>
</mask>
<g mask="url(#mask23_1_12995)">
<mask id="mask24_1_12995" style="mask-type:luminance" maskUnits="userSpaceOnUse" x="213" y="27" width="91" height="230">
<path d="M303.063 71.8438V212.208C303.063 236.839 283.094 256.802 258.464 256.802C233.839 256.802 213.87 236.839 213.87 212.208V71.8438C213.87 47.2135 233.839 27.25 258.464 27.25C283.094 27.25 303.063 47.2135 303.063 71.8438Z" fill="white"/>
</mask>
<g mask="url(#mask24_1_12995)">
<path d="M303.063 27.25V256.844H213.87V27.25H303.063Z" fill="#59453C"/>
</g>
</g>
</g>
</g>
</g>
<mask id="mask25_1_12995" style="mask-type:luminance" maskUnits="userSpaceOnUse" x="213" y="27" width="91" height="230">
<path d="M213.667 27.25H303.063V256.547H213.667V27.25Z" fill="white"/>
</mask>
<g mask="url(#mask25_1_12995)">
<mask id="mask26_1_12995" style="mask-type:luminance" maskUnits="userSpaceOnUse" x="213" y="27" width="91" height="230">
<path d="M303.062 71.8438V212.203C303.062 236.828 283.094 256.792 258.469 256.792C233.839 256.792 213.875 236.828 213.875 212.203V71.8438C213.875 47.2135 233.839 27.25 258.469 27.25C283.094 27.25 303.062 47.2135 303.062 71.8438Z" fill="white"/>
</mask>
<g mask="url(#mask26_1_12995)">
<path d="M303.062 71.8438V212.203C303.062 236.828 283.094 256.792 258.469 256.792C233.838 256.792 213.875 236.828 213.875 212.203V71.8438C213.875 47.2136 233.838 27.25 258.469 27.25C283.094 27.25 303.062 47.2136 303.062 71.8438Z" stroke="#59453C" stroke-width="7.9961"/>
</g>
</g>
<mask id="mask27_1_12995" style="mask-type:luminance" maskUnits="userSpaceOnUse" x="286" y="27" width="90" height="230">
<path d="M286.724 27.25H375.917V256.844H286.724V27.25Z" fill="white"/>
</mask>
<g mask="url(#mask27_1_12995)">
<mask id="mask28_1_12995" style="mask-type:luminance" maskUnits="userSpaceOnUse" x="286" y="27" width="90" height="230">
<path d="M375.917 71.8438V212.208C375.917 236.839 355.948 256.802 331.323 256.802C306.693 256.802 286.724 236.839 286.724 212.208V71.8438C286.724 47.2135 306.693 27.25 331.323 27.25C355.948 27.25 375.917 47.2135 375.917 71.8438Z" fill="white"/>
</mask>
<g mask="url(#mask28_1_12995)">
<mask id="mask29_1_12995" style="mask-type:luminance" maskUnits="userSpaceOnUse" x="285" y="27" width="92" height="231">
<path d="M376.333 27H285.667V257.667H376.333V27Z" fill="white"/>
</mask>
<g mask="url(#mask29_1_12995)">
<mask id="mask30_1_12995" style="mask-type:luminance" maskUnits="userSpaceOnUse" x="286" y="27" width="90" height="230">
<path d="M286.724 27.25H375.917V256.844H286.724V27.25Z" fill="white"/>
</mask>
<g mask="url(#mask30_1_12995)">
<mask id="mask31_1_12995" style="mask-type:luminance" maskUnits="userSpaceOnUse" x="286" y="27" width="90" height="230">
<path d="M375.917 71.8438V212.208C375.917 236.839 355.948 256.802 331.323 256.802C306.693 256.802 286.724 236.839 286.724 212.208V71.8438C286.724 47.2135 306.693 27.25 331.323 27.25C355.948 27.25 375.917 47.2135 375.917 71.8438Z" fill="white"/>
</mask>
<g mask="url(#mask31_1_12995)">
<path d="M375.917 27.25V256.844H286.724V27.25H375.917Z" fill="#59453C"/>
</g>
</g>
</g>
</g>
</g>
<mask id="mask32_1_12995" style="mask-type:luminance" maskUnits="userSpaceOnUse" x="286" y="27" width="90" height="230">
<path d="M286.302 27.25H375.917V256.547H286.302V27.25Z" fill="white"/>
</mask>
<g mask="url(#mask32_1_12995)">
<mask id="mask33_1_12995" style="mask-type:luminance" maskUnits="userSpaceOnUse" x="286" y="27" width="90" height="230">
<path d="M375.917 71.8438V212.203C375.917 236.828 355.948 256.792 331.323 256.792C306.693 256.792 286.729 236.828 286.729 212.203V71.8438C286.729 47.2135 306.693 27.25 331.323 27.25C355.948 27.25 375.917 47.2135 375.917 71.8438Z" fill="white"/>
</mask>
<g mask="url(#mask33_1_12995)">
<path d="M375.917 71.8438V212.203C375.917 236.828 355.948 256.792 331.323 256.792C306.693 256.792 286.729 236.828 286.729 212.203V71.8438C286.729 47.2136 306.693 27.25 331.323 27.25C355.948 27.25 375.917 47.2136 375.917 71.8438Z" stroke="#59453C" stroke-width="7.9961"/>
</g>
</g>
<mask id="mask34_1_12995" style="mask-type:luminance" maskUnits="userSpaceOnUse" x="35" y="67" width="370" height="90">
<path d="M35.8021 67.6511H404.333V156.839H35.8021V67.6511Z" fill="white"/>
</mask>
<g mask="url(#mask34_1_12995)">
<mask id="mask35_1_12995" style="mask-type:luminance" maskUnits="userSpaceOnUse" x="35" y="67" width="370" height="90">
<path d="M80.3959 67.6511H359.578C384.208 67.6511 404.172 87.6147 404.172 112.245C404.172 136.875 384.208 156.839 359.578 156.839H80.3959C55.7709 156.839 35.8021 136.875 35.8021 112.245C35.8021 87.6147 55.7709 67.6511 80.3959 67.6511Z" fill="white"/>
</mask>
<g mask="url(#mask35_1_12995)">
<mask id="mask36_1_12995" style="mask-type:luminance" maskUnits="userSpaceOnUse" x="35" y="67" width="370" height="91">
<path d="M404.333 67H35V157.667H404.333V67Z" fill="white"/>
</mask>
<g mask="url(#mask36_1_12995)">
<mask id="mask37_1_12995" style="mask-type:luminance" maskUnits="userSpaceOnUse" x="35" y="67" width="370" height="90">
<path d="M35.8021 67.6511H404.333V156.839H35.8021V67.6511Z" fill="white"/>
</mask>
<g mask="url(#mask37_1_12995)">
<mask id="mask38_1_12995" style="mask-type:luminance" maskUnits="userSpaceOnUse" x="35" y="67" width="370" height="90">
<path d="M80.3959 67.6511H359.578C384.208 67.6511 404.172 87.6147 404.172 112.245C404.172 136.875 384.208 156.839 359.578 156.839H80.3959C55.7709 156.839 35.8021 136.875 35.8021 112.245C35.8021 87.6147 55.7709 67.6511 80.3959 67.6511Z" fill="white"/>
</mask>
<g mask="url(#mask38_1_12995)">
<path d="M35.8021 67.6511H404.057V156.839H35.8021V67.6511Z" fill="#59453C"/>
</g>
</g>
</g>
</g>
</g>
<mask id="mask39_1_12995" style="mask-type:luminance" maskUnits="userSpaceOnUse" x="35" y="67" width="369" height="91">
<path d="M35.8073 67.6511H403.911V157.26H35.8073V67.6511Z" fill="white"/>
</mask>
<g mask="url(#mask39_1_12995)">
<mask id="mask40_1_12995" style="mask-type:luminance" maskUnits="userSpaceOnUse" x="35" y="67" width="370" height="90">
<path d="M80.4011 67.6511H359.573C384.198 67.6511 404.167 87.6147 404.167 112.24C404.167 136.87 384.198 156.833 359.573 156.833H80.4011C55.7761 156.833 35.8073 136.87 35.8073 112.24C35.8073 87.6147 55.7761 67.6511 80.4011 67.6511Z" fill="white"/>
</mask>
<g mask="url(#mask40_1_12995)">
<path d="M80.4011 67.6511H359.573C384.198 67.6511 404.167 87.6147 404.167 112.24C404.167 136.87 384.198 156.833 359.573 156.833H80.4011C55.7761 156.833 35.8073 136.87 35.8073 112.24C35.8073 87.6147 55.7761 67.6511 80.4011 67.6511Z" stroke="#59453C" stroke-width="7.9961"/>
</g>
</g>
<mask id="mask41_1_12995" style="mask-type:luminance" maskUnits="userSpaceOnUse" x="37" y="136" width="366" height="90">
<path d="M37.8906 136.807H402.312V225.995H37.8906V136.807Z" fill="white"/>
</mask>
<g mask="url(#mask41_1_12995)">
<mask id="mask42_1_12995" style="mask-type:luminance" maskUnits="userSpaceOnUse" x="37" y="136" width="366" height="90">
<path d="M82.4844 136.807H357.49C382.12 136.807 402.089 156.771 402.089 181.401C402.089 206.031 382.12 225.995 357.49 225.995H82.4844C57.8542 225.995 37.8906 206.031 37.8906 181.401C37.8906 156.771 57.8542 136.807 82.4844 136.807Z" fill="white"/>
</mask>
<g mask="url(#mask42_1_12995)">
<mask id="mask43_1_12995" style="mask-type:luminance" maskUnits="userSpaceOnUse" x="37" y="136" width="366" height="91">
<path d="M403 136.333H37.6667V227H403V136.333Z" fill="white"/>
</mask>
<g mask="url(#mask43_1_12995)">
<mask id="mask44_1_12995" style="mask-type:luminance" maskUnits="userSpaceOnUse" x="37" y="136" width="366" height="90">
<path d="M37.8906 136.807H402.109V225.995H37.8906V136.807Z" fill="white"/>
</mask>
<g mask="url(#mask44_1_12995)">
<mask id="mask45_1_12995" style="mask-type:luminance" maskUnits="userSpaceOnUse" x="37" y="136" width="366" height="90">
<path d="M82.4844 136.807H357.49C382.12 136.807 402.089 156.771 402.089 181.401C402.089 206.031 382.12 225.995 357.49 225.995H82.4844C57.8542 225.995 37.8906 206.031 37.8906 181.401C37.8906 156.771 57.8542 136.807 82.4844 136.807Z" fill="white"/>
</mask>
<g mask="url(#mask45_1_12995)">
<path d="M37.8906 136.807H401.964V225.995H37.8906V136.807Z" fill="#59453C"/>
</g>
</g>
</g>
</g>
</g>
<mask id="mask46_1_12995" style="mask-type:luminance" maskUnits="userSpaceOnUse" x="37" y="136" width="366" height="91">
<path d="M37.8959 136.807H402.484V226.417H37.8959V136.807Z" fill="white"/>
</mask>
<g mask="url(#mask46_1_12995)">
<mask id="mask47_1_12995" style="mask-type:luminance" maskUnits="userSpaceOnUse" x="37" y="136" width="366" height="90">
<path d="M82.4896 136.807H357.484C382.115 136.807 402.078 156.771 402.078 181.401C402.078 206.026 382.115 225.99 357.484 225.99H82.4896C57.8646 225.99 37.8959 206.026 37.8959 181.401C37.8959 156.771 57.8646 136.807 82.4896 136.807Z" fill="white"/>
</mask>
<g mask="url(#mask47_1_12995)">
<path d="M82.4897 136.807H357.485C382.115 136.807 402.078 156.771 402.078 181.401C402.078 206.026 382.115 225.99 357.485 225.99H82.4897C57.8646 225.99 37.8959 206.026 37.8959 181.401C37.8959 156.771 57.8646 136.807 82.4897 136.807Z" stroke="#59453C" stroke-width="7.9961"/>
</g>
</g>
<mask id="mask48_1_12995" style="mask-type:luminance" maskUnits="userSpaceOnUse" x="77" y="55" width="291" height="172">
<path d="M77.2448 55.8281H367.984V226.932H77.2448V55.8281Z" fill="white"/>
</mask>
<g mask="url(#mask48_1_12995)">
<mask id="mask49_1_12995" style="mask-type:luminance" maskUnits="userSpaceOnUse" x="77" y="55" width="291" height="172">
<path d="M81.2396 55.8281H363.547C365.755 55.8281 367.542 57.6198 367.542 59.8281V222.932C367.542 225.141 365.755 226.932 363.547 226.932H81.2396C79.0313 226.932 77.2448 225.141 77.2448 222.932V59.8281C77.2448 57.6198 79.0313 55.8281 81.2396 55.8281Z" fill="white"/>
</mask>
<g mask="url(#mask49_1_12995)">
<mask id="mask50_1_12995" style="mask-type:luminance" maskUnits="userSpaceOnUse" x="76" y="55" width="293" height="172">
<path d="M368.333 55H76.3333V227H368.333V55Z" fill="white"/>
</mask>
<g mask="url(#mask50_1_12995)">
<mask id="mask51_1_12995" style="mask-type:luminance" maskUnits="userSpaceOnUse" x="77" y="55" width="291" height="172">
<path d="M77.2448 55.8281H367.568V226.932H77.2448V55.8281Z" fill="white"/>
</mask>
<g mask="url(#mask51_1_12995)">
<mask id="mask52_1_12995" style="mask-type:luminance" maskUnits="userSpaceOnUse" x="77" y="55" width="291" height="172">
<path d="M81.2396 55.8281H363.547C365.755 55.8281 367.542 57.6198 367.542 59.8281V222.932C367.542 225.141 365.755 226.932 363.547 226.932H81.2396C79.0313 226.932 77.2448 225.141 77.2448 222.932V59.8281C77.2448 57.6198 79.0313 55.8281 81.2396 55.8281Z" fill="white"/>
</mask>
<g mask="url(#mask52_1_12995)">
<path d="M77.2448 55.8281H367.313V226.932H77.2448V55.8281Z" fill="#59453C"/>
</g>
</g>
</g>
</g>
</g>
<mask id="mask53_1_12995" style="mask-type:luminance" maskUnits="userSpaceOnUse" x="49" y="16" width="90" height="231">
<path d="M49.4375 16.4792H138.625V246.073H49.4375V16.4792Z" fill="white"/>
</mask>
<g mask="url(#mask53_1_12995)">
<mask id="mask54_1_12995" style="mask-type:luminance" maskUnits="userSpaceOnUse" x="49" y="16" width="90" height="231">
<path d="M138.625 61.073V201.438C138.625 226.068 118.656 246.031 94.0312 246.031C69.401 246.031 49.4375 226.068 49.4375 201.438V61.073C49.4375 36.4428 69.401 16.4792 94.0312 16.4792C118.656 16.4792 138.625 36.4428 138.625 61.073Z" fill="white"/>
</mask>
<g mask="url(#mask54_1_12995)">
<mask id="mask55_1_12995" style="mask-type:luminance" maskUnits="userSpaceOnUse" x="48" y="16" width="91" height="231">
<path d="M139 16.3334H48.3333V247H139V16.3334Z" fill="white"/>
</mask>
<g mask="url(#mask55_1_12995)">
<mask id="mask56_1_12995" style="mask-type:luminance" maskUnits="userSpaceOnUse" x="49" y="16" width="90" height="231">
<path d="M49.4375 16.4791H138.625V246.073H49.4375V16.4791Z" fill="white"/>
</mask>
<g mask="url(#mask56_1_12995)">
<mask id="mask57_1_12995" style="mask-type:luminance" maskUnits="userSpaceOnUse" x="49" y="16" width="90" height="231">
<path d="M138.625 61.0729V201.437C138.625 226.068 118.656 246.031 94.0312 246.031C69.401 246.031 49.4375 226.068 49.4375 201.437V61.0729C49.4375 36.4427 69.401 16.4791 94.0312 16.4791C118.656 16.4791 138.625 36.4427 138.625 61.0729Z" fill="white"/>
</mask>
<g mask="url(#mask57_1_12995)">
<path d="M138.625 16.4791V246.073H49.4375V16.4791H138.625Z" fill="#F3D6D4"/>
</g>
</g>
</g>
</g>
</g>
<mask id="mask58_1_12995" style="mask-type:luminance" maskUnits="userSpaceOnUse" x="49" y="16" width="90" height="230">
<path d="M49.0156 16.4792H138.625V245.776H49.0156V16.4792Z" fill="white"/>
</mask>
<g mask="url(#mask58_1_12995)">
<mask id="mask59_1_12995" style="mask-type:luminance" maskUnits="userSpaceOnUse" x="49" y="16" width="90" height="231">
<path d="M138.625 61.073V201.432C138.625 226.057 118.661 246.021 94.0312 246.021C69.4062 246.021 49.4375 226.057 49.4375 201.432V61.073C49.4375 36.4428 69.4062 16.4792 94.0312 16.4792C118.661 16.4792 138.625 36.4428 138.625 61.073Z" fill="white"/>
</mask>
<g mask="url(#mask59_1_12995)">
<path d="M138.625 61.073V201.433C138.625 226.058 118.661 246.021 94.0312 246.021C69.4062 246.021 49.4374 226.058 49.4374 201.433V61.073C49.4374 36.4428 69.4062 16.4792 94.0312 16.4792C118.661 16.4792 138.625 36.4428 138.625 61.073Z" stroke="#59453C" stroke-width="7.9961"/>
</g>
</g>
<mask id="mask60_1_12995" style="mask-type:luminance" maskUnits="userSpaceOnUse" x="45" y="43" width="313" height="142">
<path d="M45.3281 43.4688H357.542V184.432H45.3281V43.4688Z" fill="white"/>
</mask>
<g mask="url(#mask60_1_12995)">
<mask id="mask61_1_12995" style="mask-type:luminance" maskUnits="userSpaceOnUse" x="45" y="43" width="313" height="142">
<path d="M79.3125 43.4688H323.208C341.979 43.4688 357.193 58.6823 357.193 77.4479V150.448C357.193 169.219 341.979 184.432 323.208 184.432H79.3125C60.5417 184.432 45.3281 169.219 45.3281 150.448V77.4479C45.3281 58.6823 60.5417 43.4688 79.3125 43.4688Z" fill="white"/>
</mask>
<g mask="url(#mask61_1_12995)">
<mask id="mask62_1_12995" style="mask-type:luminance" maskUnits="userSpaceOnUse" x="44" y="43" width="314" height="143">
<path d="M357.667 43H44.3333V185.667H357.667V43Z" fill="white"/>
</mask>
<g mask="url(#mask62_1_12995)">
<mask id="mask63_1_12995" style="mask-type:luminance" maskUnits="userSpaceOnUse" x="45" y="43" width="313" height="142">
<path d="M45.3281 43.4688H357.333V184.432H45.3281V43.4688Z" fill="white"/>
</mask>
<g mask="url(#mask63_1_12995)">
<mask id="mask64_1_12995" style="mask-type:luminance" maskUnits="userSpaceOnUse" x="45" y="43" width="313" height="142">
<path d="M79.3125 43.4688H323.208C341.979 43.4688 357.193 58.6823 357.193 77.4479V150.448C357.193 169.219 341.979 184.432 323.208 184.432H79.3125C60.5417 184.432 45.3281 169.219 45.3281 150.448V77.4479C45.3281 58.6823 60.5417 43.4688 79.3125 43.4688Z" fill="white"/>
</mask>
<g mask="url(#mask64_1_12995)">
<path d="M45.3281 43.4688H356.995V184.432H45.3281V43.4688Z" fill="#F3D6D4"/>
</g>
</g>
</g>
</g>
</g>
<mask id="mask65_1_12995" style="mask-type:luminance" maskUnits="userSpaceOnUse" x="122" y="16" width="90" height="231">
<path d="M122.292 16.4792H211.479V246.073H122.292V16.4792Z" fill="white"/>
</mask>
<g mask="url(#mask65_1_12995)">
<mask id="mask66_1_12995" style="mask-type:luminance" maskUnits="userSpaceOnUse" x="122" y="16" width="90" height="231">
<path d="M211.479 61.073V201.438C211.479 226.068 191.516 246.031 166.885 246.031C142.255 246.031 122.292 226.068 122.292 201.438V61.073C122.292 36.4428 142.255 16.4792 166.885 16.4792C191.516 16.4792 211.479 36.4428 211.479 61.073Z" fill="white"/>
</mask>
<g mask="url(#mask66_1_12995)">
<mask id="mask67_1_12995" style="mask-type:luminance" maskUnits="userSpaceOnUse" x="121" y="16" width="92" height="231">
<path d="M212.333 16.3334H121.667V247H212.333V16.3334Z" fill="white"/>
</mask>
<g mask="url(#mask67_1_12995)">
<mask id="mask68_1_12995" style="mask-type:luminance" maskUnits="userSpaceOnUse" x="122" y="16" width="90" height="231">
<path d="M122.292 16.4791H211.479V246.073H122.292V16.4791Z" fill="white"/>
</mask>
<g mask="url(#mask68_1_12995)">
<mask id="mask69_1_12995" style="mask-type:luminance" maskUnits="userSpaceOnUse" x="122" y="16" width="90" height="231">
<path d="M211.479 61.0729V201.437C211.479 226.068 191.516 246.031 166.885 246.031C142.255 246.031 122.292 226.068 122.292 201.437V61.0729C122.292 36.4427 142.255 16.4791 166.885 16.4791C191.516 16.4791 211.479 36.4427 211.479 61.0729Z" fill="white"/>
</mask>
<g mask="url(#mask69_1_12995)">
<path d="M211.479 16.4791V246.073H122.292V16.4791H211.479Z" fill="#F3D6D4"/>
</g>
</g>
</g>
</g>
</g>
<mask id="mask70_1_12995" style="mask-type:luminance" maskUnits="userSpaceOnUse" x="121" y="16" width="91" height="230">
<path d="M121.87 16.4792H211.479V245.776H121.87V16.4792Z" fill="white"/>
</mask>
<g mask="url(#mask70_1_12995)">
<mask id="mask71_1_12995" style="mask-type:luminance" maskUnits="userSpaceOnUse" x="122" y="16" width="90" height="231">
<path d="M211.479 61.073V201.432C211.479 226.057 191.516 246.021 166.885 246.021C142.26 246.021 122.292 226.057 122.292 201.432V61.073C122.292 36.4428 142.26 16.4792 166.885 16.4792C191.516 16.4792 211.479 36.4428 211.479 61.073Z" fill="white"/>
</mask>
<g mask="url(#mask71_1_12995)">
<path d="M211.479 61.073V201.433C211.479 226.058 191.516 246.021 166.885 246.021C142.26 246.021 122.292 226.058 122.292 201.433V61.073C122.292 36.4428 142.26 16.4792 166.885 16.4792C191.516 16.4792 211.479 36.4428 211.479 61.073Z" stroke="#59453C" stroke-width="7.9961"/>
</g>
</g>
<mask id="mask72_1_12995" style="mask-type:luminance" maskUnits="userSpaceOnUse" x="195" y="16" width="90" height="231">
<path d="M195.146 16.4792H284.333V246.073H195.146V16.4792Z" fill="white"/>
</mask>
<g mask="url(#mask72_1_12995)">
<mask id="mask73_1_12995" style="mask-type:luminance" maskUnits="userSpaceOnUse" x="195" y="16" width="90" height="231">
<path d="M284.333 61.073V201.438C284.333 226.068 264.37 246.031 239.74 246.031C215.109 246.031 195.146 226.068 195.146 201.438V61.073C195.146 36.4428 215.109 16.4792 239.74 16.4792C264.37 16.4792 284.333 36.4428 284.333 61.073Z" fill="white"/>
</mask>
<g mask="url(#mask73_1_12995)">
<mask id="mask74_1_12995" style="mask-type:luminance" maskUnits="userSpaceOnUse" x="195" y="16" width="90" height="231">
<path d="M284.333 16.3334H195V247H284.333V16.3334Z" fill="white"/>
</mask>
<g mask="url(#mask74_1_12995)">
<mask id="mask75_1_12995" style="mask-type:luminance" maskUnits="userSpaceOnUse" x="195" y="16" width="90" height="231">
<path d="M195.146 16.4791H284.333V246.073H195.146V16.4791Z" fill="white"/>
</mask>
<g mask="url(#mask75_1_12995)">
<mask id="mask76_1_12995" style="mask-type:luminance" maskUnits="userSpaceOnUse" x="195" y="16" width="90" height="231">
<path d="M284.333 61.0729V201.437C284.333 226.068 264.37 246.031 239.74 246.031C215.109 246.031 195.146 226.068 195.146 201.437V61.0729C195.146 36.4427 215.109 16.4791 239.74 16.4791C264.37 16.4791 284.333 36.4427 284.333 61.0729Z" fill="white"/>
</mask>
<g mask="url(#mask76_1_12995)">
<path d="M284.333 16.4791V246.073H195.146V16.4791H284.333Z" fill="#F3D6D4"/>
</g>
</g>
</g>
</g>
</g>
<mask id="mask77_1_12995" style="mask-type:luminance" maskUnits="userSpaceOnUse" x="195" y="16" width="90" height="230">
<path d="M195 16.4792H284.333V245.776H195V16.4792Z" fill="white"/>
</mask>
<g mask="url(#mask77_1_12995)">
<mask id="mask78_1_12995" style="mask-type:luminance" maskUnits="userSpaceOnUse" x="195" y="16" width="90" height="231">
<path d="M284.333 61.073V201.432C284.333 226.057 264.37 246.021 239.74 246.021C215.115 246.021 195.146 226.057 195.146 201.432V61.073C195.146 36.4428 215.115 16.4792 239.74 16.4792C264.37 16.4792 284.333 36.4428 284.333 61.073Z" fill="white"/>
</mask>
<g mask="url(#mask78_1_12995)">
<path d="M284.333 61.073V201.433C284.333 226.058 264.37 246.021 239.74 246.021C215.115 246.021 195.146 226.058 195.146 201.433V61.073C195.146 36.4428 215.115 16.4792 239.74 16.4792C264.37 16.4792 284.333 36.4428 284.333 61.073Z" stroke="#59453C" stroke-width="7.9961"/>
</g>
</g>
<mask id="mask79_1_12995" style="mask-type:luminance" maskUnits="userSpaceOnUse" x="268" y="16" width="90" height="231">
<path d="M268 16.4792H357.188V246.073H268V16.4792Z" fill="white"/>
</mask>
<g mask="url(#mask79_1_12995)">
<mask id="mask80_1_12995" style="mask-type:luminance" maskUnits="userSpaceOnUse" x="268" y="16" width="90" height="231">
<path d="M357.188 61.073V201.438C357.188 226.068 337.224 246.031 312.594 246.031C287.964 246.031 268 226.068 268 201.438V61.073C268 36.4428 287.964 16.4792 312.594 16.4792C337.224 16.4792 357.188 36.4428 357.188 61.073Z" fill="white"/>
</mask>
<g mask="url(#mask80_1_12995)">
<mask id="mask81_1_12995" style="mask-type:luminance" maskUnits="userSpaceOnUse" x="267" y="16" width="91" height="231">
<path d="M357.667 16.3334H267V247H357.667V16.3334Z" fill="white"/>
</mask>
<g mask="url(#mask81_1_12995)">
<mask id="mask82_1_12995" style="mask-type:luminance" maskUnits="userSpaceOnUse" x="268" y="16" width="90" height="231">
<path d="M268 16.4791H357.188V246.073H268V16.4791Z" fill="white"/>
</mask>
<g mask="url(#mask82_1_12995)">
<mask id="mask83_1_12995" style="mask-type:luminance" maskUnits="userSpaceOnUse" x="268" y="16" width="90" height="231">
<path d="M357.188 61.0729V201.437C357.188 226.068 337.224 246.031 312.594 246.031C287.964 246.031 268 226.068 268 201.437V61.0729C268 36.4427 287.964 16.4791 312.594 16.4791C337.224 16.4791 357.188 36.4427 357.188 61.0729Z" fill="white"/>
</mask>
<g mask="url(#mask83_1_12995)">
<path d="M357.188 16.4791V246.073H268V16.4791H357.188Z" fill="#F3D6D4"/>
</g>
</g>
</g>
</g>
</g>
<mask id="mask84_1_12995" style="mask-type:luminance" maskUnits="userSpaceOnUse" x="267" y="16" width="91" height="230">
<path d="M267.578 16.4792H357.188V245.776H267.578V16.4792Z" fill="white"/>
</mask>
<g mask="url(#mask84_1_12995)">
<mask id="mask85_1_12995" style="mask-type:luminance" maskUnits="userSpaceOnUse" x="268" y="16" width="90" height="231">
<path d="M357.188 61.073V201.432C357.188 226.057 337.224 246.021 312.594 246.021C287.969 246.021 268.005 226.057 268.005 201.432V61.073C268.005 36.4428 287.969 16.4792 312.594 16.4792C337.224 16.4792 357.188 36.4428 357.188 61.073Z" fill="white"/>
</mask>
<g mask="url(#mask85_1_12995)">
<path d="M357.188 61.073V201.433C357.188 226.058 337.224 246.021 312.594 246.021C287.969 246.021 268.005 226.058 268.005 201.433V61.073C268.005 36.4428 287.969 16.4792 312.594 16.4792C337.224 16.4792 357.188 36.4428 357.188 61.073Z" stroke="#59453C" stroke-width="7.9961"/>
</g>
</g>
<mask id="mask86_1_12995" style="mask-type:luminance" maskUnits="userSpaceOnUse" x="17" y="56" width="369" height="91">
<path d="M17.0781 56.8802H385.667V146.068H17.0781V56.8802Z" fill="white"/>
</mask>
<g mask="url(#mask86_1_12995)">
<mask id="mask87_1_12995" style="mask-type:luminance" maskUnits="userSpaceOnUse" x="17" y="56" width="369" height="91">
<path d="M61.6719 56.8802H340.854C365.479 56.8802 385.448 76.8438 385.448 101.474C385.448 126.104 365.479 146.068 340.854 146.068H61.6719C37.0417 146.068 17.0781 126.104 17.0781 101.474C17.0781 76.8438 37.0417 56.8802 61.6719 56.8802Z" fill="white"/>
</mask>
<g mask="url(#mask87_1_12995)">
<mask id="mask88_1_12995" style="mask-type:luminance" maskUnits="userSpaceOnUse" x="16" y="56" width="370" height="91">
<path d="M385.667 56.3334H16.3333V147H385.667V56.3334Z" fill="white"/>
</mask>
<g mask="url(#mask88_1_12995)">
<mask id="mask89_1_12995" style="mask-type:luminance" maskUnits="userSpaceOnUse" x="17" y="56" width="369" height="91">
<path d="M17.0782 56.8801H385.479V146.068H17.0782V56.8801Z" fill="white"/>
</mask>
<g mask="url(#mask89_1_12995)">
<mask id="mask90_1_12995" style="mask-type:luminance" maskUnits="userSpaceOnUse" x="17" y="56" width="369" height="91">
<path d="M61.6719 56.8801H340.854C365.479 56.8801 385.448 76.8437 385.448 101.474C385.448 126.104 365.479 146.068 340.854 146.068H61.6719C37.0417 146.068 17.0782 126.104 17.0782 101.474C17.0782 76.8437 37.0417 56.8801 61.6719 56.8801Z" fill="white"/>
</mask>
<g mask="url(#mask90_1_12995)">
<path d="M17.0782 56.8801H385.328V146.068H17.0782V56.8801Z" fill="#F3D6D4"/>
</g>
</g>
</g>
</g>
</g>
<mask id="mask91_1_12995" style="mask-type:luminance" maskUnits="userSpaceOnUse" x="17" y="56" width="369" height="91">
<path d="M17.0833 56.8802H385.182V146.49H17.0833V56.8802Z" fill="white"/>
</mask>
<g mask="url(#mask91_1_12995)">
<mask id="mask92_1_12995" style="mask-type:luminance" maskUnits="userSpaceOnUse" x="17" y="56" width="369" height="91">
<path d="M61.6771 56.8802H340.844C365.474 56.8802 385.438 76.8438 385.438 101.469C385.438 126.099 365.474 146.063 340.844 146.063H61.6771C37.0469 146.063 17.0833 126.099 17.0833 101.469C17.0833 76.8438 37.0469 56.8802 61.6771 56.8802Z" fill="white"/>
</mask>
<g mask="url(#mask92_1_12995)">
<path d="M61.6771 56.8802H340.844C365.474 56.8802 385.438 76.8438 385.438 101.469C385.438 126.099 365.474 146.063 340.844 146.063H61.6771C37.0469 146.063 17.0833 126.099 17.0833 101.469C17.0833 76.8438 37.0469 56.8802 61.6771 56.8802Z" stroke="#59453C" stroke-width="7.9961"/>
</g>
</g>
<mask id="mask93_1_12995" style="mask-type:luminance" maskUnits="userSpaceOnUse" x="19" y="126" width="365" height="90">
<path d="M19.1615 126.036H383.583V215.224H19.1615V126.036Z" fill="white"/>
</mask>
<g mask="url(#mask93_1_12995)">
<mask id="mask94_1_12995" style="mask-type:luminance" maskUnits="userSpaceOnUse" x="19" y="126" width="365" height="90">
<path d="M63.7604 126.036H338.766C363.396 126.036 383.359 146 383.359 170.63C383.359 195.26 363.396 215.224 338.766 215.224H63.7604C39.1302 215.224 19.1615 195.26 19.1615 170.63C19.1615 146 39.1302 126.036 63.7604 126.036Z" fill="white"/>
</mask>
<g mask="url(#mask94_1_12995)">
<mask id="mask95_1_12995" style="mask-type:luminance" maskUnits="userSpaceOnUse" x="19" y="125" width="366" height="92">
<path d="M384.333 125.667H19V216.333H384.333V125.667Z" fill="white"/>
</mask>
<g mask="url(#mask95_1_12995)">
<mask id="mask96_1_12995" style="mask-type:luminance" maskUnits="userSpaceOnUse" x="19" y="126" width="365" height="90">
<path d="M19.1615 126.037H383.557V215.224H19.1615V126.037Z" fill="white"/>
</mask>
<g mask="url(#mask96_1_12995)">
<mask id="mask97_1_12995" style="mask-type:luminance" maskUnits="userSpaceOnUse" x="19" y="126" width="365" height="90">
<path d="M63.7604 126.037H338.766C363.396 126.037 383.359 146 383.359 170.63C383.359 195.261 363.396 215.224 338.766 215.224H63.7604C39.1302 215.224 19.1615 195.261 19.1615 170.63C19.1615 146 39.1302 126.037 63.7604 126.037Z" fill="white"/>
</mask>
<g mask="url(#mask97_1_12995)">
<path d="M19.1615 126.037H383.234V215.224H19.1615V126.037Z" fill="#F3D6D4"/>
</g>
</g>
</g>
</g>
</g>
<mask id="mask98_1_12995" style="mask-type:luminance" maskUnits="userSpaceOnUse" x="19" y="126" width="365" height="90">
<path d="M19.1719 126.036H383.755V215.646H19.1719V126.036Z" fill="white"/>
</mask>
<g mask="url(#mask98_1_12995)">
<mask id="mask99_1_12995" style="mask-type:luminance" maskUnits="userSpaceOnUse" x="19" y="126" width="365" height="90">
<path d="M63.7656 126.036H338.76C363.385 126.036 383.349 146 383.349 170.625C383.349 195.255 363.385 215.219 338.76 215.219H63.7656C39.1354 215.219 19.1719 195.255 19.1719 170.625C19.1719 146 39.1354 126.036 63.7656 126.036Z" fill="white"/>
</mask>
<g mask="url(#mask99_1_12995)">
<path d="M63.7657 126.036H338.761C363.386 126.036 383.349 146 383.349 170.625C383.349 195.255 363.386 215.219 338.761 215.219H63.7657C39.1354 215.219 19.1719 195.255 19.1719 170.625C19.1719 146 39.1354 126.036 63.7657 126.036Z" stroke="#59453C" stroke-width="7.9961"/>
</g>
</g>
<mask id="mask100_1_12995" style="mask-type:luminance" maskUnits="userSpaceOnUse" x="58" y="45" width="292" height="172">
<path d="M58.5156 45.0574H349.255V216.162H58.5156V45.0574Z" fill="white"/>
</mask>
<g mask="url(#mask100_1_12995)">
<mask id="mask101_1_12995" style="mask-type:luminance" maskUnits="userSpaceOnUse" x="58" y="45" width="291" height="172">
<path d="M62.5156 45.0574H344.818C347.026 45.0574 348.818 46.849 348.818 49.0574V212.162C348.818 214.37 347.026 216.162 344.818 216.162H62.5156C60.3073 216.162 58.5156 214.37 58.5156 212.162V49.0574C58.5156 46.849 60.3073 45.0574 62.5156 45.0574Z" fill="white"/>
</mask>
<g mask="url(#mask101_1_12995)">
<mask id="mask102_1_12995" style="mask-type:luminance" maskUnits="userSpaceOnUse" x="57" y="44" width="293" height="173">
<path d="M349.667 44.3334H57.6667V216.333H349.667V44.3334Z" fill="white"/>
</mask>
<g mask="url(#mask102_1_12995)">
<mask id="mask103_1_12995" style="mask-type:luminance" maskUnits="userSpaceOnUse" x="58" y="45" width="292" height="172">
<path d="M58.5156 45.0573H349.016V216.161H58.5156V45.0573Z" fill="white"/>
</mask>
<g mask="url(#mask103_1_12995)">
<mask id="mask104_1_12995" style="mask-type:luminance" maskUnits="userSpaceOnUse" x="58" y="45" width="291" height="172">
<path d="M62.5156 45.0573H344.818C347.026 45.0573 348.818 46.8489 348.818 49.0573V212.161C348.818 214.37 347.026 216.161 344.818 216.161H62.5156C60.3073 216.161 58.5156 214.37 58.5156 212.161V49.0573C58.5156 46.8489 60.3073 45.0573 62.5156 45.0573Z" fill="white"/>
</mask>
<g mask="url(#mask104_1_12995)">
<path d="M58.5156 45.0573H348.589V216.161H58.5156V45.0573Z" fill="#F3D6D4"/>
</g>
</g>
</g>
</g>
</g>
</g>
</svg>
