<svg width="433" height="263" viewBox="0 0 433 263" fill="none" xmlns="http://www.w3.org/2000/svg">
<mask id="mask0_1_12569" style="mask-type:luminance" maskUnits="userSpaceOnUse" x="0" y="0" width="433" height="264">
<path d="M432.333 0.333496H0.333313V263H432.333V0.333496Z" fill="white"/>
</mask>
<g mask="url(#mask0_1_12569)">
<mask id="mask1_1_12569" style="mask-type:luminance" maskUnits="userSpaceOnUse" x="33" y="87" width="377" height="93">
<path d="M33.2604 87.4115H409.547V179.411H33.2604V87.4115Z" fill="white"/>
</mask>
<g mask="url(#mask1_1_12569)">
<mask id="mask2_1_12569" style="mask-type:luminance" maskUnits="userSpaceOnUse" x="33" y="87" width="377" height="93">
<path d="M79.2656 87.4115H363.516C375.714 87.4115 387.417 92.2552 396.042 100.885C404.667 109.51 409.516 121.214 409.516 133.411C409.516 145.615 404.667 157.313 396.042 165.938C387.417 174.568 375.714 179.411 363.516 179.411H79.2656C67.0625 179.411 55.3594 174.568 46.7344 165.938C38.1094 157.313 33.2604 145.615 33.2604 133.411C33.2604 121.214 38.1094 109.51 46.7344 100.885C55.3594 92.2552 67.0625 87.4115 79.2656 87.4115Z" fill="white"/>
</mask>
<g mask="url(#mask2_1_12569)">
<mask id="mask3_1_12569" style="mask-type:luminance" maskUnits="userSpaceOnUse" x="32" y="87" width="378" height="94">
<path d="M409.667 87H32.3333V180.333H409.667V87Z" fill="white"/>
</mask>
<g mask="url(#mask3_1_12569)">
<mask id="mask4_1_12569" style="mask-type:luminance" maskUnits="userSpaceOnUse" x="33" y="87" width="377" height="93">
<path d="M33.2604 87.4115H409.547V179.411H33.2604V87.4115Z" fill="white"/>
</mask>
<g mask="url(#mask4_1_12569)">
<mask id="mask5_1_12569" style="mask-type:luminance" maskUnits="userSpaceOnUse" x="33" y="87" width="377" height="93">
<path d="M79.2656 87.4115H363.516C375.714 87.4115 387.417 92.2552 396.042 100.885C404.667 109.51 409.516 121.214 409.516 133.411C409.516 145.615 404.667 157.313 396.042 165.938C387.417 174.568 375.714 179.411 363.516 179.411H79.2656C67.0625 179.411 55.3594 174.568 46.7344 165.938C38.1094 157.313 33.2604 145.615 33.2604 133.411C33.2604 121.214 38.1094 109.51 46.7344 100.885C55.3594 92.2552 67.0625 87.4115 79.2656 87.4115Z" fill="white"/>
</mask>
<g mask="url(#mask5_1_12569)">
<path d="M33.2604 87.4115H409.547V179.411H33.2604V87.4115Z" fill="#59453C"/>
</g>
</g>
</g>
</g>
</g>
<mask id="mask6_1_12569" style="mask-type:luminance" maskUnits="userSpaceOnUse" x="33" y="87" width="377" height="93">
<path d="M33.2812 87.4115H409.667V179.047H33.2812V87.4115Z" fill="white"/>
</mask>
<g mask="url(#mask6_1_12569)">
<mask id="mask7_1_12569" style="mask-type:luminance" maskUnits="userSpaceOnUse" x="33" y="87" width="377" height="93">
<path d="M79.276 87.4115H363.49C375.687 87.4115 387.385 92.2552 396.016 100.88C404.641 109.505 409.484 121.208 409.484 133.406C409.484 145.604 404.641 157.302 396.016 165.932C387.385 174.557 375.687 179.401 363.49 179.401H79.276C67.0781 179.401 55.3802 174.557 46.75 165.932C38.125 157.302 33.2812 145.604 33.2812 133.406C33.2812 121.208 38.125 109.505 46.75 100.88C55.3802 92.2552 67.0781 87.4115 79.276 87.4115Z" fill="white"/>
</mask>
<g mask="url(#mask7_1_12569)">
<path d="M79.276 87.4115H363.489C375.687 87.4115 387.385 92.2552 396.015 100.88C404.64 109.505 409.484 121.208 409.484 133.406C409.484 145.604 404.64 157.302 396.015 165.932C387.385 174.557 375.687 179.401 363.489 179.401H79.276C67.0781 179.401 55.3802 174.557 46.75 165.932C38.125 157.302 33.2812 145.604 33.2812 133.406C33.2812 121.208 38.125 109.505 46.75 100.88C55.3802 92.2552 67.0781 87.4115 79.276 87.4115Z" stroke="#59453C" stroke-width="7.99609"/>
</g>
</g>
<mask id="mask8_1_12569" style="mask-type:luminance" maskUnits="userSpaceOnUse" x="33" y="22" width="377" height="93">
<path d="M33.2604 22.2656H409.547V114.271H33.2604V22.2656Z" fill="white"/>
</mask>
<g mask="url(#mask8_1_12569)">
<mask id="mask9_1_12569" style="mask-type:luminance" maskUnits="userSpaceOnUse" x="33" y="22" width="377" height="93">
<path d="M79.2656 22.2656H363.516C375.714 22.2656 387.417 27.1094 396.042 35.7396C404.667 44.3646 409.516 56.0677 409.516 68.2656C409.516 80.4688 404.667 92.1667 396.042 100.797C387.417 109.422 375.714 114.271 363.516 114.271H79.2656C67.0625 114.271 55.3594 109.422 46.7344 100.797C38.1094 92.1667 33.2604 80.4688 33.2604 68.2656C33.2604 56.0677 38.1094 44.3646 46.7344 35.7396C55.3594 27.1094 67.0625 22.2656 79.2656 22.2656Z" fill="white"/>
</mask>
<g mask="url(#mask9_1_12569)">
<mask id="mask10_1_12569" style="mask-type:luminance" maskUnits="userSpaceOnUse" x="32" y="21" width="378" height="95">
<path d="M409.667 21.6667H32.3333V115H409.667V21.6667Z" fill="white"/>
</mask>
<g mask="url(#mask10_1_12569)">
<mask id="mask11_1_12569" style="mask-type:luminance" maskUnits="userSpaceOnUse" x="33" y="22" width="377" height="93">
<path d="M33.2604 22.2659H409.547V114.271H33.2604V22.2659Z" fill="white"/>
</mask>
<g mask="url(#mask11_1_12569)">
<mask id="mask12_1_12569" style="mask-type:luminance" maskUnits="userSpaceOnUse" x="33" y="22" width="377" height="93">
<path d="M79.2656 22.2659H363.516C375.714 22.2659 387.417 27.1096 396.042 35.7398C404.667 44.3648 409.516 56.068 409.516 68.2659C409.516 80.469 404.667 92.1669 396.042 100.797C387.417 109.422 375.714 114.271 363.516 114.271H79.2656C67.0625 114.271 55.3594 109.422 46.7344 100.797C38.1094 92.1669 33.2604 80.469 33.2604 68.2659C33.2604 56.068 38.1094 44.3648 46.7344 35.7398C55.3594 27.1096 67.0625 22.2659 79.2656 22.2659Z" fill="white"/>
</mask>
<g mask="url(#mask12_1_12569)">
<path d="M33.2604 22.2659H409.547V114.271H33.2604V22.2659Z" fill="#59453C"/>
</g>
</g>
</g>
</g>
</g>
<mask id="mask13_1_12569" style="mask-type:luminance" maskUnits="userSpaceOnUse" x="33" y="22" width="377" height="92">
<path d="M33.2812 22.2656H409.667V113.901H33.2812V22.2656Z" fill="white"/>
</mask>
<g mask="url(#mask13_1_12569)">
<mask id="mask14_1_12569" style="mask-type:luminance" maskUnits="userSpaceOnUse" x="33" y="22" width="377" height="93">
<path d="M79.276 22.2656H363.49C375.687 22.2656 387.385 27.1094 396.016 35.7344C404.641 44.3646 409.484 56.0625 409.484 68.2604C409.484 80.4583 404.641 92.1615 396.016 100.786C387.385 109.411 375.687 114.255 363.49 114.255H79.276C67.0781 114.255 55.3802 109.411 46.75 100.786C38.125 92.1615 33.2812 80.4583 33.2812 68.2604C33.2812 56.0625 38.125 44.3646 46.75 35.7344C55.3802 27.1094 67.0781 22.2656 79.276 22.2656Z" fill="white"/>
</mask>
<g mask="url(#mask14_1_12569)">
<path d="M79.276 22.2656H363.489C375.687 22.2656 387.385 27.1094 396.015 35.7344C404.64 44.3646 409.484 56.0625 409.484 68.2604C409.484 80.4583 404.64 92.1614 396.015 100.786C387.385 109.411 375.687 114.255 363.489 114.255H79.276C67.0781 114.255 55.3802 109.411 46.75 100.786C38.125 92.1614 33.2812 80.4583 33.2812 68.2604C33.2812 56.0625 38.125 44.3646 46.75 35.7344C55.3802 27.1094 67.0781 22.2656 79.276 22.2656Z" stroke="#59453C" stroke-width="7.99609"/>
</g>
</g>
<mask id="mask15_1_12569" style="mask-type:luminance" maskUnits="userSpaceOnUse" x="33" y="152" width="377" height="93">
<path d="M33.2604 152.552H409.547V244.557H33.2604V152.552Z" fill="white"/>
</mask>
<g mask="url(#mask15_1_12569)">
<mask id="mask16_1_12569" style="mask-type:luminance" maskUnits="userSpaceOnUse" x="33" y="152" width="377" height="93">
<path d="M79.2656 152.552H363.516C375.714 152.552 387.417 157.401 396.042 166.026C404.667 174.656 409.516 186.354 409.516 198.557C409.516 210.755 404.667 222.458 396.042 231.083C387.417 239.714 375.714 244.557 363.516 244.557H79.2656C67.0625 244.557 55.3594 239.714 46.7344 231.083C38.1094 222.458 33.2604 210.755 33.2604 198.557C33.2604 186.354 38.1094 174.656 46.7344 166.026C55.3594 157.401 67.0625 152.552 79.2656 152.552Z" fill="white"/>
</mask>
<g mask="url(#mask16_1_12569)">
<mask id="mask17_1_12569" style="mask-type:luminance" maskUnits="userSpaceOnUse" x="32" y="152" width="378" height="94">
<path d="M409.667 152.333H32.3333V245.667H409.667V152.333Z" fill="white"/>
</mask>
<g mask="url(#mask17_1_12569)">
<mask id="mask18_1_12569" style="mask-type:luminance" maskUnits="userSpaceOnUse" x="33" y="152" width="377" height="93">
<path d="M33.2604 152.552H409.547V244.557H33.2604V152.552Z" fill="white"/>
</mask>
<g mask="url(#mask18_1_12569)">
<mask id="mask19_1_12569" style="mask-type:luminance" maskUnits="userSpaceOnUse" x="33" y="152" width="377" height="93">
<path d="M79.2656 152.552H363.516C375.714 152.552 387.417 157.401 396.042 166.026C404.667 174.656 409.516 186.354 409.516 198.557C409.516 210.755 404.667 222.458 396.042 231.083C387.417 239.713 375.714 244.557 363.516 244.557H79.2656C67.0625 244.557 55.3594 239.713 46.7344 231.083C38.1094 222.458 33.2604 210.755 33.2604 198.557C33.2604 186.354 38.1094 174.656 46.7344 166.026C55.3594 157.401 67.0625 152.552 79.2656 152.552Z" fill="white"/>
</mask>
<g mask="url(#mask19_1_12569)">
<path d="M33.2604 152.552H409.547V244.557H33.2604V152.552Z" fill="#59453C"/>
</g>
</g>
</g>
</g>
</g>
<mask id="mask20_1_12569" style="mask-type:luminance" maskUnits="userSpaceOnUse" x="33" y="152" width="377" height="93">
<path d="M33.2812 152.552H409.667V244.193H33.2812V152.552Z" fill="white"/>
</mask>
<g mask="url(#mask20_1_12569)">
<mask id="mask21_1_12569" style="mask-type:luminance" maskUnits="userSpaceOnUse" x="33" y="152" width="377" height="93">
<path d="M79.276 152.552H363.49C375.687 152.552 387.385 157.401 396.016 166.026C404.641 174.651 409.484 186.349 409.484 198.552C409.484 210.75 404.641 222.448 396.016 231.073C387.385 239.703 375.687 244.547 363.49 244.547H79.276C67.0781 244.547 55.3802 239.703 46.75 231.073C38.125 222.448 33.2812 210.75 33.2812 198.552C33.2812 186.349 38.125 174.651 46.75 166.026C55.3802 157.401 67.0781 152.552 79.276 152.552Z" fill="white"/>
</mask>
<g mask="url(#mask21_1_12569)">
<path d="M79.276 152.552H363.489C375.687 152.552 387.385 157.401 396.015 166.026C404.64 174.651 409.484 186.349 409.484 198.552C409.484 210.75 404.64 222.448 396.015 231.073C387.385 239.703 375.687 244.547 363.489 244.547H79.276C67.0781 244.547 55.3802 239.703 46.75 231.073C38.125 222.448 33.2812 210.75 33.2812 198.552C33.2812 186.349 38.125 174.651 46.75 166.026C55.3802 157.401 67.0781 152.552 79.276 152.552Z" stroke="#59453C" stroke-width="7.99609"/>
</g>
</g>
<mask id="mask22_1_12569" style="mask-type:luminance" maskUnits="userSpaceOnUse" x="22" y="22" width="377" height="93">
<path d="M22.3542 22.2656H398.641V114.271H22.3542V22.2656Z" fill="white"/>
</mask>
<g mask="url(#mask22_1_12569)">
<mask id="mask23_1_12569" style="mask-type:luminance" maskUnits="userSpaceOnUse" x="22" y="22" width="377" height="93">
<path d="M68.3542 22.2656H352.604C364.807 22.2656 376.505 27.1094 385.135 35.7396C393.76 44.3646 398.609 56.0677 398.609 68.2656C398.609 80.4688 393.76 92.1667 385.135 100.797C376.505 109.422 364.807 114.271 352.604 114.271H68.3542C56.1562 114.271 44.4531 109.422 35.8281 100.797C27.2031 92.1667 22.3542 80.4688 22.3542 68.2656C22.3542 56.0677 27.2031 44.3646 35.8281 35.7396C44.4531 27.1094 56.1562 22.2656 68.3542 22.2656Z" fill="white"/>
</mask>
<g mask="url(#mask23_1_12569)">
<mask id="mask24_1_12569" style="mask-type:luminance" maskUnits="userSpaceOnUse" x="21" y="21" width="378" height="95">
<path d="M399 21.6667H21.6667V115H399V21.6667Z" fill="white"/>
</mask>
<g mask="url(#mask24_1_12569)">
<mask id="mask25_1_12569" style="mask-type:luminance" maskUnits="userSpaceOnUse" x="22" y="22" width="377" height="93">
<path d="M22.3541 22.2659H398.641V114.271H22.3541V22.2659Z" fill="white"/>
</mask>
<g mask="url(#mask25_1_12569)">
<mask id="mask26_1_12569" style="mask-type:luminance" maskUnits="userSpaceOnUse" x="22" y="22" width="377" height="93">
<path d="M68.3541 22.2659H352.604C364.807 22.2659 376.505 27.1096 385.135 35.7398C393.76 44.3648 398.609 56.068 398.609 68.2659C398.609 80.469 393.76 92.1669 385.135 100.797C376.505 109.422 364.807 114.271 352.604 114.271H68.3541C56.1562 114.271 44.4531 109.422 35.8281 100.797C27.2031 92.1669 22.3541 80.469 22.3541 68.2659C22.3541 56.068 27.2031 44.3648 35.8281 35.7398C44.4531 27.1096 56.1562 22.2659 68.3541 22.2659Z" fill="white"/>
</mask>
<g mask="url(#mask26_1_12569)">
<path d="M22.3541 22.2659H398.641V114.271H22.3541V22.2659Z" fill="#F3D6D4"/>
</g>
</g>
</g>
</g>
</g>
<mask id="mask27_1_12569" style="mask-type:luminance" maskUnits="userSpaceOnUse" x="22" y="22" width="377" height="92">
<path d="M22.375 22.2656H399V113.901H22.375V22.2656Z" fill="white"/>
</mask>
<g mask="url(#mask27_1_12569)">
<mask id="mask28_1_12569" style="mask-type:luminance" maskUnits="userSpaceOnUse" x="22" y="22" width="377" height="93">
<path d="M68.3698 22.2656H352.583C364.781 22.2656 376.479 27.1094 385.104 35.7344C393.734 44.3646 398.578 56.0625 398.578 68.2604C398.578 80.4583 393.734 92.1615 385.104 100.786C376.479 109.411 364.781 114.255 352.583 114.255H68.3698C56.1719 114.255 44.4687 109.411 35.8437 100.786C27.2187 92.1615 22.375 80.4583 22.375 68.2604C22.375 56.0625 27.2187 44.3646 35.8437 35.7344C44.4687 27.1094 56.1719 22.2656 68.3698 22.2656Z" fill="white"/>
</mask>
<g mask="url(#mask28_1_12569)">
<path d="M68.3698 22.2656H352.583C364.781 22.2656 376.479 27.1094 385.104 35.7344C393.734 44.3646 398.578 56.0625 398.578 68.2604C398.578 80.4583 393.734 92.1614 385.104 100.786C376.479 109.411 364.781 114.255 352.583 114.255H68.3698C56.1718 114.255 44.4687 109.411 35.8437 100.786C27.2187 92.1614 22.375 80.4583 22.375 68.2604C22.375 56.0625 27.2187 44.3646 35.8437 35.7344C44.4687 27.1094 56.1718 22.2656 68.3698 22.2656Z" stroke="#59453C" stroke-width="7.99609"/>
</g>
</g>
<mask id="mask29_1_12569" style="mask-type:luminance" maskUnits="userSpaceOnUse" x="22" y="87" width="377" height="93">
<path d="M22.3542 87.4115H398.641V179.411H22.3542V87.4115Z" fill="white"/>
</mask>
<g mask="url(#mask29_1_12569)">
<mask id="mask30_1_12569" style="mask-type:luminance" maskUnits="userSpaceOnUse" x="22" y="87" width="377" height="93">
<path d="M68.3542 87.4115H352.604C364.807 87.4115 376.505 92.2552 385.135 100.885C393.76 109.51 398.609 121.214 398.609 133.411C398.609 145.615 393.76 157.313 385.135 165.938C376.505 174.568 364.807 179.411 352.604 179.411H68.3542C56.1562 179.411 44.4531 174.568 35.8281 165.938C27.2031 157.313 22.3542 145.615 22.3542 133.411C22.3542 121.214 27.2031 109.51 35.8281 100.885C44.4531 92.2552 56.1562 87.4115 68.3542 87.4115Z" fill="white"/>
</mask>
<g mask="url(#mask30_1_12569)">
<mask id="mask31_1_12569" style="mask-type:luminance" maskUnits="userSpaceOnUse" x="21" y="87" width="378" height="94">
<path d="M399 87H21.6667V180.333H399V87Z" fill="white"/>
</mask>
<g mask="url(#mask31_1_12569)">
<mask id="mask32_1_12569" style="mask-type:luminance" maskUnits="userSpaceOnUse" x="22" y="87" width="377" height="93">
<path d="M22.3541 87.4115H398.641V179.411H22.3541V87.4115Z" fill="white"/>
</mask>
<g mask="url(#mask32_1_12569)">
<mask id="mask33_1_12569" style="mask-type:luminance" maskUnits="userSpaceOnUse" x="22" y="87" width="377" height="93">
<path d="M68.3541 87.4115H352.604C364.807 87.4115 376.505 92.2552 385.135 100.885C393.76 109.51 398.609 121.214 398.609 133.411C398.609 145.615 393.76 157.313 385.135 165.938C376.505 174.568 364.807 179.411 352.604 179.411H68.3541C56.1562 179.411 44.4531 174.568 35.8281 165.938C27.2031 157.313 22.3541 145.615 22.3541 133.411C22.3541 121.214 27.2031 109.51 35.8281 100.885C44.4531 92.2552 56.1562 87.4115 68.3541 87.4115Z" fill="white"/>
</mask>
<g mask="url(#mask33_1_12569)">
<path d="M22.3541 87.4115H398.641V179.411H22.3541V87.4115Z" fill="#F3D6D4"/>
</g>
</g>
</g>
</g>
</g>
<mask id="mask34_1_12569" style="mask-type:luminance" maskUnits="userSpaceOnUse" x="22" y="87" width="377" height="93">
<path d="M22.375 87.4115H399V179.047H22.375V87.4115Z" fill="white"/>
</mask>
<g mask="url(#mask34_1_12569)">
<mask id="mask35_1_12569" style="mask-type:luminance" maskUnits="userSpaceOnUse" x="22" y="87" width="377" height="93">
<path d="M68.3698 87.4115H352.583C364.781 87.4115 376.479 92.2552 385.104 100.88C393.734 109.505 398.578 121.208 398.578 133.406C398.578 145.604 393.734 157.302 385.104 165.932C376.479 174.557 364.781 179.401 352.583 179.401H68.3698C56.1719 179.401 44.4687 174.557 35.8437 165.932C27.2187 157.302 22.375 145.604 22.375 133.406C22.375 121.208 27.2187 109.505 35.8437 100.88C44.4687 92.2552 56.1719 87.4115 68.3698 87.4115Z" fill="white"/>
</mask>
<g mask="url(#mask35_1_12569)">
<path d="M68.3698 87.4115H352.583C364.781 87.4115 376.479 92.2552 385.104 100.88C393.734 109.505 398.578 121.208 398.578 133.406C398.578 145.604 393.734 157.302 385.104 165.932C376.479 174.557 364.781 179.401 352.583 179.401H68.3698C56.1718 179.401 44.4687 174.557 35.8437 165.932C27.2187 157.302 22.375 145.604 22.375 133.406C22.375 121.208 27.2187 109.505 35.8437 100.88C44.4687 92.2552 56.1718 87.4115 68.3698 87.4115Z" stroke="#59453C" stroke-width="7.99609"/>
</g>
</g>
<mask id="mask36_1_12569" style="mask-type:luminance" maskUnits="userSpaceOnUse" x="22" y="152" width="377" height="93">
<path d="M22.3542 152.552H398.641V244.557H22.3542V152.552Z" fill="white"/>
</mask>
<g mask="url(#mask36_1_12569)">
<mask id="mask37_1_12569" style="mask-type:luminance" maskUnits="userSpaceOnUse" x="22" y="152" width="377" height="93">
<path d="M68.3542 152.552H352.604C364.807 152.552 376.505 157.401 385.135 166.026C393.76 174.656 398.609 186.354 398.609 198.557C398.609 210.755 393.76 222.458 385.135 231.083C376.505 239.714 364.807 244.557 352.604 244.557H68.3542C56.1562 244.557 44.4531 239.714 35.8281 231.083C27.2031 222.458 22.3542 210.755 22.3542 198.557C22.3542 186.354 27.2031 174.656 35.8281 166.026C44.4531 157.401 56.1562 152.552 68.3542 152.552Z" fill="white"/>
</mask>
<g mask="url(#mask37_1_12569)">
<mask id="mask38_1_12569" style="mask-type:luminance" maskUnits="userSpaceOnUse" x="21" y="152" width="378" height="94">
<path d="M399 152.333H21.6667V245.667H399V152.333Z" fill="white"/>
</mask>
<g mask="url(#mask38_1_12569)">
<mask id="mask39_1_12569" style="mask-type:luminance" maskUnits="userSpaceOnUse" x="22" y="152" width="377" height="93">
<path d="M22.3541 152.552H398.641V244.557H22.3541V152.552Z" fill="white"/>
</mask>
<g mask="url(#mask39_1_12569)">
<mask id="mask40_1_12569" style="mask-type:luminance" maskUnits="userSpaceOnUse" x="22" y="152" width="377" height="93">
<path d="M68.3541 152.552H352.604C364.807 152.552 376.505 157.401 385.135 166.026C393.76 174.656 398.609 186.354 398.609 198.557C398.609 210.755 393.76 222.458 385.135 231.083C376.505 239.713 364.807 244.557 352.604 244.557H68.3541C56.1562 244.557 44.4531 239.713 35.8281 231.083C27.2031 222.458 22.3541 210.755 22.3541 198.557C22.3541 186.354 27.2031 174.656 35.8281 166.026C44.4531 157.401 56.1562 152.552 68.3541 152.552Z" fill="white"/>
</mask>
<g mask="url(#mask40_1_12569)">
<path d="M22.3541 152.552H398.641V244.557H22.3541V152.552Z" fill="#F3D6D4"/>
</g>
</g>
</g>
</g>
</g>
<mask id="mask41_1_12569" style="mask-type:luminance" maskUnits="userSpaceOnUse" x="22" y="152" width="377" height="93">
<path d="M22.375 152.552H399V244.193H22.375V152.552Z" fill="white"/>
</mask>
<g mask="url(#mask41_1_12569)">
<mask id="mask42_1_12569" style="mask-type:luminance" maskUnits="userSpaceOnUse" x="22" y="152" width="377" height="93">
<path d="M68.3698 152.552H352.583C364.781 152.552 376.479 157.401 385.104 166.026C393.734 174.651 398.578 186.349 398.578 198.552C398.578 210.75 393.734 222.448 385.104 231.073C376.479 239.703 364.781 244.547 352.583 244.547H68.3698C56.1719 244.547 44.4687 239.703 35.8437 231.073C27.2187 222.448 22.375 210.75 22.375 198.552C22.375 186.349 27.2187 174.651 35.8437 166.026C44.4687 157.401 56.1719 152.552 68.3698 152.552Z" fill="white"/>
</mask>
<g mask="url(#mask42_1_12569)">
<path d="M68.3698 152.552H352.583C364.781 152.552 376.479 157.401 385.104 166.026C393.734 174.651 398.578 186.349 398.578 198.552C398.578 210.75 393.734 222.448 385.104 231.073C376.479 239.703 364.781 244.547 352.583 244.547H68.3698C56.1718 244.547 44.4687 239.703 35.8437 231.073C27.2187 222.448 22.375 210.75 22.375 198.552C22.375 186.349 27.2187 174.651 35.8437 166.026C44.4687 157.401 56.1718 152.552 68.3698 152.552Z" stroke="#59453C" stroke-width="7.99609"/>
</g>
</g>
<mask id="mask43_1_12569" style="mask-type:luminance" maskUnits="userSpaceOnUse" x="43" y="62" width="320" height="143">
<path d="M43.8594 62.1355H362.37V204.688H43.8594V62.1355Z" fill="white"/>
</mask>
<g mask="url(#mask43_1_12569)">
<mask id="mask44_1_12569" style="mask-type:luminance" maskUnits="userSpaceOnUse" x="43" y="62" width="320" height="143">
<path d="M77.8437 62.1355H328.333C347.104 62.1355 362.318 77.3542 362.318 96.1199V170.703C362.318 189.474 347.104 204.688 328.333 204.688H77.8437C59.0729 204.688 43.8594 189.474 43.8594 170.703V96.1199C43.8594 77.3542 59.0729 62.1355 77.8437 62.1355Z" fill="white"/>
</mask>
<g mask="url(#mask44_1_12569)">
<mask id="mask45_1_12569" style="mask-type:luminance" maskUnits="userSpaceOnUse" x="43" y="61" width="320" height="145">
<path d="M363 61.6667H43V205.667H363V61.6667Z" fill="white"/>
</mask>
<g mask="url(#mask45_1_12569)">
<mask id="mask46_1_12569" style="mask-type:luminance" maskUnits="userSpaceOnUse" x="43" y="62" width="320" height="143">
<path d="M43.8594 62.1357H362.37V204.688H43.8594V62.1357Z" fill="white"/>
</mask>
<g mask="url(#mask46_1_12569)">
<mask id="mask47_1_12569" style="mask-type:luminance" maskUnits="userSpaceOnUse" x="43" y="62" width="320" height="143">
<path d="M77.8437 62.1357H328.333C347.104 62.1357 362.318 77.3545 362.318 96.1201V170.703C362.318 189.474 347.104 204.688 328.333 204.688H77.8437C59.0729 204.688 43.8594 189.474 43.8594 170.703V96.1201C43.8594 77.3545 59.0729 62.1357 77.8437 62.1357Z" fill="white"/>
</mask>
<g mask="url(#mask47_1_12569)">
<path d="M43.8594 62.1357H362.37V204.688H43.8594V62.1357Z" fill="#F3D6D4"/>
</g>
</g>
</g>
</g>
</g>
</g>
</svg>
