<svg width="37" height="37" viewBox="0 0 37 37" fill="none" xmlns="http://www.w3.org/2000/svg">
<mask id="mask0_35_31522" style="mask-type:luminance" maskUnits="userSpaceOnUse" x="0" y="0" width="37" height="37">
<path d="M0.9375 0.484375H36.9219V36.4688H0.9375V0.484375Z" fill="white"/>
</mask>
<g mask="url(#mask0_35_31522)">
<path d="M0.796875 18.4063C0.796875 8.43229 8.88542 0.34375 18.8594 0.34375C28.8333 0.34375 36.9219 8.43229 36.9219 18.4063C36.9219 28.3802 28.8333 36.4688 18.8594 36.4688C8.88542 36.4688 0.796875 28.3802 0.796875 18.4063Z" fill="#F3D6D4"/>
</g>
<path d="M9.5472 17.6045H28.1722C28.6149 17.6045 28.9743 17.9639 28.9743 18.4066C28.9743 18.8493 28.6149 19.2087 28.1722 19.2087H9.5472C9.10449 19.2087 8.74512 18.8493 8.74512 18.4066C8.74512 17.9639 9.10449 17.6045 9.5472 17.6045Z" fill="#59453C"/>
<path d="M17.9535 9.19824C18.1566 9.19824 18.3649 9.27637 18.5212 9.43262C18.8337 9.74512 18.8337 10.2503 18.5212 10.5628L10.6774 18.4066L18.5212 26.2451C18.8337 26.5576 18.8337 27.068 18.5212 27.3805C18.2087 27.693 17.6982 27.693 17.3857 27.3805L8.97949 18.9743C8.82845 18.8232 8.74512 18.6201 8.74512 18.4066C8.74512 18.193 8.82845 17.9899 8.97949 17.8389L17.3857 9.43262C17.542 9.27637 17.7503 9.19824 17.9535 9.19824Z" fill="#59453C"/>
</svg>
