<svg width="27" height="27" viewBox="0 0 27 27" fill="none" xmlns="http://www.w3.org/2000/svg">
<mask id="mask0_35_31521" style="mask-type:luminance" maskUnits="userSpaceOnUse" x="0" y="0" width="27" height="27">
<path d="M0.504883 0.463867H26.9163V26.8753H0.504883V0.463867Z" fill="white"/>
</mask>
<g mask="url(#mask0_35_31521)">
<path d="M26.5049 13.4639C26.5049 20.6462 20.6872 26.4639 13.5049 26.4639C6.32259 26.4639 0.504883 20.6462 0.504883 13.4639C0.504883 6.28158 6.32259 0.463867 13.5049 0.463867C20.6872 0.463867 26.5049 6.28158 26.5049 13.4639Z" fill="#F6EFDC"/>
</g>
<path d="M20.208 14.042H6.80176C6.48405 14.042 6.22363 13.7816 6.22363 13.4639C6.22363 13.1462 6.48405 12.8857 6.80176 12.8857H20.208C20.5257 12.8857 20.7861 13.1462 20.7861 13.4639C20.7861 13.7816 20.5257 14.042 20.208 14.042Z" fill="#59453C"/>
<path d="M14.1563 20.0939C14.0104 20.0939 13.8594 20.0366 13.75 19.922C13.526 19.6981 13.526 19.3335 13.75 19.1095L19.3906 13.4637L13.75 7.81787C13.526 7.59391 13.526 7.22933 13.75 7.00537C13.974 6.7762 14.3385 6.7762 14.5625 7.00537L20.6146 13.0575C20.724 13.1616 20.7865 13.3127 20.7865 13.4637C20.7865 13.6147 20.724 13.7658 20.6146 13.87L14.5625 19.922C14.4531 20.0366 14.3021 20.0939 14.1563 20.0939Z" fill="#59453C"/>
</svg>
