<svg width="36" height="36" viewBox="0 0 36 36" fill="none" xmlns="http://www.w3.org/2000/svg">
<mask id="mask0_1_19278" style="mask-type:luminance" maskUnits="userSpaceOnUse" x="0" y="0" width="36" height="37">
<path d="M0 0.364746H35.776V36.0002H0V0.364746Z" fill="white"/>
</mask>
<g mask="url(#mask0_1_19278)">
<path d="M17.8125 0.328125C8.05729 0.328125 0.125 8.26042 0.125 18.0208C1.09896 41.4844 34.5313 41.4844 35.5052 18.0208C35.5052 8.26042 27.5729 0.328125 17.8125 0.328125ZM27.2448 25.4427C26.1875 26.4583 24.8906 28.2031 23.1927 27.875C19.4427 27.4323 15.8073 25.7865 12.9271 22.9062C10.3281 20.4896 6.18229 13.0677 8.8125 10.1719L10.375 8.60938C10.9844 8 12.0052 8.03125 12.5677 8.70833L14.1458 11.3385C15.0521 12.474 14.0781 13.4115 13.2552 14.1667C12.6146 14.8125 12.5833 15.7656 12.9583 16.6042C14.2604 19.5156 16.349 21.625 19.2604 22.9062C20.099 23.2656 21.0573 23.25 21.6979 22.6094L22.5052 21.8021C23.0469 21.2604 23.9167 21.2135 24.5104 21.724L27.1458 23.3021C27.8177 23.8594 27.849 24.8802 27.2448 25.4896V25.4427Z" fill="#59453C"/>
</g>
</svg>
