<svg width="69" height="62" viewBox="0 0 69 62" fill="none" xmlns="http://www.w3.org/2000/svg">
<mask id="mask0_4_3" style="mask-type:luminance" maskUnits="userSpaceOnUse" x="0" y="0" width="69" height="62">
<path d="M0 0H68.6979V61.0677H0V0Z" fill="white"/>
</mask>
<g mask="url(#mask0_4_3)">
<mask id="mask1_4_3" style="mask-type:luminance" maskUnits="userSpaceOnUse" x="0" y="0" width="69" height="62">
<path d="M30.5312 0H38.099C54.9635 0 68.6302 13.6719 68.6302 30.5365C68.6302 47.3958 54.9635 61.0677 38.099 61.0677H30.5312C13.6719 61.0677 0 47.3958 0 30.5365C0 13.6719 13.6719 0 30.5312 0Z" fill="white"/>
</mask>
<g mask="url(#mask1_4_3)">
<mask id="mask2_4_3" style="mask-type:luminance" maskUnits="userSpaceOnUse" x="-1" y="-1" width="71" height="64">
<path d="M69.9271 -0.640625H-0.739594V62.026H69.9271V-0.640625Z" fill="white"/>
</mask>
<g mask="url(#mask2_4_3)">
<mask id="mask3_4_3" style="mask-type:luminance" maskUnits="userSpaceOnUse" x="0" y="0" width="69" height="62">
<path d="M-1.14441e-05 0H68.6979V61.0677H-1.14441e-05V0Z" fill="white"/>
</mask>
<g mask="url(#mask3_4_3)">
<mask id="mask4_4_3" style="mask-type:luminance" maskUnits="userSpaceOnUse" x="0" y="0" width="69" height="62">
<path d="M30.5312 0H38.0989C54.9635 0 68.6302 13.6719 68.6302 30.5365C68.6302 47.3958 54.9635 61.0677 38.0989 61.0677H30.5312C13.6719 61.0677 -1.14441e-05 47.3958 -1.14441e-05 30.5365C-1.14441e-05 13.6719 13.6719 0 30.5312 0Z" fill="white"/>
</mask>
<g mask="url(#mask4_4_3)">
<path d="M-1.14441e-05 0H68.6979V61.0677H-1.14441e-05V0Z" fill="#A6744C"/>
</g>
</g>
</g>
</g>
</g>
<mask id="mask5_4_3" style="mask-type:luminance" maskUnits="userSpaceOnUse" x="0" y="0" width="69" height="61">
<path d="M0 0.00512695H68.9688V60.9687H0V0.00512695Z" fill="white"/>
</mask>
<g mask="url(#mask5_4_3)">
<mask id="mask6_4_3" style="mask-type:luminance" maskUnits="userSpaceOnUse" x="0" y="0" width="69" height="62">
<path d="M30.5312 0.00512695H38.0938C54.9531 0.00512695 68.625 13.6718 68.625 30.5312C68.625 47.3958 54.9531 61.0624 38.0938 61.0624H30.5312C13.6667 61.0624 0 47.3958 0 30.5312C0 13.6718 13.6667 0.00512695 30.5312 0.00512695Z" fill="white"/>
</mask>
<g mask="url(#mask6_4_3)">
<path d="M30.5312 0.00512695H38.0937C54.9531 0.00512695 68.625 13.6718 68.625 30.5312C68.625 47.3957 54.9531 61.0624 38.0937 61.0624H30.5312C13.6667 61.0624 0 47.3957 0 30.5312C0 13.6718 13.6667 0.00512695 30.5312 0.00512695Z" stroke="black" stroke-width="3.99805"/>
</g>
</g>
<mask id="mask7_4_3" style="mask-type:luminance" maskUnits="userSpaceOnUse" x="19" y="13" width="33" height="33">
<path d="M19.4896 13.4426H51.4739V45.427H19.4896V13.4426Z" fill="white"/>
</mask>
<g mask="url(#mask7_4_3)">
<path d="M35.526 13.474C26.6145 13.5 19.4895 20.7448 19.6093 29.6563C19.6302 31.4636 19.9479 33.2136 20.5677 34.9115C21.1875 36.6094 22.0677 38.1563 23.2135 39.5573C23.3958 39.7813 23.5052 40.0365 23.526 40.3281C23.552 40.6146 23.4948 40.8854 23.3541 41.1406L21.9791 43.6042C21.5937 44.2917 22.2187 45.099 22.9739 44.9063L27.6354 43.7188C27.9739 43.6302 28.2968 43.6667 28.6041 43.8177C30.6927 44.8281 32.8958 45.3594 35.2135 45.4115C44.1718 45.6146 51.5208 38.4531 51.552 29.4948C51.5781 20.6302 44.3854 13.4427 35.526 13.474ZM35.5781 43.4479C34.6614 43.4479 33.75 43.3594 32.8489 43.1771C31.9479 43 31.0677 42.7344 30.2187 42.3802C29.3698 42.0313 28.5625 41.599 27.7968 41.0886C27.0364 40.5781 26.3281 39.9948 25.677 39.3438C25.026 38.6979 24.4479 37.9896 23.9375 37.224C23.4218 36.4584 22.9948 35.6511 22.6406 34.8021C22.2916 33.9531 22.026 33.0781 21.8437 32.1771C21.6666 31.2761 21.5729 30.3646 21.5729 29.4427C21.5729 21.7084 27.8437 15.4375 35.5781 15.4375C43.2812 15.4375 49.5364 21.6615 49.5833 29.3542C49.6302 37.0729 43.2968 43.4479 35.5781 43.4479Z" fill="#F3D6D4"/>
</g>
<path d="M33.0781 22.6356L33.0833 22.646L33.9167 24.3074C34.1042 24.672 34.1615 25.0626 34.0885 25.4689C34.0156 25.8751 33.8281 26.2189 33.526 26.5001C33.224 26.7762 33.0365 27.1199 32.9635 27.521C32.8906 27.922 32.9427 28.3074 33.125 28.6772C33.6302 29.6824 34.4948 31.0731 35.8229 32.0731C36.125 32.3022 36.4688 32.4272 36.849 32.4481C37.2292 32.4689 37.5833 32.3803 37.9115 32.1824L38.4479 31.8543C38.9635 31.5418 39.5052 31.4897 40.0729 31.7033L42.2083 32.521C42.4375 32.6043 42.6458 32.7345 42.8229 32.9012C43 33.0731 43.1406 33.2658 43.2448 33.4949C43.3438 33.7189 43.3958 33.9533 43.4062 34.1981C43.4115 34.4428 43.3698 34.6824 43.2865 34.9116C43.2604 34.9793 43.2292 35.0418 43.1979 35.1043L42.6094 36.2501C42.4062 36.6355 42.1094 36.9168 41.7135 37.0939C41.3177 37.271 40.9115 37.3022 40.4896 37.1981C37.1354 36.3283 29.1302 33.3074 28.4844 24.1772C28.4583 23.8074 28.5365 23.4585 28.7187 23.1356C28.901 22.8126 29.1562 22.5626 29.4896 22.396L30.5781 21.8335C30.7969 21.7189 31.0312 21.6564 31.276 21.6356C31.5208 21.6147 31.7604 21.6408 31.9948 21.7189C32.2292 21.7918 32.4375 21.9116 32.625 22.0678C32.8125 22.2293 32.9635 22.4168 33.0781 22.6356Z" fill="#F3D6D4"/>
</svg>
